<svg width="272" height="20" viewBox="0 0 272 20" fill="none" xmlns="http://www.w3.org/2000/svg">
<path d="M6.36 2.2V19H3.984V4.288H0.192V2.2H6.36ZM24.4481 12.376C25.2961 12.6 25.9521 12.96 26.4161 13.456C26.8801 13.952 27.1121 14.568 27.1121 15.304C27.1121 16.056 26.8561 16.728 26.3441 17.32C25.8321 17.896 25.1201 18.352 24.2081 18.688C23.3121 19.008 22.3041 19.168 21.1841 19.168C20.2401 19.168 19.3121 19.048 18.4001 18.808C17.5041 18.552 16.7041 18.192 16.0001 17.728L16.6961 15.976C17.3041 16.36 18.0001 16.664 18.7841 16.888C19.5681 17.096 20.3601 17.2 21.1601 17.2C22.2481 17.2 23.1121 17.016 23.7521 16.648C24.4081 16.264 24.7361 15.752 24.7361 15.112C24.7361 14.52 24.4721 14.064 23.9441 13.744C23.4321 13.424 22.7041 13.264 21.7601 13.264H19.4321V11.608H21.5921C22.4561 11.608 23.1361 11.456 23.6321 11.152C24.1281 10.848 24.3761 10.432 24.3761 9.904C24.3761 9.328 24.0801 8.88 23.4881 8.56C22.9121 8.24 22.1281 8.08 21.1361 8.08C19.8721 8.08 18.5361 8.408 17.1281 9.064L16.5041 7.288C18.0561 6.504 19.6801 6.112 21.3761 6.112C22.4001 6.112 23.3201 6.256 24.1361 6.544C24.9521 6.832 25.5921 7.24 26.0561 7.768C26.5201 8.296 26.7521 8.896 26.7521 9.568C26.7521 10.192 26.5441 10.752 26.1281 11.248C25.7121 11.744 25.1521 12.12 24.4481 12.376ZM35.1508 6.16C36.9108 6.16 38.2548 6.592 39.1828 7.456C40.1268 8.32 40.5988 9.608 40.5988 11.32V19H38.4148V17.32C38.0308 17.912 37.4788 18.368 36.7588 18.688C36.0548 18.992 35.2148 19.144 34.2388 19.144C32.8148 19.144 31.6708 18.8 30.8068 18.112C29.9588 17.424 29.5348 16.52 29.5348 15.4C29.5348 14.28 29.9428 13.384 30.7588 12.712C31.5748 12.024 32.8708 11.68 34.6468 11.68H38.2948V11.224C38.2948 10.232 38.0068 9.472 37.4308 8.944C36.8548 8.416 36.0068 8.152 34.8868 8.152C34.1348 8.152 33.3988 8.28 32.6788 8.536C31.9588 8.776 31.3508 9.104 30.8548 9.52L29.8948 7.792C30.5508 7.264 31.3348 6.864 32.2468 6.592C33.1588 6.304 34.1268 6.16 35.1508 6.16ZM34.6228 17.368C35.5028 17.368 36.2628 17.176 36.9028 16.792C37.5428 16.392 38.0068 15.832 38.2948 15.112V13.336H34.7428C32.7908 13.336 31.8148 13.992 31.8148 15.304C31.8148 15.944 32.0628 16.448 32.5588 16.816C33.0548 17.184 33.7428 17.368 34.6228 17.368ZM44.7476 6.28H47.0516V11.68H54.2996V6.28H56.6036V19H54.2996V13.672H47.0516V19H44.7476V6.28ZM71.2836 6.28V19H69.2196V14.968H65.5236H65.2596L62.4756 19H60.0036L63.0996 14.656C62.1396 14.368 61.4036 13.896 60.8916 13.24C60.3796 12.568 60.1236 11.736 60.1236 10.744C60.1236 9.288 60.6196 8.184 61.6116 7.432C62.6036 6.664 63.9716 6.28 65.7156 6.28H71.2836ZM62.4756 10.816C62.4756 11.664 62.7396 12.296 63.2676 12.712C63.8116 13.112 64.6196 13.312 65.6916 13.312H69.2196V8.296H65.7876C63.5796 8.296 62.4756 9.136 62.4756 10.816ZM85.2589 8.296H80.6029V19H78.2989V8.296H73.6429V6.28H85.2589V8.296ZM87.6148 6.28H89.9188V15.544L97.7188 6.28H99.8068V19H97.5028V9.736L89.7268 19H87.6148V6.28ZM115.775 12.712C115.775 12.888 115.759 13.12 115.727 13.408H105.407C105.551 14.528 106.039 15.432 106.871 16.12C107.719 16.792 108.767 17.128 110.015 17.128C111.535 17.128 112.759 16.616 113.687 15.592L114.959 17.08C114.383 17.752 113.663 18.264 112.799 18.616C111.951 18.968 110.999 19.144 109.943 19.144C108.599 19.144 107.407 18.872 106.367 18.328C105.327 17.768 104.519 16.992 103.943 16C103.383 15.008 103.103 13.888 103.103 12.64C103.103 11.408 103.375 10.296 103.919 9.304C104.479 8.312 105.239 7.544 106.199 7C107.175 6.44 108.271 6.16 109.487 6.16C110.703 6.16 111.783 6.44 112.727 7C113.687 7.544 114.431 8.312 114.959 9.304C115.503 10.296 115.775 11.432 115.775 12.712ZM109.487 8.104C108.383 8.104 107.455 8.44 106.703 9.112C105.967 9.784 105.535 10.664 105.407 11.752H113.567C113.439 10.68 112.999 9.808 112.247 9.136C111.511 8.448 110.591 8.104 109.487 8.104ZM132.275 6.712C133.459 6.712 134.515 6.976 135.443 7.504C136.371 8.032 137.091 8.768 137.603 9.712C138.131 10.64 138.395 11.704 138.395 12.904C138.395 14.136 138.115 15.232 137.555 16.192C137.011 17.136 136.235 17.872 135.227 18.4C134.235 18.928 133.099 19.192 131.819 19.192C129.659 19.192 127.987 18.456 126.803 16.984C125.635 15.496 125.051 13.408 125.051 10.72C125.051 8.112 125.587 6.072 126.659 4.6C127.731 3.112 129.371 2.128 131.579 1.648L137.387 0.352L137.723 2.464L132.371 3.616C130.707 3.984 129.467 4.608 128.651 5.488C127.835 6.368 127.371 7.632 127.259 9.28C127.803 8.464 128.507 7.832 129.371 7.384C130.235 6.936 131.203 6.712 132.275 6.712ZM131.867 17.272C132.683 17.272 133.403 17.088 134.027 16.72C134.667 16.352 135.163 15.848 135.515 15.208C135.867 14.552 136.043 13.808 136.043 12.976C136.043 11.712 135.659 10.696 134.891 9.928C134.123 9.16 133.115 8.776 131.867 8.776C130.619 8.776 129.603 9.16 128.819 9.928C128.051 10.696 127.667 11.712 127.667 12.976C127.667 13.808 127.843 14.552 128.195 15.208C128.563 15.848 129.067 16.352 129.707 16.72C130.347 17.088 131.067 17.272 131.867 17.272ZM153.181 12.712C153.181 12.888 153.165 13.12 153.133 13.408H142.813C142.957 14.528 143.445 15.432 144.277 16.12C145.125 16.792 146.173 17.128 147.421 17.128C148.941 17.128 150.165 16.616 151.093 15.592L152.365 17.08C151.789 17.752 151.069 18.264 150.205 18.616C149.357 18.968 148.405 19.144 147.349 19.144C146.005 19.144 144.813 18.872 143.773 18.328C142.733 17.768 141.925 16.992 141.349 16C140.789 15.008 140.509 13.888 140.509 12.64C140.509 11.408 140.781 10.296 141.325 9.304C141.885 8.312 142.645 7.544 143.605 7C144.581 6.44 145.677 6.16 146.893 6.16C148.109 6.16 149.189 6.44 150.133 7C151.093 7.544 151.837 8.312 152.365 9.304C152.909 10.296 153.181 11.432 153.181 12.712ZM146.893 8.104C145.789 8.104 144.861 8.44 144.109 9.112C143.373 9.784 142.941 10.664 142.813 11.752H150.973C150.845 10.68 150.405 9.808 149.653 9.136C148.917 8.448 147.997 8.104 146.893 8.104ZM162.299 19.144C161.003 19.144 159.843 18.864 158.819 18.304C157.811 17.744 157.019 16.976 156.443 16C155.867 15.008 155.579 13.888 155.579 12.64C155.579 11.392 155.867 10.28 156.443 9.304C157.019 8.312 157.811 7.544 158.819 7C159.843 6.44 161.003 6.16 162.299 6.16C163.451 6.16 164.475 6.392 165.371 6.856C166.283 7.32 166.987 7.992 167.483 8.872L165.731 10C165.331 9.392 164.835 8.936 164.243 8.632C163.651 8.328 162.995 8.176 162.275 8.176C161.443 8.176 160.691 8.36 160.019 8.728C159.363 9.096 158.843 9.624 158.459 10.312C158.091 10.984 157.907 11.76 157.907 12.64C157.907 13.536 158.091 14.328 158.459 15.016C158.843 15.688 159.363 16.208 160.019 16.576C160.691 16.944 161.443 17.128 162.275 17.128C162.995 17.128 163.651 16.976 164.243 16.672C164.835 16.368 165.331 15.912 165.731 15.304L167.483 16.408C166.987 17.288 166.283 17.968 165.371 18.448C164.475 18.912 163.451 19.144 162.299 19.144ZM182.25 6.28V19H179.946V8.296H172.77V19H170.466V6.28H182.25ZM197.629 6.28V19H195.325V8.296H189.853L189.709 11.128C189.629 12.84 189.477 14.272 189.253 15.424C189.029 16.56 188.661 17.472 188.149 18.16C187.637 18.848 186.925 19.192 186.013 19.192C185.597 19.192 185.125 19.12 184.597 18.976L184.741 17.032C184.949 17.08 185.141 17.104 185.317 17.104C185.957 17.104 186.437 16.824 186.757 16.264C187.077 15.704 187.285 15.04 187.381 14.272C187.477 13.504 187.565 12.408 187.645 10.984L187.861 6.28H197.629ZM206.62 6.16C208.38 6.16 209.724 6.592 210.652 7.456C211.596 8.32 212.068 9.608 212.068 11.32V19H209.884V17.32C209.5 17.912 208.948 18.368 208.228 18.688C207.524 18.992 206.684 19.144 205.708 19.144C204.284 19.144 203.14 18.8 202.276 18.112C201.428 17.424 201.004 16.52 201.004 15.4C201.004 14.28 201.412 13.384 202.228 12.712C203.044 12.024 204.34 11.68 206.116 11.68H209.764V11.224C209.764 10.232 209.476 9.472 208.9 8.944C208.324 8.416 207.476 8.152 206.356 8.152C205.604 8.152 204.868 8.28 204.148 8.536C203.428 8.776 202.82 9.104 202.324 9.52L201.364 7.792C202.02 7.264 202.804 6.864 203.716 6.592C204.628 6.304 205.596 6.16 206.62 6.16ZM206.092 17.368C206.972 17.368 207.732 17.176 208.372 16.792C209.012 16.392 209.476 15.832 209.764 15.112V13.336H206.212C204.26 13.336 203.284 13.992 203.284 15.304C203.284 15.944 203.532 16.448 204.028 16.816C204.524 17.184 205.212 17.368 206.092 17.368ZM225.696 8.296H221.04V19H218.736V8.296H214.08V6.28H225.696V8.296ZM228.052 6.28H230.356V11.68H237.604V6.28H239.908V19H237.604V13.672H230.356V19H228.052V6.28ZM249.836 19.144C248.572 19.144 247.436 18.864 246.428 18.304C245.42 17.744 244.628 16.976 244.052 16C243.492 15.008 243.212 13.888 243.212 12.64C243.212 11.392 243.492 10.28 244.052 9.304C244.628 8.312 245.42 7.544 246.428 7C247.436 6.44 248.572 6.16 249.836 6.16C251.1 6.16 252.228 6.44 253.22 7C254.228 7.544 255.012 8.312 255.572 9.304C256.148 10.28 256.436 11.392 256.436 12.64C256.436 13.888 256.148 15.008 255.572 16C255.012 16.976 254.228 17.744 253.22 18.304C252.228 18.864 251.1 19.144 249.836 19.144ZM249.836 17.128C250.652 17.128 251.38 16.944 252.02 16.576C252.676 16.192 253.188 15.664 253.556 14.992C253.924 14.304 254.108 13.52 254.108 12.64C254.108 11.76 253.924 10.984 253.556 10.312C253.188 9.624 252.676 9.096 252.02 8.728C251.38 8.36 250.652 8.176 249.836 8.176C249.02 8.176 248.284 8.36 247.628 8.728C246.988 9.096 246.476 9.624 246.092 10.312C245.724 10.984 245.54 11.76 245.54 12.64C245.54 13.52 245.724 14.304 246.092 14.992C246.476 15.664 246.988 16.192 247.628 16.576C248.284 16.944 249.02 17.128 249.836 17.128ZM271.259 12.712C271.259 12.888 271.243 13.12 271.211 13.408H260.891C261.035 14.528 261.523 15.432 262.355 16.12C263.203 16.792 264.251 17.128 265.499 17.128C267.019 17.128 268.243 16.616 269.171 15.592L270.443 17.08C269.867 17.752 269.147 18.264 268.283 18.616C267.435 18.968 266.483 19.144 265.427 19.144C264.083 19.144 262.891 18.872 261.851 18.328C260.811 17.768 260.003 16.992 259.427 16C258.867 15.008 258.587 13.888 258.587 12.64C258.587 11.408 258.859 10.296 259.403 9.304C259.963 8.312 260.723 7.544 261.683 7C262.659 6.44 263.755 6.16 264.971 6.16C266.187 6.16 267.267 6.44 268.211 7C269.171 7.544 269.915 8.312 270.443 9.304C270.987 10.296 271.259 11.432 271.259 12.712ZM264.971 8.104C263.867 8.104 262.939 8.44 262.187 9.112C261.451 9.784 261.019 10.664 260.891 11.752H269.051C268.923 10.68 268.483 9.808 267.731 9.136C266.995 8.448 266.075 8.104 264.971 8.104Z" fill="black"/>
</svg>
