<svg width="84" height="59" viewBox="0 0 84 59" fill="none" xmlns="http://www.w3.org/2000/svg">
<path d="M13.6694 58.644C6.13054 58.644 0 52.5134 0 44.9745C0 37.4356 6.13054 31.3051 13.6694 31.3051C21.2083 31.3051 27.3389 37.4356 27.3389 44.9745C27.3389 52.5548 21.2083 58.644 13.6694 58.644Z" fill="white"/>
<path d="M13.6694 58.644C6.13054 58.644 0 52.5134 0 44.9745C0 37.4356 6.13054 31.3051 13.6694 31.3051C21.2083 31.3051 27.3389 37.4356 27.3389 44.9745C27.3389 52.5548 21.2083 58.644 13.6694 58.644Z" fill="white"/>
<path d="M45.9791 1.52208L31.1498 25.7543C30.7356 26.4584 31.1913 27.3283 31.9783 27.3283H46.8076H61.6368C62.4238 27.3283 62.8795 26.417 62.4653 25.7543L47.636 1.52208C47.2218 0.90074 46.3519 0.90074 45.9791 1.52208Z" fill="white"/>
<path d="M27.0487 5.62311L21.7052 0.279602C21.3324 -0.0932007 20.6697 -0.0932007 20.2969 0.279602L14.4149 6.1616C14.0421 6.5344 13.3793 6.5344 13.0065 6.1616L7.12449 0.279602C6.75168 -0.0932007 6.08893 -0.0932007 5.71612 0.279602L0.37262 5.62311C-0.000183128 5.99591 -0.000183128 6.65867 0.37262 7.03148L6.25461 12.9135C6.62741 13.2863 6.62741 13.949 6.25461 14.3218L0.37262 20.2038C-0.000183128 20.5766 -0.000183128 21.2394 0.37262 21.6122L5.71612 26.9557C6.08893 27.3285 6.75168 27.3285 7.12449 26.9557L13.0065 21.0737C13.3793 20.7009 14.0421 20.7009 14.4149 21.0737L20.2969 26.9557C20.6697 27.3285 21.3324 27.3285 21.7052 26.9557L27.0487 21.6122C27.4215 21.2394 27.4215 20.5766 27.0487 20.2038L21.1667 14.3218C20.7939 13.949 20.7939 13.2863 21.1667 12.9135L27.0487 7.03148C27.463 6.65867 27.463 6.03733 27.0487 5.62311Z" fill="white"/>
<path d="M33.7592 40.7492V42.489H36.783V43.6902H33.7592V46.0513H32.2679V39.548H37.1558V40.7492H33.7592Z" fill="white"/>
<path d="M39.1858 45.3886C38.6887 44.8915 38.3988 44.1459 38.3988 43.1932V39.548H39.89V43.1103C39.89 44.2702 40.3871 44.8501 41.3398 44.8501C41.7954 44.8501 42.1682 44.7258 42.4168 44.4358C42.6653 44.1459 42.7896 43.7317 42.7896 43.1103V39.548H44.2808V43.1932C44.2808 44.1459 44.0322 44.8915 43.4938 45.3886C42.9967 45.8856 42.2511 46.1756 41.3398 46.1756C40.4285 46.1756 39.6829 45.8856 39.1858 45.3886Z" fill="white"/>
<path d="M47.263 40.7907H45.1918V39.548H50.8253V40.7907H48.7542V46.0513H47.263V40.7907Z" fill="white"/>
<path d="M52.5235 45.3886C52.0265 44.8915 51.7365 44.1459 51.7365 43.1932V39.548H53.2277V43.1103C53.2277 44.2702 53.7248 44.8501 54.6775 44.8501C55.1332 44.8501 55.506 44.7258 55.7545 44.4358C56.003 44.1459 56.1273 43.7317 56.1273 43.1103V39.548H57.6185V43.1932C57.6185 44.1459 57.37 44.8915 56.8315 45.3886C56.3344 45.8856 55.5888 46.1756 54.6775 46.1756C53.7662 46.1756 53.062 45.8856 52.5235 45.3886Z" fill="white"/>
<path d="M63.5007 46.0516L62.258 44.2291H62.1752H60.8497V46.0516H59.3585V39.5897H62.1752C62.7551 39.5897 63.2522 39.6726 63.6664 39.8797C64.0806 40.0868 64.412 40.3353 64.6605 40.7081C64.8677 41.0395 64.9919 41.4952 64.9919 41.9508C64.9919 42.4479 64.8677 42.8621 64.6605 43.1935C64.412 43.5249 64.0806 43.8148 63.6664 43.9805L65.1162 46.0516H63.5007ZM63.1279 41.0809C62.8794 40.8738 62.548 40.791 62.0923 40.791H60.8497V43.0692H62.0923C62.548 43.0692 62.8794 42.9864 63.1279 42.7793C63.3764 42.5722 63.4593 42.3236 63.4593 41.9508C63.5007 41.5366 63.3764 41.2881 63.1279 41.0809Z" fill="white"/>
<path d="M71.4953 44.8501V46.0513H66.4832V39.548H71.371V40.7492H67.9744V42.1576H70.9568V43.3589H67.9744V44.8501H71.4953Z" fill="white"/>
<path d="M36.5346 56.6557H33.5107L32.9308 58.0641H31.3982L34.2978 51.6021H35.789L38.6886 58.0641H37.1145L36.5346 56.6557ZM36.0789 55.5373L35.0434 53.0519L34.0078 55.5373H36.0789Z" fill="white"/>
<path d="M40.8426 57.7326C40.3041 57.4426 39.8899 57.0284 39.5999 56.5313C39.31 56.0343 39.1443 55.4544 39.1443 54.7916C39.1443 54.1703 39.31 53.5903 39.5999 53.0518C39.8899 52.5548 40.3455 52.1406 40.8426 51.8506C41.3811 51.5606 41.961 51.4364 42.6238 51.4364C43.2037 51.4364 43.7008 51.5192 44.1564 51.7263C44.6121 51.9334 44.9849 52.2234 45.3162 52.5962L44.3635 53.4661C43.9079 52.969 43.3694 52.7205 42.748 52.7205C42.3338 52.7205 42.0024 52.8033 41.6711 52.969C41.3397 53.1347 41.0911 53.3832 40.9255 53.7146C40.7598 54.046 40.6769 54.3774 40.6769 54.7916C40.6769 55.2058 40.7598 55.5372 40.9255 55.8686C41.0911 56.2 41.3397 56.4485 41.6711 56.6142C42.0024 56.7799 42.3338 56.8627 42.748 56.8627C43.4108 56.8627 43.9493 56.6142 44.3635 56.0757L45.3162 56.9456C45.0263 57.3184 44.6121 57.6083 44.1564 57.8154C43.7008 58.0226 43.2037 58.1054 42.6238 58.1054C42.0024 58.1468 41.3811 58.0226 40.8426 57.7326Z" fill="white"/>
<path d="M50.7425 56.6557H47.7186L47.1387 58.0641H45.6061L48.5057 51.6021H49.9969L52.8964 58.0641H51.3224L50.7425 56.6557ZM50.2868 55.5373L49.2513 53.0519L48.2157 55.5373H50.2868Z" fill="white"/>
<path d="M53.8492 51.5606H56.7902C57.4944 51.5606 58.1158 51.6849 58.6542 51.9748C59.1927 52.2234 59.607 52.6376 59.8969 53.0932C60.1869 53.5903 60.3526 54.1288 60.3526 54.7916C60.3526 55.4543 60.1869 55.9928 59.8969 56.4899C59.607 56.987 59.1927 57.3598 58.6542 57.6083C58.1158 57.8568 57.4944 58.0225 56.7902 58.0225H53.8492V51.5606ZM56.7074 56.8213C57.3702 56.8213 57.8672 56.6556 58.24 56.2828C58.6128 55.91 58.8199 55.4129 58.8199 54.833C58.8199 54.2117 58.6128 53.7146 58.24 53.3832C57.8672 53.0104 57.3287 52.8447 56.7074 52.8447H55.3404V56.8627H56.7074V56.8213Z" fill="white"/>
<path d="M66.7729 56.8627V58.0639H61.7608V51.5606H66.6487V52.7619H63.252V54.1702H66.2759V55.3301H63.252V56.8627H66.7729Z" fill="white"/>
<path d="M74.1463 58.0639V54.1702L72.2408 57.3598H71.5781L69.6726 54.2531V58.0639H68.2643V51.5606H69.507L71.9095 55.5786L74.312 51.5606H75.5547V58.0639H74.1463Z" fill="white"/>
<path d="M80.4838 55.7443V58.0639H78.9926V55.7443L76.4658 51.5606H78.0813L79.8211 54.4602L81.5194 51.5606H83.0106L80.4838 55.7443Z" fill="white"/>
</svg>
