<svg width="303" height="37" viewBox="0 0 303 37" fill="none" xmlns="http://www.w3.org/2000/svg">
<path d="M7.72 7.192C8.47733 7.37333 9.048 7.69867 9.432 8.168C9.82667 8.62667 10.024 9.21867 10.024 9.944C10.024 10.9147 9.66667 11.6667 8.952 12.2C8.248 12.7333 7.21867 13 5.864 13H0.744V1.8H5.56C6.78667 1.8 7.74133 2.05067 8.424 2.552C9.11733 3.04267 9.464 3.752 9.464 4.68C9.464 5.288 9.30933 5.80533 9 6.232C8.70133 6.65867 8.27467 6.97867 7.72 7.192ZM2.328 6.728H5.448C6.22667 6.728 6.81867 6.57333 7.224 6.264C7.64 5.95467 7.848 5.50133 7.848 4.904C7.848 4.30667 7.64 3.85333 7.224 3.544C6.808 3.224 6.216 3.064 5.448 3.064H2.328V6.728ZM5.832 11.736C7.54933 11.736 8.408 11.096 8.408 9.816C8.408 9.176 8.18933 8.70667 7.752 8.408C7.32533 8.09867 6.68533 7.944 5.832 7.944H2.328V11.736H5.832ZM16.2651 7.4C17.3318 7.41067 18.1478 7.656 18.7131 8.136C19.2785 8.616 19.5611 9.29333 19.5611 10.168C19.5611 11.0853 19.2518 11.7947 18.6331 12.296C18.0251 12.7867 17.1505 13.0267 16.0091 13.016L12.4411 13V4.52H13.9771V7.384L16.2651 7.4ZM20.8251 4.52H22.3611V13H20.8251V4.52ZM15.8971 11.848C16.5905 11.8587 17.1131 11.72 17.4651 11.432C17.8278 11.144 18.0091 10.7173 18.0091 10.152C18.0091 9.59733 17.8331 9.192 17.4811 8.936C17.1291 8.68 16.6011 8.54667 15.8971 8.536L13.9771 8.504V11.832L15.8971 11.848ZM37.5003 4.52V13H35.9643V5.864H31.1803V13H29.6443V4.52H37.5003ZM44.1044 13.096C43.2617 13.096 42.5044 12.9093 41.8324 12.536C41.1604 12.1627 40.6324 11.6507 40.2484 11C39.875 10.3387 39.6884 9.592 39.6884 8.76C39.6884 7.928 39.875 7.18667 40.2484 6.536C40.6324 5.87467 41.1604 5.36267 41.8324 5C42.5044 4.62667 43.2617 4.44 44.1044 4.44C44.947 4.44 45.699 4.62667 46.3604 5C47.0324 5.36267 47.555 5.87467 47.9284 6.536C48.3124 7.18667 48.5044 7.928 48.5044 8.76C48.5044 9.592 48.3124 10.3387 47.9284 11C47.555 11.6507 47.0324 12.1627 46.3604 12.536C45.699 12.9093 44.947 13.096 44.1044 13.096ZM44.1044 11.752C44.6484 11.752 45.1337 11.6293 45.5604 11.384C45.9977 11.128 46.339 10.776 46.5844 10.328C46.8297 9.86933 46.9524 9.34667 46.9524 8.76C46.9524 8.17333 46.8297 7.656 46.5844 7.208C46.339 6.74933 45.9977 6.39733 45.5604 6.152C45.1337 5.90667 44.6484 5.784 44.1044 5.784C43.5604 5.784 43.0697 5.90667 42.6324 6.152C42.2057 6.39733 41.8644 6.74933 41.6084 7.208C41.363 7.656 41.2404 8.17333 41.2404 8.76C41.2404 9.34667 41.363 9.86933 41.6084 10.328C41.8644 10.776 42.2057 11.128 42.6324 11.384C43.0697 11.6293 43.5604 11.752 44.1044 11.752ZM57.9399 4.52V13H56.4039V5.864H52.7559L52.6599 7.752C52.6065 8.89333 52.5052 9.848 52.3559 10.616C52.2065 11.3733 51.9612 11.9813 51.6199 12.44C51.2785 12.8987 50.8039 13.128 50.1959 13.128C49.9185 13.128 49.6039 13.08 49.2519 12.984L49.3479 11.688C49.4865 11.72 49.6145 11.736 49.7319 11.736C50.1585 11.736 50.4785 11.5493 50.6919 11.176C50.9052 10.8027 51.0439 10.36 51.1079 9.848C51.1719 9.336 51.2305 8.60533 51.2839 7.656L51.4279 4.52H57.9399ZM68.4139 4.44C69.2352 4.44 69.9712 4.62667 70.6219 5C71.2725 5.36267 71.7845 5.87467 72.1579 6.536C72.5312 7.18667 72.7179 7.928 72.7179 8.76C72.7179 9.592 72.5312 10.3387 72.1579 11C71.7845 11.6507 71.2725 12.1627 70.6219 12.536C69.9712 12.9093 69.2352 13.096 68.4139 13.096C67.6672 13.096 66.9899 12.9413 66.3819 12.632C65.7739 12.3227 65.2725 11.8907 64.8779 11.336C64.4939 10.7707 64.2539 10.1307 64.1579 9.416H62.4459V13H60.9099V4.52H62.4459V7.992H64.1739C64.2805 7.288 64.5259 6.66933 64.9099 6.136C65.3045 5.592 65.8005 5.176 66.3979 4.888C67.0059 4.58933 67.6779 4.44 68.4139 4.44ZM68.4139 11.752C68.9365 11.752 69.4059 11.6293 69.8219 11.384C70.2485 11.1387 70.5845 10.792 70.8299 10.344C71.0752 9.88533 71.1979 9.35733 71.1979 8.76C71.1979 8.17333 71.0752 7.656 70.8299 7.208C70.5845 6.74933 70.2485 6.39733 69.8219 6.152C69.4059 5.90667 68.9365 5.784 68.4139 5.784C67.8912 5.784 67.4165 5.90667 66.9899 6.152C66.5632 6.39733 66.2272 6.74933 65.9819 7.208C65.7472 7.656 65.6299 8.17333 65.6299 8.76C65.6299 9.35733 65.7472 9.88533 65.9819 10.344C66.2272 10.792 66.5632 11.1387 66.9899 11.384C67.4165 11.6293 67.8912 11.752 68.4139 11.752ZM79.2455 4.808C80.0348 4.808 80.7388 4.984 81.3575 5.336C81.9762 5.688 82.4562 6.17867 82.7975 6.808C83.1495 7.42667 83.3255 8.136 83.3255 8.936C83.3255 9.75733 83.1388 10.488 82.7655 11.128C82.4028 11.7573 81.8855 12.248 81.2135 12.6C80.5522 12.952 79.7948 13.128 78.9415 13.128C77.5015 13.128 76.3868 12.6373 75.5975 11.656C74.8188 10.664 74.4295 9.272 74.4295 7.48C74.4295 5.74133 74.7868 4.38133 75.5015 3.4C76.2162 2.408 77.3095 1.752 78.7815 1.432L82.6535 0.568L82.8775 1.976L79.3095 2.744C78.2002 2.98933 77.3735 3.40533 76.8295 3.992C76.2855 4.57867 75.9762 5.42133 75.9015 6.52C76.2642 5.976 76.7335 5.55467 77.3095 5.256C77.8855 4.95733 78.5308 4.808 79.2455 4.808ZM78.9735 11.848C79.5175 11.848 79.9975 11.7253 80.4135 11.48C80.8402 11.2347 81.1708 10.8987 81.4055 10.472C81.6402 10.0347 81.7575 9.53867 81.7575 8.984C81.7575 8.14133 81.5015 7.464 80.9895 6.952C80.4775 6.44 79.8055 6.184 78.9735 6.184C78.1415 6.184 77.4642 6.44 76.9415 6.952C76.4295 7.464 76.1735 8.14133 76.1735 8.984C76.1735 9.53867 76.2908 10.0347 76.5255 10.472C76.7708 10.8987 77.1068 11.2347 77.5335 11.48C77.9602 11.7253 78.4402 11.848 78.9735 11.848ZM85.5193 4.52H87.0553V10.696L92.2552 4.52H93.6473V13H92.1112V6.824L86.9273 13H85.5193V4.52ZM102.949 5.864H99.8446V13H98.3086V5.864H95.2046V4.52H102.949V5.864ZM111.808 8.808C111.808 8.92533 111.798 9.08 111.776 9.272H104.896C104.992 10.0187 105.318 10.6213 105.872 11.08C106.438 11.528 107.136 11.752 107.968 11.752C108.982 11.752 109.798 11.4107 110.416 10.728L111.264 11.72C110.88 12.168 110.4 12.5093 109.824 12.744C109.259 12.9787 108.624 13.096 107.92 13.096C107.024 13.096 106.23 12.9147 105.536 12.552C104.843 12.1787 104.304 11.6613 103.92 11C103.547 10.3387 103.36 9.592 103.36 8.76C103.36 7.93867 103.542 7.19733 103.904 6.536C104.278 5.87467 104.784 5.36267 105.424 5C106.075 4.62667 106.806 4.44 107.616 4.44C108.427 4.44 109.147 4.62667 109.776 5C110.416 5.36267 110.912 5.87467 111.264 6.536C111.627 7.19733 111.808 7.95467 111.808 8.808ZM107.616 5.736C106.88 5.736 106.262 5.96 105.76 6.408C105.27 6.856 104.982 7.44267 104.896 8.168H110.336C110.251 7.45333 109.958 6.872 109.456 6.424C108.966 5.96533 108.352 5.736 107.616 5.736ZM130.568 4.52V13H118.488V4.52H120.024V11.656H123.768V4.52H125.304V11.656H129.032V4.52H130.568ZM136.575 4.44C137.748 4.44 138.644 4.728 139.263 5.304C139.892 5.88 140.207 6.73867 140.207 7.88V13H138.751V11.88C138.495 12.2747 138.127 12.5787 137.647 12.792C137.177 12.9947 136.617 13.096 135.967 13.096C135.017 13.096 134.255 12.8667 133.679 12.408C133.113 11.9493 132.831 11.3467 132.831 10.6C132.831 9.85333 133.103 9.256 133.647 8.808C134.191 8.34933 135.055 8.12 136.239 8.12H138.671V7.816C138.671 7.15467 138.479 6.648 138.095 6.296C137.711 5.944 137.145 5.768 136.399 5.768C135.897 5.768 135.407 5.85333 134.927 6.024C134.447 6.184 134.041 6.40267 133.711 6.68L133.071 5.528C133.508 5.176 134.031 4.90933 134.639 4.728C135.247 4.536 135.892 4.44 136.575 4.44ZM136.223 11.912C136.809 11.912 137.316 11.784 137.743 11.528C138.169 11.2613 138.479 10.888 138.671 10.408V9.224H136.303C135.001 9.224 134.351 9.66133 134.351 10.536C134.351 10.9627 134.516 11.2987 134.847 11.544C135.177 11.7893 135.636 11.912 136.223 11.912ZM148.268 13L145.82 9.752L143.34 13H141.628L144.972 8.664L141.788 4.52H143.5L145.836 7.576L148.156 4.52H149.836L146.636 8.664L150.012 13H148.268ZM161.405 4.52V13H160.013V6.808L156.845 12.04H156.173L153.037 6.792V13H151.629V4.52H153.213L156.541 10.248L159.965 4.52H161.405ZM167.418 4.44C168.592 4.44 169.488 4.728 170.106 5.304C170.736 5.88 171.05 6.73867 171.05 7.88V13H169.594V11.88C169.338 12.2747 168.97 12.5787 168.49 12.792C168.021 12.9947 167.461 13.096 166.81 13.096C165.861 13.096 165.098 12.8667 164.522 12.408C163.957 11.9493 163.674 11.3467 163.674 10.6C163.674 9.85333 163.946 9.256 164.49 8.808C165.034 8.34933 165.898 8.12 167.082 8.12H169.514V7.816C169.514 7.15467 169.322 6.648 168.938 6.296C168.554 5.944 167.989 5.768 167.242 5.768C166.741 5.768 166.25 5.85333 165.77 6.024C165.29 6.184 164.885 6.40267 164.554 6.68L163.914 5.528C164.352 5.176 164.874 4.90933 165.482 4.728C166.09 4.536 166.736 4.44 167.418 4.44ZM167.066 11.912C167.653 11.912 168.16 11.784 168.586 11.528C169.013 11.2613 169.322 10.888 169.514 10.408V9.224H167.146C165.845 9.224 165.194 9.66133 165.194 10.536C165.194 10.9627 165.36 11.2987 165.69 11.544C166.021 11.7893 166.48 11.912 167.066 11.912ZM180.136 5.864H177.032V13H175.496V5.864H172.392V4.52H180.136V5.864ZM185.531 7.4C186.597 7.41067 187.413 7.656 187.979 8.136C188.544 8.616 188.827 9.29333 188.827 10.168C188.827 11.0853 188.517 11.7947 187.899 12.296C187.291 12.7867 186.416 13.0267 185.275 13.016L181.707 13V4.52H183.243V7.384L185.531 7.4ZM190.091 4.52H191.627V13H190.091V4.52ZM185.163 11.848C185.856 11.8587 186.379 11.72 186.731 11.432C187.093 11.144 187.275 10.7173 187.275 10.152C187.275 9.59733 187.099 9.192 186.747 8.936C186.395 8.68 185.867 8.54667 185.163 8.536L183.243 8.504V11.832L185.163 11.848ZM194.965 10.904C195.264 10.904 195.509 11.0107 195.701 11.224C195.904 11.4267 196.005 11.6827 196.005 11.992C196.005 12.152 195.984 12.3067 195.941 12.456C195.909 12.6053 195.84 12.8347 195.733 13.144L194.981 15.368H193.973L194.565 12.984C194.362 12.9093 194.197 12.7867 194.069 12.616C193.952 12.4347 193.893 12.2267 193.893 11.992C193.893 11.672 193.994 11.4107 194.197 11.208C194.4 11.0053 194.656 10.904 194.965 10.904ZM0.488 24.52H2.024V30.696L7.224 24.52H8.616V33H7.08V26.824L1.896 33H0.488V24.52ZM21.6703 28.6C22.7689 28.8773 23.3183 29.5653 23.3183 30.664C23.3183 31.4107 23.0356 31.9867 22.4703 32.392C21.9156 32.7973 21.0836 33 19.9743 33H15.8943V24.52H19.8303C20.8329 24.52 21.6169 24.712 22.1823 25.096C22.7476 25.4693 23.0303 26.0027 23.0303 26.696C23.0303 27.144 22.9076 27.5333 22.6623 27.864C22.4276 28.184 22.0969 28.4293 21.6703 28.6ZM17.3983 28.168H19.7023C20.2889 28.168 20.7316 28.0613 21.0303 27.848C21.3396 27.6347 21.4943 27.3253 21.4943 26.92C21.4943 26.1093 20.8969 25.704 19.7023 25.704H17.3983V28.168ZM19.8623 31.816C20.5023 31.816 20.9823 31.7147 21.3023 31.512C21.6223 31.3093 21.7823 30.9947 21.7823 30.568C21.7823 30.1307 21.6329 29.8053 21.3343 29.592C21.0463 29.3787 20.5876 29.272 19.9583 29.272H17.3983V31.816H19.8623ZM28.7464 24.44C29.9197 24.44 30.8157 24.728 31.4344 25.304C32.0637 25.88 32.3784 26.7387 32.3784 27.88V33H30.9224V31.88C30.6664 32.2747 30.2984 32.5787 29.8184 32.792C29.349 32.9947 28.789 33.096 28.1384 33.096C27.189 33.096 26.4264 32.8667 25.8504 32.408C25.285 31.9493 25.0024 31.3467 25.0024 30.6C25.0024 29.8533 25.2744 29.256 25.8184 28.808C26.3624 28.3493 27.2264 28.12 28.4104 28.12H30.8424V27.816C30.8424 27.1547 30.6504 26.648 30.2664 26.296C29.8824 25.944 29.317 25.768 28.5704 25.768C28.069 25.768 27.5784 25.8533 27.0984 26.024C26.6184 26.184 26.213 26.4027 25.8824 26.68L25.2424 25.528C25.6797 25.176 26.2024 24.9093 26.8104 24.728C27.4184 24.536 28.0637 24.44 28.7464 24.44ZM28.3944 31.912C28.981 31.912 29.4877 31.784 29.9144 31.528C30.341 31.2613 30.6504 30.888 30.8424 30.408V29.224H28.4744C27.173 29.224 26.5224 29.6613 26.5224 30.536C26.5224 30.9627 26.6877 31.2987 27.0184 31.544C27.349 31.7893 27.8077 31.912 28.3944 31.912ZM44.9203 24.52V33H43.5283V26.808L40.3603 32.04H39.6883L36.5523 26.792V33H35.1443V24.52H36.7283L40.0563 30.248L43.4803 24.52H44.9203ZM54.6548 24.424C55.5188 24.424 56.2974 24.6107 56.9908 24.984C57.6948 25.3573 58.2441 25.8747 58.6388 26.536C59.0334 27.1973 59.2308 27.9387 59.2308 28.76C59.2308 29.592 59.0334 30.3387 58.6388 31C58.2441 31.6613 57.6948 32.1787 56.9908 32.552C56.2974 32.9253 55.5188 33.112 54.6548 33.112C53.9081 33.112 53.2308 32.9947 52.6228 32.76C52.0254 32.5253 51.5188 32.184 51.1028 31.736L51.9988 30.84C52.6814 31.512 53.5454 31.848 54.5908 31.848C55.4228 31.848 56.1321 31.6133 56.7188 31.144C57.3054 30.664 57.6574 30.04 57.7748 29.272H53.5188V28.136H57.7428C57.6041 27.4 57.2468 26.808 56.6708 26.36C56.0948 25.9013 55.4014 25.672 54.5908 25.672C53.5561 25.672 52.6921 26.0133 51.9988 26.696L51.1028 25.816C51.5188 25.3573 52.0308 25.0107 52.6388 24.776C53.2468 24.5413 53.9188 24.424 54.6548 24.424ZM67.4174 25.864H64.3134V33H62.7774V25.864H59.6734V24.52H67.4174V25.864ZM72.245 33.096C71.4023 33.096 70.645 32.9093 69.973 32.536C69.301 32.1627 68.773 31.6507 68.389 31C68.0157 30.3387 67.829 29.592 67.829 28.76C67.829 27.928 68.0157 27.1867 68.389 26.536C68.773 25.8747 69.301 25.3627 69.973 25C70.645 24.6267 71.4023 24.44 72.245 24.44C73.0877 24.44 73.8397 24.6267 74.501 25C75.173 25.3627 75.6957 25.8747 76.069 26.536C76.453 27.1867 76.645 27.928 76.645 28.76C76.645 29.592 76.453 30.3387 76.069 31C75.6957 31.6507 75.173 32.1627 74.501 32.536C73.8397 32.9093 73.0877 33.096 72.245 33.096ZM72.245 31.752C72.789 31.752 73.2743 31.6293 73.701 31.384C74.1383 31.128 74.4797 30.776 74.725 30.328C74.9703 29.8693 75.093 29.3467 75.093 28.76C75.093 28.1733 74.9703 27.656 74.725 27.208C74.4797 26.7493 74.1383 26.3973 73.701 26.152C73.2743 25.9067 72.789 25.784 72.245 25.784C71.701 25.784 71.2103 25.9067 70.773 26.152C70.3463 26.3973 70.005 26.7493 69.749 27.208C69.5037 27.656 69.381 28.1733 69.381 28.76C69.381 29.3467 69.5037 29.8693 69.749 30.328C70.005 30.776 70.3463 31.128 70.773 31.384C71.2103 31.6293 71.701 31.752 72.245 31.752ZM85.103 25.864H80.399V33H78.863V24.52H85.103V25.864ZM89.9325 33.096C89.0898 33.096 88.3325 32.9093 87.6605 32.536C86.9885 32.1627 86.4605 31.6507 86.0765 31C85.7032 30.3387 85.5165 29.592 85.5165 28.76C85.5165 27.928 85.7032 27.1867 86.0765 26.536C86.4605 25.8747 86.9885 25.3627 87.6605 25C88.3325 24.6267 89.0898 24.44 89.9325 24.44C90.7752 24.44 91.5272 24.6267 92.1885 25C92.8605 25.3627 93.3832 25.8747 93.7565 26.536C94.1405 27.1867 94.3325 27.928 94.3325 28.76C94.3325 29.592 94.1405 30.3387 93.7565 31C93.3832 31.6507 92.8605 32.1627 92.1885 32.536C91.5272 32.9093 90.7752 33.096 89.9325 33.096ZM89.9325 31.752C90.4765 31.752 90.9618 31.6293 91.3885 31.384C91.8258 31.128 92.1672 30.776 92.4125 30.328C92.6578 29.8693 92.7805 29.3467 92.7805 28.76C92.7805 28.1733 92.6578 27.656 92.4125 27.208C92.1672 26.7493 91.8258 26.3973 91.3885 26.152C90.9618 25.9067 90.4765 25.784 89.9325 25.784C89.3885 25.784 88.8978 25.9067 88.4605 26.152C88.0338 26.3973 87.6925 26.7493 87.4365 27.208C87.1912 27.656 87.0685 28.1733 87.0685 28.76C87.0685 29.3467 87.1912 29.8693 87.4365 30.328C87.6925 30.776 88.0338 31.128 88.4605 31.384C88.8978 31.6293 89.3885 31.752 89.9325 31.752ZM105.167 24.808C105.957 24.808 106.661 24.984 107.279 25.336C107.898 25.688 108.378 26.1787 108.719 26.808C109.071 27.4267 109.247 28.136 109.247 28.936C109.247 29.7573 109.061 30.488 108.687 31.128C108.325 31.7573 107.807 32.248 107.135 32.6C106.474 32.952 105.717 33.128 104.863 33.128C103.423 33.128 102.309 32.6373 101.519 31.656C100.741 30.664 100.351 29.272 100.351 27.48C100.351 25.7413 100.709 24.3813 101.423 23.4C102.138 22.408 103.231 21.752 104.703 21.432L108.575 20.568L108.799 21.976L105.231 22.744C104.122 22.9893 103.295 23.4053 102.751 23.992C102.207 24.5787 101.898 25.4213 101.823 26.52C102.186 25.976 102.655 25.5547 103.231 25.256C103.807 24.9573 104.453 24.808 105.167 24.808ZM104.895 31.848C105.439 31.848 105.919 31.7253 106.335 31.48C106.762 31.2347 107.093 30.8987 107.327 30.472C107.562 30.0347 107.679 29.5387 107.679 28.984C107.679 28.1413 107.423 27.464 106.911 26.952C106.399 26.44 105.727 26.184 104.895 26.184C104.063 26.184 103.386 26.44 102.863 26.952C102.351 27.464 102.095 28.1413 102.095 28.984C102.095 29.5387 102.213 30.0347 102.447 30.472C102.693 30.8987 103.029 31.2347 103.455 31.48C103.882 31.7253 104.362 31.848 104.895 31.848ZM118.775 24.52L114.663 33.848C114.3 34.712 113.873 35.32 113.383 35.672C112.903 36.024 112.321 36.2 111.639 36.2C111.223 36.2 110.817 36.1307 110.423 35.992C110.039 35.864 109.719 35.672 109.463 35.416L110.119 34.264C110.556 34.68 111.063 34.888 111.639 34.888C112.012 34.888 112.321 34.7867 112.567 34.584C112.823 34.392 113.052 34.056 113.255 33.576L113.527 32.984L109.783 24.52H111.383L114.343 31.304L117.271 24.52H118.775ZM128.518 31.656V34.968H127.078V33H119.99V34.968H118.534V31.656H118.982C119.526 31.624 119.9 31.24 120.102 30.504C120.305 29.768 120.444 28.728 120.518 27.384L120.646 24.52H127.222V31.656H128.518ZM121.926 27.496C121.884 28.5627 121.793 29.448 121.654 30.152C121.526 30.8453 121.286 31.3467 120.934 31.656H125.686V25.864H122.006L121.926 27.496ZM138.183 28.808C138.183 28.9253 138.173 29.08 138.151 29.272H131.271C131.367 30.0187 131.693 30.6213 132.247 31.08C132.813 31.528 133.511 31.752 134.343 31.752C135.357 31.752 136.173 31.4107 136.791 30.728L137.639 31.72C137.255 32.168 136.775 32.5093 136.199 32.744C135.634 32.9787 134.999 33.096 134.295 33.096C133.399 33.096 132.605 32.9147 131.911 32.552C131.218 32.1787 130.679 31.6613 130.295 31C129.922 30.3387 129.735 29.592 129.735 28.76C129.735 27.9387 129.917 27.1973 130.279 26.536C130.653 25.8747 131.159 25.3627 131.799 25C132.45 24.6267 133.181 24.44 133.991 24.44C134.802 24.44 135.522 24.6267 136.151 25C136.791 25.3627 137.287 25.8747 137.639 26.536C138.002 27.1973 138.183 27.9547 138.183 28.808ZM133.991 25.736C133.255 25.736 132.637 25.96 132.135 26.408C131.645 26.856 131.357 27.4427 131.271 28.168H136.711C136.626 27.4533 136.333 26.872 135.831 26.424C135.341 25.9653 134.727 25.736 133.991 25.736ZM146.527 25.864H143.423V33H141.887V25.864H138.783V24.52H146.527V25.864ZM152.394 24.52H153.93V28.12H158.762V24.52H160.298V33H158.762V29.448H153.93V33H152.394V24.52ZM170.949 28.808C170.949 28.9253 170.938 29.08 170.917 29.272H164.037C164.133 30.0187 164.458 30.6213 165.013 31.08C165.578 31.528 166.277 31.752 167.109 31.752C168.122 31.752 168.938 31.4107 169.557 30.728L170.405 31.72C170.021 32.168 169.541 32.5093 168.965 32.744C168.4 32.9787 167.765 33.096 167.061 33.096C166.165 33.096 165.37 32.9147 164.677 32.552C163.984 32.1787 163.445 31.6613 163.061 31C162.688 30.3387 162.501 29.592 162.501 28.76C162.501 27.9387 162.682 27.1973 163.045 26.536C163.418 25.8747 163.925 25.3627 164.565 25C165.216 24.6267 165.946 24.44 166.757 24.44C167.568 24.44 168.288 24.6267 168.917 25C169.557 25.3627 170.053 25.8747 170.405 26.536C170.768 27.1973 170.949 27.9547 170.949 28.808ZM166.757 25.736C166.021 25.736 165.402 25.96 164.901 26.408C164.41 26.856 164.122 27.4427 164.037 28.168H169.477C169.392 27.4533 169.098 26.872 168.597 26.424C168.106 25.9653 167.493 25.736 166.757 25.736ZM182.925 33L180.477 29.752L177.997 33H176.285L179.629 28.664L176.445 24.52H178.157L180.493 27.576L182.813 24.52H184.493L181.293 28.664L184.669 33H182.925ZM192.061 28.6C193.16 28.8773 193.709 29.5653 193.709 30.664C193.709 31.4107 193.426 31.9867 192.861 32.392C192.306 32.7973 191.474 33 190.365 33H186.285V24.52H190.221C191.224 24.52 192.008 24.712 192.573 25.096C193.138 25.4693 193.421 26.0027 193.421 26.696C193.421 27.144 193.298 27.5333 193.053 27.864C192.818 28.184 192.488 28.4293 192.061 28.6ZM187.789 28.168H190.093C190.68 28.168 191.122 28.0613 191.421 27.848C191.73 27.6347 191.885 27.3253 191.885 26.92C191.885 26.1093 191.288 25.704 190.093 25.704H187.789V28.168ZM190.253 31.816C190.893 31.816 191.373 31.7147 191.693 31.512C192.013 31.3093 192.173 30.9947 192.173 30.568C192.173 30.1307 192.024 29.8053 191.725 29.592C191.437 29.3787 190.978 29.272 190.349 29.272H187.789V31.816H190.253ZM199.137 24.44C200.31 24.44 201.206 24.728 201.825 25.304C202.454 25.88 202.769 26.7387 202.769 27.88V33H201.313V31.88C201.057 32.2747 200.689 32.5787 200.209 32.792C199.74 32.9947 199.18 33.096 198.529 33.096C197.58 33.096 196.817 32.8667 196.241 32.408C195.676 31.9493 195.393 31.3467 195.393 30.6C195.393 29.8533 195.665 29.256 196.209 28.808C196.753 28.3493 197.617 28.12 198.801 28.12H201.233V27.816C201.233 27.1547 201.041 26.648 200.657 26.296C200.273 25.944 199.708 25.768 198.961 25.768C198.46 25.768 197.969 25.8533 197.489 26.024C197.009 26.184 196.604 26.4027 196.273 26.68L195.633 25.528C196.07 25.176 196.593 24.9093 197.201 24.728C197.809 24.536 198.454 24.44 199.137 24.44ZM198.785 31.912C199.372 31.912 199.878 31.784 200.305 31.528C200.732 31.2613 201.041 30.888 201.233 30.408V29.224H198.865C197.564 29.224 196.913 29.6613 196.913 30.536C196.913 30.9627 197.078 31.2987 197.409 31.544C197.74 31.7893 198.198 31.912 198.785 31.912ZM211.855 25.864H208.751V33H207.215V25.864H204.111V24.52H211.855V25.864ZM216.45 24.44C217.623 24.44 218.519 24.728 219.138 25.304C219.767 25.88 220.082 26.7387 220.082 27.88V33H218.626V31.88C218.37 32.2747 218.002 32.5787 217.522 32.792C217.052 32.9947 216.492 33.096 215.842 33.096C214.892 33.096 214.13 32.8667 213.554 32.408C212.988 31.9493 212.706 31.3467 212.706 30.6C212.706 29.8533 212.978 29.256 213.522 28.808C214.066 28.3493 214.93 28.12 216.114 28.12H218.546V27.816C218.546 27.1547 218.354 26.648 217.97 26.296C217.586 25.944 217.02 25.768 216.274 25.768C215.772 25.768 215.282 25.8533 214.802 26.024C214.322 26.184 213.916 26.4027 213.586 26.68L212.946 25.528C213.383 25.176 213.906 24.9093 214.514 24.728C215.122 24.536 215.767 24.44 216.45 24.44ZM216.098 31.912C216.684 31.912 217.191 31.784 217.618 31.528C218.044 31.2613 218.354 30.888 218.546 30.408V29.224H216.178C214.876 29.224 214.226 29.6613 214.226 30.536C214.226 30.9627 214.391 31.2987 214.722 31.544C215.052 31.7893 215.511 31.912 216.098 31.912ZM229.167 25.864H226.063V33H224.527V25.864H221.423V24.52H229.167V25.864ZM234.658 27.4C235.735 27.4107 236.557 27.656 237.122 28.136C237.687 28.616 237.97 29.2933 237.97 30.168C237.97 31.0853 237.661 31.7947 237.042 32.296C236.434 32.7867 235.559 33.0267 234.418 33.016L230.738 33V24.52H232.274V27.384L234.658 27.4ZM234.29 31.848C234.983 31.8587 235.506 31.72 235.858 31.432C236.221 31.144 236.402 30.7173 236.402 30.152C236.402 29.5973 236.226 29.192 235.874 28.936C235.533 28.68 235.005 28.5467 234.29 28.536L232.274 28.504V31.832L234.29 31.848ZM250.014 28.6C251.113 28.8773 251.662 29.5653 251.662 30.664C251.662 31.4107 251.379 31.9867 250.814 32.392C250.259 32.7973 249.427 33 248.318 33H244.238V24.52H248.174C249.177 24.52 249.961 24.712 250.526 25.096C251.091 25.4693 251.374 26.0027 251.374 26.696C251.374 27.144 251.251 27.5333 251.006 27.864C250.771 28.184 250.441 28.4293 250.014 28.6ZM245.742 28.168H248.046C248.633 28.168 249.075 28.0613 249.374 27.848C249.683 27.6347 249.838 27.3253 249.838 26.92C249.838 26.1093 249.241 25.704 248.046 25.704H245.742V28.168ZM248.206 31.816C248.846 31.816 249.326 31.7147 249.646 31.512C249.966 31.3093 250.126 30.9947 250.126 30.568C250.126 30.1307 249.977 29.8053 249.678 29.592C249.39 29.3787 248.931 29.272 248.302 29.272H245.742V31.816H248.206ZM257.762 33.096C256.898 33.096 256.125 32.9093 255.442 32.536C254.77 32.1627 254.242 31.6507 253.858 31C253.474 30.3387 253.282 29.592 253.282 28.76C253.282 27.928 253.474 27.1867 253.858 26.536C254.242 25.8747 254.77 25.3627 255.442 25C256.125 24.6267 256.898 24.44 257.762 24.44C258.53 24.44 259.213 24.5947 259.81 24.904C260.418 25.2133 260.887 25.6613 261.218 26.248L260.05 27C259.783 26.5947 259.453 26.2907 259.058 26.088C258.663 25.8853 258.226 25.784 257.746 25.784C257.191 25.784 256.69 25.9067 256.242 26.152C255.805 26.3973 255.458 26.7493 255.202 27.208C254.957 27.656 254.834 28.1733 254.834 28.76C254.834 29.3573 254.957 29.8853 255.202 30.344C255.458 30.792 255.805 31.1387 256.242 31.384C256.69 31.6293 257.191 31.752 257.746 31.752C258.226 31.752 258.663 31.6507 259.058 31.448C259.453 31.2453 259.783 30.9413 260.05 30.536L261.218 31.272C260.887 31.8587 260.418 32.312 259.81 32.632C259.213 32.9413 258.53 33.096 257.762 33.096ZM270.746 28.808C270.746 28.9253 270.735 29.08 270.714 29.272H263.834C263.93 30.0187 264.255 30.6213 264.81 31.08C265.375 31.528 266.074 31.752 266.906 31.752C267.919 31.752 268.735 31.4107 269.354 30.728L270.202 31.72C269.818 32.168 269.338 32.5093 268.762 32.744C268.196 32.9787 267.562 33.096 266.858 33.096C265.962 33.096 265.167 32.9147 264.474 32.552C263.78 32.1787 263.242 31.6613 262.858 31C262.484 30.3387 262.298 29.592 262.298 28.76C262.298 27.9387 262.479 27.1973 262.842 26.536C263.215 25.8747 263.722 25.3627 264.362 25C265.012 24.6267 265.743 24.44 266.554 24.44C267.364 24.44 268.084 24.6267 268.714 25C269.354 25.3627 269.85 25.8747 270.202 26.536C270.564 27.1973 270.746 27.9547 270.746 28.808ZM266.554 25.736C265.818 25.736 265.199 25.96 264.698 26.408C264.207 26.856 263.919 27.4427 263.834 28.168H269.274C269.188 27.4533 268.895 26.872 268.394 26.424C267.903 25.9653 267.29 25.736 266.554 25.736ZM279.369 25.864H274.665V33H273.129V24.52H279.369V25.864ZM289.018 31.656V34.968H287.578V33H280.49V34.968H279.034V31.656H279.482C280.026 31.624 280.4 31.24 280.602 30.504C280.805 29.768 280.944 28.728 281.018 27.384L281.146 24.52H287.722V31.656H289.018ZM282.426 27.496C282.384 28.5627 282.293 29.448 282.154 30.152C282.026 30.8453 281.786 31.3467 281.434 31.656H286.186V25.864H282.506L282.426 27.496ZM294.043 24.44C295.217 24.44 296.113 24.728 296.731 25.304C297.361 25.88 297.675 26.7387 297.675 27.88V33H296.219V31.88C295.963 32.2747 295.595 32.5787 295.115 32.792C294.646 32.9947 294.086 33.096 293.435 33.096C292.486 33.096 291.723 32.8667 291.147 32.408C290.582 31.9493 290.299 31.3467 290.299 30.6C290.299 29.8533 290.571 29.256 291.115 28.808C291.659 28.3493 292.523 28.12 293.707 28.12H296.139V27.816C296.139 27.1547 295.947 26.648 295.563 26.296C295.179 25.944 294.614 25.768 293.867 25.768C293.366 25.768 292.875 25.8533 292.395 26.024C291.915 26.184 291.51 26.4027 291.179 26.68L290.539 25.528C290.977 25.176 291.499 24.9093 292.107 24.728C292.715 24.536 293.361 24.44 294.043 24.44ZM293.691 31.912C294.278 31.912 294.785 31.784 295.211 31.528C295.638 31.2613 295.947 30.888 296.139 30.408V29.224H293.771C292.47 29.224 291.819 29.6613 291.819 30.536C291.819 30.9627 291.985 31.2987 292.315 31.544C292.646 31.7893 293.105 31.912 293.691 31.912ZM300.201 21.8H302.009L301.705 29.464H300.489L300.201 21.8ZM301.113 33.096C300.814 33.096 300.564 33 300.361 32.808C300.158 32.6053 300.057 32.36 300.057 32.072C300.057 31.784 300.158 31.544 300.361 31.352C300.564 31.1493 300.814 31.048 301.113 31.048C301.412 31.048 301.657 31.1493 301.849 31.352C302.041 31.544 302.137 31.784 302.137 32.072C302.137 32.36 302.036 32.6053 301.833 32.808C301.641 33 301.401 33.096 301.113 33.096Z" fill="black"/>
</svg>
