<svg width="316" height="64" viewBox="0 0 316 64" fill="none" xmlns="http://www.w3.org/2000/svg">
<path d="M26.574 1.96052H28.574V-0.0394821H26.574V1.96052ZM26.574 62.1605V64.1605H28.574V62.1605H26.574ZM12.642 62.1605H10.642V64.1605H12.642V62.1605ZM12.642 13.1405H14.642V11.1405H12.642V13.1405ZM0.602 13.1405H-1.398V15.1405H0.602V13.1405ZM0.602 1.96052V-0.0394821H-1.398V1.96052H0.602ZM24.574 1.96052V62.1605H28.574V1.96052H24.574ZM26.574 60.1605H12.642V64.1605H26.574V60.1605ZM14.642 62.1605V13.1405H10.642V62.1605H14.642ZM12.642 11.1405H0.602V15.1405H12.642V11.1405ZM2.602 13.1405V1.96052H-1.398V13.1405H2.602ZM0.602 3.96052H26.574V-0.0394821H0.602V3.96052ZM100.328 49.5185V51.5185H102.328V49.5185H100.328ZM90.5237 49.5185V47.5185H88.5237V49.5185H90.5237ZM90.5237 62.1605V64.1605H92.5237V62.1605H90.5237ZM76.9357 62.1605H74.9357V64.1605H76.9357V62.1605ZM76.9357 49.5185H78.9357V47.5185H76.9357V49.5185ZM44.5137 49.5185H42.5137V51.5185H44.5137V49.5185ZM44.5137 40.1445L42.9085 38.9515L42.5137 39.4827V40.1445H44.5137ZM72.8937 1.96052V-0.0394821H71.8883L71.2885 0.767471L72.8937 1.96052ZM87.5137 1.96052L89.1315 3.1364L91.4399 -0.0394821H87.5137V1.96052ZM61.1977 38.1665L59.5799 36.9906L57.2716 40.1665H61.1977V38.1665ZM77.3657 38.1665V40.1665H79.3657V38.1665H77.3657ZM77.3657 26.9005V24.9005H75.3657V26.9005H77.3657ZM90.5237 26.9005H92.5237V24.9005H90.5237V26.9005ZM90.5237 38.1665H88.5237V40.1665H90.5237V38.1665ZM100.328 38.1665H102.328V36.1665H100.328V38.1665ZM100.328 47.5185H90.5237V51.5185H100.328V47.5185ZM88.5237 49.5185V62.1605H92.5237V49.5185H88.5237ZM90.5237 60.1605H76.9357V64.1605H90.5237V60.1605ZM78.9357 62.1605V49.5185H74.9357V62.1605H78.9357ZM76.9357 47.5185H44.5137V51.5185H76.9357V47.5185ZM46.5137 49.5185V40.1445H42.5137V49.5185H46.5137ZM46.1189 41.3376L74.4989 3.15357L71.2885 0.767471L42.9085 38.9515L46.1189 41.3376ZM72.8937 3.96052H87.5137V-0.0394821H72.8937V3.96052ZM85.8959 0.784632L59.5799 36.9906L62.8155 39.3424L89.1315 3.1364L85.8959 0.784632ZM61.1977 40.1665H77.3657V36.1665H61.1977V40.1665ZM79.3657 38.1665V26.9005H75.3657V38.1665H79.3657ZM77.3657 28.9005H90.5237V24.9005H77.3657V28.9005ZM88.5237 26.9005V38.1665H92.5237V26.9005H88.5237ZM90.5237 40.1665H100.328V36.1665H90.5237V40.1665ZM98.3277 38.1665V49.5185H102.328V38.1665H98.3277ZM192.318 1.96052H194.318V-0.0394821H192.318V1.96052ZM192.318 10.9905L194.151 11.7914L194.318 11.4084V10.9905H192.318ZM169.958 62.1605V64.1605H171.267L171.791 62.9613L169.958 62.1605ZM154.822 62.1605L152.993 61.3521L151.752 64.1605H154.822V62.1605ZM176.408 13.3125L178.238 14.1209L179.479 11.3125H176.408V13.3125ZM156.456 13.3125V11.3125H154.456V13.3125H156.456ZM156.456 23.1165V25.1165H158.456V23.1165H156.456ZM144.072 23.1165H142.072V25.1165H144.072V23.1165ZM144.072 1.96052V-0.0394821H142.072V1.96052H144.072ZM190.318 1.96052V10.9905H194.318V1.96052H190.318ZM190.486 10.1897L168.126 61.3597L171.791 62.9613L194.151 11.7914L190.486 10.1897ZM169.958 60.1605H154.822V64.1605H169.958V60.1605ZM156.652 62.9689L178.238 14.1209L174.579 12.5041L152.993 61.3521L156.652 62.9689ZM176.408 11.3125H156.456V15.3125H176.408V11.3125ZM154.456 13.3125V23.1165H158.456V13.3125H154.456ZM156.456 21.1165H144.072V25.1165H156.456V21.1165ZM146.072 23.1165V1.96052H142.072V23.1165H146.072ZM144.072 3.96052H192.318V-0.0394821H144.072V3.96052ZM247.626 8.66852L246.156 10.0244L246.164 10.0326L247.626 8.66852ZM250.894 48.3145L249.127 47.3787L249.122 47.3869L249.118 47.3951L250.894 48.3145ZM240.144 59.4085L241.099 61.166L240.144 59.4085ZM214.86 62.1605L214.366 64.0985L214.384 64.1031L214.402 64.1074L214.86 62.1605ZM207.378 59.0645L205.592 58.1641L204.779 59.7773L206.301 60.7499L207.378 59.0645ZM212.538 48.8305L213.67 47.1815L211.783 45.8864L210.752 47.9301L212.538 48.8305ZM235.93 47.3685L237.344 48.7827L237.351 48.776L237.358 48.7692L235.93 47.3685ZM240.746 34.2965L242.745 34.3773L242.951 29.2631L239.332 32.8823L240.746 34.2965ZM215.29 37.3925L216.172 35.5972L215.29 37.3925ZM207.808 30.8565L206.124 31.9346L206.129 31.9424L206.134 31.9501L207.808 30.8565ZM208.066 10.3885L206.397 9.28639L208.066 10.3885ZM216.236 3.42252L217.082 5.23489L217.089 5.23186L217.095 5.22879L216.236 3.42252ZM236.274 26.8145L237.594 28.3169L237.597 28.3142L236.274 26.8145ZM236.36 13.8285L235.017 15.3105L235.029 15.3208L235.04 15.3308L236.36 13.8285ZM221.396 13.7425L220.102 12.2175L220.091 12.2273L220.079 12.2374L221.396 13.7425ZM221.396 26.9005L220.053 28.3825L220.077 28.4044L220.102 28.4255L221.396 26.9005ZM227.846 2.92852C235.837 2.92852 241.851 5.35652 246.156 10.0244L249.096 7.31264C243.884 1.66052 236.711 -1.07148 227.846 -1.07148V2.92852ZM246.164 10.0326C250.464 14.6438 252.764 21.4503 252.764 30.7705H256.764C256.764 20.8267 254.306 12.8986 249.089 7.30447L246.164 10.0326ZM252.764 30.7705C252.764 37.3432 251.522 42.8543 249.127 47.3787L252.662 49.2503C255.427 44.0281 256.764 37.8432 256.764 30.7705H252.764ZM249.118 47.3951C246.772 51.9277 243.468 55.3269 239.19 57.6511L241.099 61.166C246.108 58.4448 249.971 54.448 252.67 49.2339L249.118 47.3951ZM239.19 57.6511C234.88 59.9921 229.857 61.1925 224.062 61.1925V65.1925C230.423 65.1925 236.121 63.8703 241.099 61.166L239.19 57.6511ZM224.062 61.1925C220.995 61.1925 218.082 60.864 215.318 60.2137L214.402 64.1074C217.486 64.833 220.708 65.1925 224.062 65.1925V61.1925ZM215.354 60.2225C212.591 59.5181 210.303 58.56 208.455 57.3791L206.301 60.7499C208.581 62.2063 211.282 63.3123 214.366 64.0985L215.354 60.2225ZM209.164 59.965L214.324 49.7309L210.752 47.9301L205.592 58.1641L209.164 59.965ZM211.407 50.4795C214.749 52.7734 218.931 53.8405 223.804 53.8405V49.8405C219.504 49.8405 216.175 48.9009 213.67 47.1815L211.407 50.4795ZM223.804 53.8405C229.318 53.8405 233.912 52.2157 237.344 48.7827L234.516 45.9543C231.986 48.484 228.496 49.8405 223.804 49.8405V53.8405ZM237.358 48.7692C240.789 45.2722 242.502 40.3802 242.745 34.3773L238.748 34.2158C238.532 39.5649 237.034 43.3875 234.503 45.9678L237.358 48.7692ZM239.332 32.8823C236.182 36.0318 231.754 37.7145 225.782 37.7145V41.7145C232.539 41.7145 238.086 39.7852 242.16 35.7107L239.332 32.8823ZM225.782 37.7145C222.217 37.7145 219.026 36.9983 216.172 35.5972L214.409 39.1879C217.861 40.8827 221.664 41.7145 225.782 41.7145V37.7145ZM216.172 35.5972C213.325 34.1998 211.112 32.2569 209.483 29.7629L206.134 31.9501C208.174 35.0748 210.949 37.4892 214.409 39.1879L216.172 35.5972ZM209.493 29.7784C207.884 27.2639 207.056 24.3487 207.056 20.9665H203.056C203.056 25.0376 204.064 28.7158 206.124 31.9346L209.493 29.7784ZM207.056 20.9665C207.056 17.3034 207.966 14.1692 209.735 11.4906L206.397 9.28639C204.153 12.6852 203.056 16.6029 203.056 20.9665H207.056ZM209.735 11.4906C211.529 8.77363 213.962 6.69098 217.082 5.23489L215.39 1.61015C211.631 3.36473 208.616 5.92607 206.397 9.28639L209.735 11.4906ZM217.095 5.22879C220.299 3.70548 223.872 2.92852 227.846 2.92852V-1.07148C223.335 -1.07148 219.168 -0.18577 215.378 1.61625L217.095 5.22879ZM228.878 31.3085C232.298 31.3085 235.266 30.3635 237.594 28.3169L234.954 25.3122C233.499 26.5909 231.536 27.3085 228.878 27.3085V31.3085ZM237.597 28.3142C239.984 26.2083 241.198 23.4802 241.198 20.2785H237.198C237.198 22.3516 236.463 23.9808 234.951 25.3148L237.597 28.3142ZM241.198 20.2785C241.198 17.0968 240.027 14.3884 237.68 12.3262L235.04 15.3308C236.477 16.5939 237.198 18.1856 237.198 20.2785H241.198ZM237.703 12.3465C235.396 10.2556 232.308 9.33452 228.706 9.33452V13.3345C231.64 13.3345 233.655 14.0761 235.017 15.3105L237.703 12.3465ZM228.706 9.33452C225.351 9.33452 222.425 10.2466 220.102 12.2175L222.69 15.2675C224.151 14.0278 226.099 13.3345 228.706 13.3345V9.33452ZM220.079 12.2374C217.752 14.2738 216.644 17.0326 216.644 20.2785H220.644C220.644 18.0204 221.371 16.4219 222.713 15.2477L220.079 12.2374ZM216.644 20.2785C216.644 23.525 217.751 26.2961 220.053 28.3825L222.739 25.4185C221.372 24.1796 220.644 22.536 220.644 20.2785H216.644ZM220.102 28.4255C222.438 30.4077 225.429 31.3085 228.878 31.3085V27.3085C226.135 27.3085 224.138 26.604 222.69 25.3755L220.102 28.4255ZM309.006 29.6525L307.717 31.1818L307.728 31.1907L309.006 29.6525ZM312.36 53.3025L314.063 54.3507L314.068 54.3435L314.072 54.3363L312.36 53.3025ZM303.932 60.5265L304.793 62.3318L304.805 62.3261L303.932 60.5265ZM277.53 61.5585L276.988 63.4836L277.004 63.4881L277.02 63.4923L277.53 61.5585ZM267.124 56.7425L265.347 55.8252L264.556 57.3578L265.955 58.3656L267.124 56.7425ZM272.628 46.0785L273.828 44.4785L271.936 43.0593L270.851 45.1612L272.628 46.0785ZM280.54 50.1205L279.919 52.0215L279.935 52.0269L279.952 52.0321L280.54 50.1205ZM297.998 49.4325L299.129 51.082L297.998 49.4325ZM297.826 37.8225L296.749 39.5079L296.76 39.5146L296.77 39.5211L297.826 37.8225ZM271.596 35.8445L269.604 35.6625L269.405 37.8445H271.596V35.8445ZM274.692 1.96052V-0.0394821H272.866L272.7 1.77854L274.692 1.96052ZM311.414 1.96052H313.414V-0.0394821H311.414V1.96052ZM311.414 13.1405V15.1405H313.414V13.1405H311.414ZM286.302 13.1405V11.1405H284.461L284.309 12.9757L286.302 13.1405ZM285.356 24.5785L283.363 24.4137L283.184 26.5785H285.356V24.5785ZM290.258 26.5785C298.544 26.5785 304.229 28.2416 307.717 31.1818L310.295 28.1233C305.757 24.2982 298.943 22.5785 290.258 22.5785V26.5785ZM307.728 31.1907C311.305 34.1631 313.112 38.1099 313.112 43.2405H317.112C317.112 37.0191 314.849 31.9073 310.284 28.1143L307.728 31.1907ZM313.112 43.2405C313.112 46.5584 312.288 49.5529 310.648 52.2688L314.072 54.3363C316.102 50.9748 317.112 47.2613 317.112 43.2405H313.112ZM310.657 52.2543C309.059 54.851 306.57 57.0247 303.06 58.7269L304.805 62.3261C308.862 60.359 311.992 57.7168 314.063 54.3507L310.657 52.2543ZM303.071 58.7213C299.687 60.3351 295.387 61.1925 290.086 61.1925V65.1925C295.793 65.1925 300.723 64.2726 304.793 62.3317L303.071 58.7213ZM290.086 61.1925C286.017 61.1925 282.003 60.6704 278.04 59.6247L277.02 63.4923C281.313 64.6253 285.67 65.1925 290.086 65.1925V61.1925ZM278.072 59.6334C274.183 58.5379 270.937 57.023 268.293 55.1195L265.955 58.3656C269.045 60.59 272.735 62.2858 276.988 63.4836L278.072 59.6334ZM268.901 57.6598L274.405 46.9958L270.851 45.1612L265.347 55.8252L268.901 57.6598ZM271.428 47.6785C273.912 49.5416 276.749 50.9852 279.919 52.0215L281.162 48.2195C278.369 47.3065 275.931 46.0554 273.828 44.4785L271.428 47.6785ZM279.952 52.0321C283.126 53.0087 286.392 53.4965 289.742 53.4965V49.4965C286.786 49.4965 283.917 49.067 281.128 48.209L279.952 52.0321ZM289.742 53.4965C293.474 53.4965 296.673 52.7661 299.129 51.082L296.867 47.7831C295.31 48.8509 293.005 49.4965 289.742 49.4965V53.4965ZM299.129 51.082C301.688 49.3272 303.008 46.7848 303.008 43.6705H299.008C299.008 45.4869 298.321 46.7859 296.867 47.7831L299.129 51.082ZM303.008 43.6705C303.008 40.4269 301.614 37.822 298.882 36.124L296.77 39.5211C298.281 40.4604 299.008 41.7542 299.008 43.6705H303.008ZM298.903 36.1371C296.318 34.4857 292.193 33.8445 286.99 33.8445V37.8445C292.107 37.8445 295.206 38.522 296.749 39.5079L298.903 36.1371ZM286.99 33.8445H271.596V37.8445H286.99V33.8445ZM273.588 36.0265L276.684 2.1425L272.7 1.77854L269.604 35.6625L273.588 36.0265ZM274.692 3.96052H311.414V-0.0394821H274.692V3.96052ZM309.414 1.96052V13.1405H313.414V1.96052H309.414ZM311.414 11.1405H286.302V15.1405H311.414V11.1405ZM284.309 12.9757L283.363 24.4137L287.349 24.7434L288.295 13.3054L284.309 12.9757ZM285.356 26.5785H290.258V22.5785H285.356V26.5785Z" fill="url(#paint0_linear_64_4122)"/>
<defs>
<linearGradient id="paint0_linear_64_4122" x1="0" y1="31.6605" x2="318" y2="31.6605" gradientUnits="userSpaceOnUse">
<stop stop-color="#F7941D"/>
<stop offset="1" stop-color="#27AAE1"/>
</linearGradient>
</defs>
</svg>