<svg width="182" height="64" viewBox="0 0 182 64" fill="none" xmlns="http://www.w3.org/2000/svg">
<path d="M39.828 26.7285L40.7094 24.9332H40.7093L39.828 26.7285ZM47.31 33.3505L45.6255 34.4286L45.6304 34.4364L45.6355 34.4441L47.31 33.3505ZM47.052 53.7325L45.3831 52.6304L47.052 53.7325ZM38.796 60.7845L39.6418 62.5969L39.6483 62.5939L39.6547 62.5908L38.796 60.7845ZM7.492 55.4525L6.02177 56.8084L7.492 55.4525ZM4.224 15.8065L2.45642 14.8707L4.224 15.8065ZM14.974 4.71252L14.0193 2.95505L14.0102 2.96009L14.974 4.71252ZM40.258 2.04652L39.764 3.98455L39.7861 3.99018L39.8083 3.9953L40.258 2.04652ZM47.826 5.05652L49.6118 5.95694L50.4252 4.34378L48.9028 3.37113L47.826 5.05652ZM42.666 15.2905L41.5492 16.9497L43.4308 18.2161L44.4518 16.1909L42.666 15.2905ZM19.274 16.7525L20.6882 18.1667L19.274 16.7525ZM14.458 29.7385L12.4596 29.6578L12.253 34.772L15.8722 31.1527L14.458 29.7385ZM33.722 50.3785L32.428 48.8535L32.4164 48.8633L32.405 48.8734L33.722 50.3785ZM33.722 37.3065L32.379 38.7885L32.4032 38.8104L32.428 38.8315L33.722 37.3065ZM18.844 37.3925L20.1419 38.9142L20.1547 38.9033L20.1672 38.8922L18.844 37.3925ZM18.758 50.2925L20.0782 48.7902H20.0782L18.758 50.2925ZM29.336 26.4065C32.9008 26.4065 36.0925 27.1227 38.9467 28.5239L40.7093 24.9332C37.2568 23.2383 33.4539 22.4065 29.336 22.4065V26.4065ZM38.9467 28.5239C41.7828 29.9161 43.9945 31.8802 45.6255 34.4286L48.9945 32.2724C46.9562 29.0875 44.1799 26.6369 40.7094 24.9332L38.9467 28.5239ZM45.6355 34.4441C47.2346 36.8928 48.062 39.7717 48.062 43.1545H52.062C52.062 39.084 51.0547 35.4269 48.9845 32.2569L45.6355 34.4441ZM48.062 43.1545C48.062 46.8176 47.1519 49.9518 45.3831 52.6304L48.7209 54.8346C50.9654 51.4359 52.062 47.5181 52.062 43.1545H48.062ZM45.3831 52.6304C43.5901 55.3454 41.1272 57.4618 37.9373 58.9783L39.6547 62.5908C43.4595 60.782 46.5005 58.1969 48.7209 54.8346L45.3831 52.6304ZM37.9502 58.9722C34.8047 60.4401 31.257 61.1925 27.272 61.1925V65.1925C31.7723 65.1925 35.9073 64.3396 39.6418 62.5969L37.9502 58.9722ZM27.272 61.1925C19.281 61.1925 13.2671 58.7645 8.96223 54.0966L6.02177 56.8084C11.2343 62.4605 18.407 65.1925 27.272 65.1925V61.1925ZM8.96223 54.0966C4.65181 49.4227 2.354 42.6079 2.354 33.3505H-1.646C-1.646 43.2425 0.814857 51.1624 6.02177 56.8084L8.96223 54.0966ZM2.354 33.3505C2.354 26.7779 3.59627 21.2668 5.99158 16.7423L2.45642 14.8707C-0.308268 20.0929 -1.646 26.2778 -1.646 33.3505H2.354ZM5.99158 16.7423C8.3993 12.1944 11.7117 8.78932 15.9378 6.46495L14.0102 2.96009C9.06296 5.68105 5.2087 9.672 2.45642 14.8707L5.99158 16.7423ZM15.9287 6.46997C20.2383 4.12893 25.2617 2.92852 31.056 2.92852V-1.07148C24.6956 -1.07148 18.9977 0.250778 14.0193 2.95507L15.9287 6.46997ZM31.056 2.92852C34.1107 2.92852 37.0114 3.28291 39.764 3.98455L40.752 0.108488C37.6566 -0.680538 34.4227 -1.07148 31.056 -1.07148V2.92852ZM39.8083 3.9953C42.6203 4.64422 44.9188 5.5725 46.7492 6.74191L48.9028 3.37113C46.6052 1.9032 43.8584 0.824812 40.7077 0.0977345L39.8083 3.9953ZM46.0402 4.1561L40.8802 14.3901L44.4518 16.1909L49.6118 5.95694L46.0402 4.1561ZM43.7828 13.6313C40.3948 11.351 36.2236 10.2805 31.4 10.2805V14.2805C35.6351 14.2805 38.9746 15.2167 41.5492 16.9497L43.7828 13.6313ZM31.4 10.2805C25.8859 10.2805 21.2927 11.9054 17.8598 15.3383L20.6882 18.1667C23.2179 15.637 26.7087 14.2805 31.4 14.2805V10.2805ZM17.8598 15.3383C14.4149 18.7832 12.7021 23.657 12.4596 29.6578L16.4564 29.8193C16.6726 24.468 18.1704 20.6845 20.6882 18.1667L17.8598 15.3383ZM15.8722 31.1527C18.9585 28.0664 23.3541 26.4065 29.336 26.4065V22.4065C22.5899 22.4065 17.0668 24.3013 13.0438 28.3243L15.8722 31.1527ZM26.498 54.7865C29.8511 54.7865 32.7631 53.8751 35.039 51.8837L32.405 48.8734C31.0116 50.0926 29.1075 50.7865 26.498 50.7865V54.7865ZM35.016 51.9035C37.4081 49.8739 38.56 47.1097 38.56 43.8425H34.56C34.56 46.0793 33.8199 47.6725 32.428 48.8535L35.016 51.9035ZM38.56 43.8425C38.56 40.5753 37.4081 37.8112 35.016 35.7815L32.428 38.8315C33.8199 40.0125 34.56 41.6057 34.56 43.8425H38.56ZM35.065 35.8245C32.7767 33.7508 29.7891 32.8125 26.326 32.8125V36.8125C29.0549 36.8125 30.9979 37.5369 32.379 38.7885L35.065 35.8245ZM26.326 32.8125C22.8872 32.8125 19.8959 33.7971 17.5208 35.8928L20.1672 38.8922C21.6907 37.548 23.6875 36.8125 26.326 36.8125V32.8125ZM17.5461 35.8709C15.1365 37.9261 13.92 40.6394 13.92 43.8425H17.92C17.92 41.771 18.6529 40.1842 20.1419 38.9142L17.5461 35.8709ZM13.92 43.8425C13.92 47.0243 15.0911 49.7326 17.4378 51.7949L20.0782 48.7902C18.6409 47.5271 17.92 45.9354 17.92 43.8425H13.92ZM17.4378 51.7949C19.7924 53.8641 22.892 54.7865 26.498 54.7865V50.7865C23.568 50.7865 21.5076 50.0463 20.0782 48.7902L17.4378 51.7949ZM75.7518 59.4945L76.8207 57.8041L75.7518 59.4945ZM66.5498 48.8305L64.7352 49.6714L64.7414 49.6848L64.7478 49.6982L66.5498 48.8305ZM66.5498 15.3765L64.7437 14.5175L64.7392 14.5271L66.5498 15.3765ZM75.7518 4.62652L76.8207 6.31691V6.31691L75.7518 4.62652ZM102.412 4.62652L101.343 6.31691V6.31691L102.412 4.62652ZM111.528 15.3765L109.713 16.2174L109.719 16.2308L109.726 16.2442L111.528 15.3765ZM111.528 48.8305L109.722 47.9715L109.717 47.9811L111.528 48.8305ZM102.412 59.4945L101.343 57.8041L102.412 59.4945ZM97.6818 46.6805L96.0224 45.5642L96.0153 45.5746L96.0084 45.5852L97.6818 46.6805ZM97.6818 17.4405L96.0084 18.5358L96.0153 18.5464L96.0224 18.5569L97.6818 17.4405ZM80.4818 17.4405L78.8224 16.3242L78.8153 16.3346L78.8084 16.3452L80.4818 17.4405ZM80.4818 46.6805L78.8084 47.7758L78.8153 47.7864L78.8224 47.7969L80.4818 46.6805ZM89.0818 61.1925C84.4402 61.1925 80.3735 60.0508 76.8207 57.8041L74.6829 61.1849C78.9274 63.869 83.7474 65.1925 89.0818 65.1925V61.1925ZM76.8207 57.8041C73.2749 55.5619 70.445 52.3102 68.3518 47.9629L64.7478 49.6982C67.1267 54.6388 70.4314 58.4965 74.6829 61.1849L76.8207 57.8041ZM68.3644 47.9896C66.3345 43.6091 65.2818 38.3194 65.2818 32.0605H61.2818C61.2818 38.759 62.4078 44.6492 64.7352 49.6714L68.3644 47.9896ZM65.2818 32.0605C65.2818 25.8006 66.3348 20.5438 68.3605 16.226L64.7392 14.5271C62.4075 19.4972 61.2818 25.3631 61.2818 32.0605H65.2818ZM68.3559 16.2355C70.4511 11.8303 73.2811 8.55518 76.8207 6.31691L74.6829 2.93613C70.4251 5.62853 67.1205 9.52009 64.7437 14.5175L68.3559 16.2355ZM76.8207 6.31691C80.3735 4.0703 84.4402 2.92852 89.0818 2.92852V-1.07148C83.7474 -1.07148 78.9274 0.252079 74.6829 2.93613L76.8207 6.31691ZM89.0818 2.92852C93.7234 2.92852 97.7901 4.0703 101.343 6.31691L103.481 2.93613C99.2362 0.252079 94.4162 -1.07148 89.0818 -1.07148V2.92852ZM101.343 6.31691C104.877 8.552 107.676 11.8207 109.713 16.2174L113.342 14.5356C111.023 9.5297 107.744 5.63171 103.481 2.93613L101.343 6.31691ZM109.726 16.2442C111.802 20.5571 112.882 25.8072 112.882 32.0605H116.882C116.882 25.3565 115.725 19.4839 113.33 14.5089L109.726 16.2442ZM112.882 32.0605C112.882 38.3128 111.803 43.5959 109.722 47.9715L113.334 49.6895C115.725 44.6625 116.882 38.7655 116.882 32.0605H112.882ZM109.717 47.9811C107.682 52.3198 104.884 55.565 101.343 57.8041L103.481 61.1849C107.737 58.4933 111.017 54.6293 113.338 49.68L109.717 47.9811ZM101.343 57.8041C97.7901 60.0508 93.7234 61.1925 89.0818 61.1925V65.1925C94.4162 65.1925 99.2362 63.869 103.481 61.1849L101.343 57.8041ZM89.0818 53.4105C93.4476 53.4105 96.9338 51.4752 99.3552 47.7758L96.0084 45.5852C94.3018 48.1925 92.0547 49.4105 89.0818 49.4105V53.4105ZM99.3413 47.7969C101.795 44.1499 102.864 38.7932 102.864 32.0605H98.8638C98.8638 38.5145 97.8116 42.9045 96.0224 45.5642L99.3413 47.7969ZM102.864 32.0605C102.864 25.3278 101.795 19.9711 99.3413 16.3242L96.0224 18.5569C97.8116 21.2166 98.8638 25.6066 98.8638 32.0605H102.864ZM99.3552 16.3452C96.9338 12.6458 93.4476 10.7105 89.0818 10.7105V14.7105C92.0547 14.7105 94.3018 15.9286 96.0084 18.5358L99.3552 16.3452ZM89.0818 10.7105C84.7637 10.7105 81.2922 12.6528 78.8224 16.3242L82.1413 18.5569C83.9141 15.9216 86.1759 14.7105 89.0818 14.7105V10.7105ZM78.8084 16.3452C76.4247 19.987 75.3858 25.3342 75.3858 32.0605H79.3858C79.3858 25.6002 80.411 21.2007 82.1552 18.5358L78.8084 16.3452ZM75.3858 32.0605C75.3858 38.7869 76.4247 44.134 78.8084 47.7758L82.1552 45.5852C80.411 42.9204 79.3858 38.5209 79.3858 32.0605H75.3858ZM78.8224 47.7969C81.2922 51.4682 84.7637 53.4105 89.0818 53.4105V49.4105C86.1759 49.4105 83.9141 48.1995 82.1413 45.5642L78.8224 47.7969ZM142.291 59.4945L143.36 57.8041L142.291 59.4945ZM133.089 48.8305L131.274 49.6714L131.281 49.6848L131.287 49.6982L133.089 48.8305ZM133.089 15.3765L131.283 14.5175L131.278 14.5271L133.089 15.3765ZM142.291 4.62652L143.36 6.31691V6.31691L142.291 4.62652ZM168.951 4.62652L167.882 6.31691V6.31691L168.951 4.62652ZM178.067 15.3765L176.252 16.2174L176.259 16.2308L176.265 16.2442L178.067 15.3765ZM178.067 48.8305L176.261 47.9715L176.256 47.9811L178.067 48.8305ZM168.951 59.4945L167.882 57.8041L168.951 59.4945ZM164.221 46.6805L162.562 45.5642L162.554 45.5746L162.548 45.5852L164.221 46.6805ZM164.221 17.4405L162.548 18.5358L162.554 18.5464L162.562 18.5569L164.221 17.4405ZM147.021 17.4405L145.362 16.3242L145.354 16.3346L145.348 16.3452L147.021 17.4405ZM147.021 46.6805L145.348 47.7758L145.354 47.7864L145.362 47.7969L147.021 46.6805ZM155.621 61.1925C150.979 61.1925 146.913 60.0508 143.36 57.8041L141.222 61.1849C145.467 63.869 150.287 65.1925 155.621 65.1925V61.1925ZM143.36 57.8041C139.814 55.5619 136.984 52.3102 134.891 47.9629L131.287 49.6982C133.666 54.6388 136.971 58.4965 141.222 61.1849L143.36 57.8041ZM134.904 47.9896C132.874 43.6091 131.821 38.3194 131.821 32.0605H127.821C127.821 38.759 128.947 44.6492 131.274 49.6714L134.904 47.9896ZM131.821 32.0605C131.821 25.8006 132.874 20.5438 134.9 16.226L131.278 14.5271C128.947 19.4972 127.821 25.3631 127.821 32.0605H131.821ZM134.895 16.2355C136.99 11.8303 139.82 8.55518 143.36 6.31691L141.222 2.93613C136.964 5.62853 133.66 9.52009 131.283 14.5175L134.895 16.2355ZM143.36 6.31691C146.913 4.0703 150.979 2.92852 155.621 2.92852V-1.07148C150.287 -1.07148 145.467 0.252079 141.222 2.93613L143.36 6.31691ZM155.621 2.92852C160.263 2.92852 164.329 4.0703 167.882 6.31691L170.02 2.93613C165.775 0.252079 160.955 -1.07148 155.621 -1.07148V2.92852ZM167.882 6.31691C171.417 8.552 174.215 11.8207 176.252 16.2174L179.882 14.5356C177.562 9.5297 174.283 5.63171 170.02 2.93613L167.882 6.31691ZM176.265 16.2442C178.342 20.5571 179.421 25.8072 179.421 32.0605H183.421C183.421 25.3565 182.264 19.4839 179.869 14.5089L176.265 16.2442ZM179.421 32.0605C179.421 38.3128 178.342 43.5959 176.261 47.9715L179.873 49.6895C182.264 44.6625 183.421 38.7655 183.421 32.0605H179.421ZM176.256 47.9811C174.221 52.3198 171.423 55.565 167.882 57.8041L170.02 61.1849C174.276 58.4933 177.556 54.6293 179.878 49.68L176.256 47.9811ZM167.882 57.8041C164.329 60.0508 160.263 61.1925 155.621 61.1925V65.1925C160.955 65.1925 165.775 63.869 170.02 61.1849L167.882 57.8041ZM155.621 53.4105C159.987 53.4105 163.473 51.4752 165.894 47.7758L162.548 45.5852C160.841 48.1925 158.594 49.4105 155.621 49.4105V53.4105ZM165.88 47.7969C168.334 44.1499 169.403 38.7932 169.403 32.0605H165.403C165.403 38.5145 164.351 42.9045 162.562 45.5642L165.88 47.7969ZM169.403 32.0605C169.403 25.3278 168.334 19.9711 165.88 16.3242L162.562 18.5569C164.351 21.2166 165.403 25.6066 165.403 32.0605H169.403ZM165.894 16.3452C163.473 12.6458 159.987 10.7105 155.621 10.7105V14.7105C158.594 14.7105 160.841 15.9286 162.548 18.5358L165.894 16.3452ZM155.621 10.7105C151.303 10.7105 147.831 12.6528 145.362 16.3242L148.68 18.5569C150.453 15.9216 152.715 14.7105 155.621 14.7105V10.7105ZM145.348 16.3452C142.964 19.987 141.925 25.3342 141.925 32.0605H145.925C145.925 25.6002 146.95 21.2007 148.694 18.5358L145.348 16.3452ZM141.925 32.0605C141.925 38.7869 142.964 44.134 145.348 47.7758L148.694 45.5852C146.95 42.9204 145.925 38.5209 145.925 32.0605H141.925ZM145.362 47.7969C147.831 51.4682 151.303 53.4105 155.621 53.4105V49.4105C152.715 49.4105 150.453 48.1995 148.68 45.5642L145.362 47.7969Z" fill="url(#paint0_linear_64_4116)"/>
<defs>
<linearGradient id="paint0_linear_64_4116" x1="-3" y1="31.6605" x2="185" y2="31.6605" gradientUnits="userSpaceOnUse">
<stop stop-color="#F7941D"/>
<stop offset="1" stop-color="#27AAE1"/>
</linearGradient>
</defs>
</svg>
