<svg width="111" height="64" viewBox="0 0 111 64" fill="none" xmlns="http://www.w3.org/2000/svg">
<path d="M41.849 30.5125L40.82 28.7975L37.6959 30.672L40.9546 32.3014L41.849 30.5125ZM48.643 36.3605L46.9607 37.442L46.9697 37.4561L46.9789 37.4699L48.643 36.3605ZM47.869 54.5065L49.453 55.7275L49.4591 55.7197L49.4651 55.7117L47.869 54.5065ZM38.925 60.9565L39.6486 62.8211L39.6606 62.8164L39.6726 62.8116L38.925 60.9565ZM12.265 60.9565L11.5078 62.8076L11.5246 62.8145L11.5415 62.8211L12.265 60.9565ZM3.40703 54.5065L1.79526 55.6907L1.80892 55.7093L1.82301 55.7275L3.40703 54.5065ZM2.63303 36.3605L0.968925 35.2511L0.959681 35.265L0.950669 35.279L2.63303 36.3605ZM9.42703 30.5125L10.3354 32.2943L13.5092 30.6763L10.4752 28.8092L9.42703 30.5125ZM4.26703 25.3525L2.52765 26.3397L2.5335 26.35L2.53947 26.3603L4.26703 25.3525ZM13.555 3.07852L14.2873 4.93965L14.3004 4.93448L14.3135 4.92913L13.555 3.07852ZM37.721 3.07852L36.9626 4.92913L36.9807 4.93657L36.999 4.94366L37.721 3.07852ZM45.977 9.01252L47.5728 7.80685L47.5728 7.80685L45.977 9.01252ZM47.095 25.3525L48.8226 26.3603L48.8286 26.35L48.8344 26.3397L47.095 25.3525ZM18.801 13.2265L20.0438 14.7935L20.0504 14.7883L18.801 13.2265ZM18.801 24.1485L17.5582 25.7155H17.5582L18.801 24.1485ZM32.475 13.2265L31.2256 14.7883L31.2418 14.8012L31.2582 14.8137L32.475 13.2265ZM33.851 50.6365L35.0726 52.2201L35.0789 52.2152L33.851 50.6365ZM33.851 37.9945L32.6294 39.5781L32.6402 39.5864L32.651 39.5945L33.851 37.9945ZM17.425 37.9945L16.2034 36.411L17.425 37.9945ZM17.425 50.6365L16.2034 52.2201H16.2034L17.425 50.6365ZM40.9546 32.3014C43.668 33.6581 45.637 35.383 46.9607 37.442L50.3254 35.279C48.5531 32.5221 45.9927 30.3483 42.7435 28.7237L40.9546 32.3014ZM46.9789 37.4699C48.3456 39.5199 49.051 41.9071 49.051 44.7025H53.051C53.051 41.1913 52.1511 38.0171 50.3071 35.2511L46.9789 37.4699ZM49.051 44.7025C49.051 48.0214 48.1162 50.8602 46.2729 53.3013L49.4651 55.7117C51.8645 52.5342 53.051 48.8369 53.051 44.7025H49.051ZM46.285 53.2855C44.4195 55.7057 41.7522 57.6609 38.1775 59.1015L39.6726 62.8116C43.7805 61.1561 47.0759 58.8114 49.453 55.7275L46.285 53.2855ZM38.2015 59.092C34.6362 60.4755 30.4467 61.1925 25.595 61.1925V65.1925C30.834 65.1925 35.5312 64.4189 39.6486 62.8211L38.2015 59.092ZM25.595 61.1925C20.7433 61.1925 16.5538 60.4755 12.9886 59.092L11.5415 62.8211C15.6589 64.4189 20.356 65.1925 25.595 65.1925V61.1925ZM13.0223 59.1054C9.50653 57.6672 6.86183 55.7125 4.99105 53.2855L1.82301 55.7275C4.19489 58.8046 7.45552 61.1499 11.5078 62.8076L13.0223 59.1054ZM5.01879 53.3224C3.22488 50.8807 2.31103 48.0344 2.31103 44.7025H-1.68897C-1.68897 48.824 -0.538827 52.5137 1.79526 55.6907L5.01879 53.3224ZM2.31103 44.7025C2.31103 41.8923 2.99558 39.4951 4.31538 37.442L0.950669 35.279C-0.825525 38.042 -1.68897 41.2061 -1.68897 44.7025H2.31103ZM4.29713 37.4699C5.68802 35.3836 7.67518 33.6505 10.3354 32.2943L8.51865 28.7307C5.33087 30.3559 2.7887 32.5215 0.968925 35.2511L4.29713 37.4699ZM10.4752 28.8092C8.49119 27.5883 7.01685 26.0972 5.99458 24.3448L2.53947 26.3603C3.92521 28.7358 5.89086 30.6848 8.37883 32.2158L10.4752 28.8092ZM6.0064 24.3653C4.99066 22.5757 4.46103 20.5142 4.46103 18.1285H0.461026C0.461026 21.1321 1.13539 23.8867 2.52765 26.3397L6.0064 24.3653ZM4.46103 18.1285C4.46103 15.0287 5.3156 12.4221 6.98076 10.2182L3.78929 7.80685C1.55579 10.763 0.461026 14.2337 0.461026 18.1285H4.46103ZM6.98076 10.2182C8.67414 7.97694 11.0761 6.20305 14.2873 4.93965L12.8228 1.21739C9.03926 2.70598 5.99457 4.8881 3.78929 7.80685L6.98076 10.2182ZM14.3135 4.92913C17.5274 3.61193 21.2753 2.92852 25.595 2.92852V-1.07148C20.856 -1.07148 16.5773 -0.321556 12.7966 1.22791L14.3135 4.92913ZM25.595 2.92852C29.9757 2.92852 33.7514 3.61308 36.9626 4.92913L38.4795 1.22791C34.696 -0.322702 30.3877 -1.07148 25.595 -1.07148V2.92852ZM36.999 4.94366C40.2696 6.20968 42.6936 7.9845 44.3813 10.2182L47.5728 7.80685C45.3618 4.88054 42.2818 2.69935 38.443 1.21338L36.999 4.94366ZM44.3813 10.2182C46.0465 12.4221 46.901 15.0287 46.901 18.1285H50.901C50.901 14.2337 49.8063 10.763 47.5728 7.80685L44.3813 10.2182ZM46.901 18.1285C46.901 20.5142 46.3714 22.5757 45.3557 24.3653L48.8344 26.3397C50.2267 23.8867 50.901 21.1321 50.901 18.1285H46.901ZM45.3675 24.3448C44.3526 26.0846 42.8597 27.5737 40.82 28.7975L42.878 32.2275C45.425 30.6993 47.4295 28.7484 48.8226 26.3603L45.3675 24.3448ZM25.595 9.16252C22.4587 9.16252 19.7142 9.93472 17.5516 11.6648L20.0504 14.7883C21.3278 13.7663 23.1127 13.1625 25.595 13.1625V9.16252ZM17.5582 11.6595C15.3614 13.4018 14.307 15.8443 14.307 18.7305H18.307C18.307 16.9154 18.9153 15.6885 20.0438 14.7935L17.5582 11.6595ZM14.307 18.7305C14.307 21.5778 15.3746 23.9837 17.5582 25.7155L20.0438 22.5815C18.9021 21.676 18.307 20.4699 18.307 18.7305H14.307ZM17.5582 25.7155C19.6808 27.3989 22.4347 28.1265 25.595 28.1265V24.1265C23.022 24.1265 21.2466 23.5355 20.0438 22.5815L17.5582 25.7155ZM25.595 28.1265C28.7599 28.1265 31.5248 27.3972 33.6919 25.7357L31.2582 22.5613C29.9852 23.5372 28.1635 24.1265 25.595 24.1265V28.1265ZM33.6919 25.7357C35.938 24.0137 37.055 21.6039 37.055 18.7305H33.055C33.055 20.4438 32.4521 21.646 31.2582 22.5613L33.6919 25.7357ZM37.055 18.7305C37.055 15.8185 35.9519 13.3719 33.6919 11.6393L31.2582 14.8137C32.4382 15.7184 33.055 16.9412 33.055 18.7305H37.055ZM33.7244 11.6648C31.5551 9.92936 28.7776 9.16252 25.595 9.16252V13.1625C28.1457 13.1625 29.9549 13.7717 31.2256 14.7883L33.7244 11.6648ZM25.595 54.9585C29.3691 54.9585 32.6044 54.1241 35.0726 52.2201L32.6294 49.053C31.0843 50.2449 28.8156 50.9585 25.595 50.9585V54.9585ZM35.0789 52.2152C37.635 50.2272 38.947 47.5208 38.947 44.2725H34.947C34.947 46.2989 34.1951 47.8352 32.6231 49.0578L35.0789 52.2152ZM38.947 44.2725C38.947 41.0221 37.6317 38.33 35.051 36.3945L32.651 39.5945C34.1984 40.755 34.947 42.2482 34.947 44.2725H38.947ZM35.0726 36.411C32.6044 34.5069 29.3691 33.6725 25.595 33.6725V37.6725C28.8156 37.6725 31.0843 38.3861 32.6294 39.5781L35.0726 36.411ZM25.595 33.6725C21.8694 33.6725 18.6665 34.5109 16.2034 36.411L18.6466 39.5781C20.1969 38.3822 22.4407 37.6725 25.595 37.6725V33.6725ZM16.2034 36.411C13.6831 38.3552 12.415 41.0446 12.415 44.2725H16.415C16.415 42.2258 17.1536 40.7298 18.6466 39.5781L16.2034 36.411ZM12.415 44.2725C12.415 47.5417 13.671 50.2665 16.2034 52.2201L18.6466 49.053C17.1658 47.9106 16.415 46.3927 16.415 44.2725H12.415ZM16.2034 52.2201C18.6665 54.1202 21.8694 54.9585 25.595 54.9585V50.9585C22.4407 50.9585 20.1969 50.2489 18.6466 49.053L16.2034 52.2201ZM110.576 50.8085H112.576V48.8085H110.576V50.8085ZM110.576 62.1605V64.1605H112.576V62.1605H110.576ZM65.0825 62.1605H63.0825V64.1605H65.0825V62.1605ZM65.0825 53.1305L63.7092 51.6765L63.0825 52.2684V53.1305H65.0825ZM88.3025 31.2005L89.6757 32.6546L89.6826 32.648L88.3025 31.2005ZM93.2905 25.1805L95.0669 26.0994L95.0732 26.0872L95.0793 26.0749L93.2905 25.1805ZM92.0865 14.6025L90.817 16.148L90.8469 16.1725L90.8777 16.1959L92.0865 14.6025ZM77.8105 14.1725L78.6455 15.9899L78.6655 15.9807L78.6854 15.971L77.8105 14.1725ZM72.4785 18.6445L71.3955 20.326L72.998 21.3581L74.1059 19.807L72.4785 18.6445ZM62.3305 12.1085L60.6706 10.9928L59.5328 12.6856L61.2475 13.79L62.3305 12.1085ZM72.0485 3.93852L72.9025 5.74701L72.9127 5.74219L72.9228 5.73726L72.0485 3.93852ZM97.9345 3.16452L97.1163 4.98954L97.1352 4.99797L97.1542 5.00602L97.9345 3.16452ZM105.76 9.35652L104.107 10.4821L104.121 10.5024L104.135 10.5223L105.76 9.35652ZM106.534 27.9325L108.338 28.798L106.534 27.9325ZM98.5365 37.7365L97.1764 36.2702L97.1699 36.2762L97.1635 36.2822L98.5365 37.7365ZM84.6905 50.8085L83.3175 49.3542L79.6587 52.8085H84.6905V50.8085ZM108.576 50.8085V62.1605H112.576V50.8085H108.576ZM110.576 60.1605H65.0825V64.1605H110.576V60.1605ZM67.0825 62.1605V53.1305H63.0825V62.1605H67.0825ZM66.4557 54.5845L89.6757 32.6545L86.9292 29.7465L63.7092 51.6765L66.4557 54.5845ZM89.6826 32.648C92.1995 30.2482 94.0534 28.0588 95.0669 26.0994L91.514 24.2617C90.8075 25.6276 89.3361 27.4515 86.9223 29.753L89.6826 32.648ZM95.0793 26.0749C96.0564 24.1208 96.5805 22.1249 96.5805 20.1065H92.5805C92.5805 21.4134 92.2445 22.8003 91.5016 24.2861L95.0793 26.0749ZM96.5805 20.1065C96.5805 17.1822 95.5374 14.7101 93.2952 13.0091L90.8777 16.1959C91.9608 17.0176 92.5805 18.2149 92.5805 20.1065H96.5805ZM93.3559 13.0571C91.2486 11.326 88.3354 10.6245 84.9485 10.6245V14.6245C87.8682 14.6245 89.7137 15.2417 90.817 16.148L93.3559 13.0571ZM84.9485 10.6245C82.0441 10.6245 79.3602 11.1945 76.9355 12.3741L78.6854 15.971C80.5034 15.0865 82.5782 14.6245 84.9485 14.6245V10.6245ZM76.9755 12.3552C74.5194 13.4836 72.4751 15.2083 70.851 17.482L74.1059 19.807C75.3485 18.0674 76.8588 16.8108 78.6455 15.9899L76.9755 12.3552ZM73.5614 16.9631L63.4134 10.4271L61.2475 13.79L71.3955 20.326L73.5614 16.9631ZM63.9904 13.2242C66.1231 10.0511 69.0725 7.5556 72.9025 5.74701L71.1945 2.13002C66.7684 4.22011 63.2391 7.17132 60.6706 10.9928L63.9904 13.2242ZM72.9228 5.73726C76.7376 3.88286 81.1605 2.92852 86.2385 2.92852V-1.07148C80.6524 -1.07148 75.6153 -0.0191498 71.1741 2.13978L72.9228 5.73726ZM86.2385 2.92852C90.491 2.92852 94.0998 3.63731 97.1163 4.98954L98.7526 1.3395C95.1184 -0.289604 90.9299 -1.07148 86.2385 -1.07148V2.92852ZM97.1542 5.00602C100.229 6.3091 102.515 8.14409 104.107 10.4821L107.414 8.23094C105.336 5.17962 102.405 2.88661 98.7148 1.32302L97.1542 5.00602ZM104.135 10.5223C105.756 12.7818 106.598 15.4874 106.598 18.7305H110.598C110.598 14.7497 109.549 11.2059 107.386 8.1907L104.135 10.5223ZM106.598 18.7305C106.598 21.7075 105.974 24.4781 104.731 27.0671L108.338 28.798C109.847 25.6536 110.598 22.2895 110.598 18.7305H106.598ZM104.731 27.0671C103.514 29.6029 101.058 32.6694 97.1764 36.2702L99.8966 39.2029C103.926 35.465 106.803 31.9954 108.338 28.798L104.731 27.0671ZM97.1635 36.2822L83.3175 49.3542L86.0634 52.2628L99.9094 39.1908L97.1635 36.2822ZM84.6905 52.8085H110.576V48.8085H84.6905V52.8085Z" fill="url(#paint0_linear_64_4119)"/>
<defs>
<linearGradient id="paint0_linear_64_4119" x1="-2.69897" y1="31.6605" x2="113.301" y2="31.6605" gradientUnits="userSpaceOnUse">
<stop stop-color="#F7941D"/>
<stop offset="1" stop-color="#27AAE1"/>
</linearGradient>
</defs>
</svg>
