<svg width="103" height="26" viewBox="0 0 103 26" fill="none" xmlns="http://www.w3.org/2000/svg">
<path d="M7.08954 12.89C7.70554 13.058 8.1862 13.352 8.53154 13.772C8.87687 14.1827 9.04954 14.6773 9.04954 15.256C9.04954 15.8347 8.86287 16.3433 8.48954 16.782C8.12554 17.2113 7.63554 17.5427 7.01954 17.776C6.41287 18 5.7502 18.112 5.03154 18.112C4.3782 18.112 3.72954 18.014 3.08554 17.818C2.44154 17.622 1.85354 17.328 1.32154 16.936L1.81154 15.9C2.24087 16.236 2.72154 16.488 3.25354 16.656C3.78554 16.824 4.3222 16.908 4.86354 16.908C5.64754 16.908 6.30554 16.7447 6.83754 16.418C7.36954 16.082 7.63554 15.6247 7.63554 15.046C7.63554 14.5513 7.43487 14.1733 7.03354 13.912C6.6322 13.6413 6.06754 13.506 5.33954 13.506H3.15554V12.372H5.24154C5.86687 12.372 6.3522 12.246 6.69754 11.994C7.0522 11.7327 7.22954 11.3733 7.22954 10.916C7.22954 10.4027 7.00087 9.99667 6.54354 9.698C6.0862 9.39933 5.50754 9.25 4.80754 9.25C4.3502 9.25 3.88354 9.31533 3.40754 9.446C2.94087 9.57667 2.49754 9.77267 2.07754 10.034L1.62954 8.886C2.1242 8.606 2.64687 8.396 3.19754 8.256C3.7482 8.116 4.29887 8.046 4.84954 8.046C5.5402 8.046 6.17487 8.15333 6.75354 8.368C7.3322 8.58267 7.78954 8.89533 8.12554 9.306C8.47087 9.71667 8.64354 10.1973 8.64354 10.748C8.64354 11.2427 8.50354 11.6767 8.22354 12.05C7.95287 12.4233 7.57487 12.7033 7.08954 12.89ZM13.804 10.51C14.8306 10.51 15.6146 10.762 16.156 11.266C16.7066 11.77 16.982 12.5213 16.982 13.52V18H15.708V17.02C15.484 17.3653 15.162 17.6313 14.742 17.818C14.3313 17.9953 13.8413 18.084 13.272 18.084C12.4413 18.084 11.774 17.8833 11.27 17.482C10.7753 17.0807 10.528 16.5533 10.528 15.9C10.528 15.2467 10.766 14.724 11.242 14.332C11.718 13.9307 12.474 13.73 13.51 13.73H15.638V13.464C15.638 12.8853 15.47 12.442 15.134 12.134C14.798 11.826 14.3033 11.672 13.65 11.672C13.2113 11.672 12.782 11.7467 12.362 11.896C11.942 12.036 11.5873 12.2273 11.298 12.47L10.738 11.462C11.1206 11.154 11.578 10.9207 12.11 10.762C12.642 10.594 13.2066 10.51 13.804 10.51ZM13.496 17.048C14.0093 17.048 14.4526 16.936 14.826 16.712C15.1993 16.4787 15.47 16.152 15.638 15.732V14.696H13.566C12.4273 14.696 11.858 15.0787 11.858 15.844C11.858 16.2173 12.0026 16.5113 12.292 16.726C12.5813 16.9407 12.9826 17.048 13.496 17.048ZM26.2761 10.58V18H24.9321V11.756H20.7461V18H19.4021V10.58H26.2761ZM28.8767 10.58H30.2207V15.984L34.7707 10.58H35.9887V18H34.6447V12.596L30.1087 18H28.8767V10.58ZM41.8314 18.084C41.0754 18.084 40.3987 17.9207 39.8014 17.594C39.2134 17.2673 38.7514 16.8193 38.4154 16.25C38.0794 15.6713 37.9114 15.018 37.9114 14.29C37.9114 13.562 38.0794 12.9133 38.4154 12.344C38.7514 11.7653 39.2134 11.3173 39.8014 11C40.3987 10.6733 41.0754 10.51 41.8314 10.51C42.5034 10.51 43.1007 10.6453 43.6234 10.916C44.1554 11.1867 44.5661 11.5787 44.8554 12.092L43.8334 12.75C43.6001 12.3953 43.3107 12.1293 42.9654 11.952C42.6201 11.7747 42.2374 11.686 41.8174 11.686C41.3321 11.686 40.8934 11.7933 40.5014 12.008C40.1187 12.2227 39.8154 12.5307 39.5914 12.932C39.3767 13.324 39.2694 13.7767 39.2694 14.29C39.2694 14.8127 39.3767 15.2747 39.5914 15.676C39.8154 16.068 40.1187 16.3713 40.5014 16.586C40.8934 16.8007 41.3321 16.908 41.8174 16.908C42.2374 16.908 42.6201 16.8193 42.9654 16.642C43.3107 16.4647 43.6001 16.1987 43.8334 15.844L44.8554 16.488C44.5661 17.0013 44.1554 17.398 43.6234 17.678C43.1007 17.9487 42.5034 18.084 41.8314 18.084ZM49.2415 10.51C50.2681 10.51 51.0521 10.762 51.5935 11.266C52.1441 11.77 52.4195 12.5213 52.4195 13.52V18H51.1455V17.02C50.9215 17.3653 50.5995 17.6313 50.1795 17.818C49.7688 17.9953 49.2788 18.084 48.7095 18.084C47.8788 18.084 47.2115 17.8833 46.7075 17.482C46.2128 17.0807 45.9655 16.5533 45.9655 15.9C45.9655 15.2467 46.2035 14.724 46.6795 14.332C47.1555 13.9307 47.9115 13.73 48.9475 13.73H51.0755V13.464C51.0755 12.8853 50.9075 12.442 50.5715 12.134C50.2355 11.826 49.7408 11.672 49.0875 11.672C48.6488 11.672 48.2195 11.7467 47.7995 11.896C47.3795 12.036 47.0248 12.2273 46.7355 12.47L46.1755 11.462C46.5581 11.154 47.0155 10.9207 47.5475 10.762C48.0795 10.594 48.6441 10.51 49.2415 10.51ZM48.9335 17.048C49.4468 17.048 49.8901 16.936 50.2635 16.712C50.6368 16.4787 50.9075 16.152 51.0755 15.732V14.696H49.0035C47.8648 14.696 47.2955 15.0787 47.2955 15.844C47.2955 16.2173 47.4401 16.5113 47.7295 16.726C48.0188 16.9407 48.4201 17.048 48.9335 17.048ZM60.3696 11.756H57.6536V18H56.3096V11.756H53.5936V10.58H60.3696V11.756ZM65.1739 13.1C66.1166 13.1093 66.8352 13.324 67.3299 13.744C67.8246 14.164 68.0719 14.7567 68.0719 15.522C68.0719 16.3247 67.8012 16.9453 67.2599 17.384C66.7279 17.8133 65.9626 18.0233 64.9639 18.014L61.7439 18V10.58H63.0879V13.086L65.1739 13.1ZM64.8519 16.992C65.4586 17.0013 65.9159 16.88 66.2239 16.628C66.5412 16.376 66.6999 16.0027 66.6999 15.508C66.6999 15.0227 66.5459 14.668 66.2379 14.444C65.9392 14.22 65.4772 14.1033 64.8519 14.094L63.0879 14.066V16.978L64.8519 16.992ZM73.0306 18.084C72.2746 18.084 71.598 17.9207 71.0006 17.594C70.4126 17.2673 69.9506 16.8193 69.6146 16.25C69.2786 15.6713 69.1106 15.018 69.1106 14.29C69.1106 13.562 69.2786 12.9133 69.6146 12.344C69.9506 11.7653 70.4126 11.3173 71.0006 11C71.598 10.6733 72.2746 10.51 73.0306 10.51C73.7026 10.51 74.3 10.6453 74.8226 10.916C75.3546 11.1867 75.7653 11.5787 76.0546 12.092L75.0326 12.75C74.7993 12.3953 74.51 12.1293 74.1646 11.952C73.8193 11.7747 73.4366 11.686 73.0166 11.686C72.5313 11.686 72.0926 11.7933 71.7006 12.008C71.318 12.2227 71.0146 12.5307 70.7906 12.932C70.576 13.324 70.4686 13.7767 70.4686 14.29C70.4686 14.8127 70.576 15.2747 70.7906 15.676C71.0146 16.068 71.318 16.3713 71.7006 16.586C72.0926 16.8007 72.5313 16.908 73.0166 16.908C73.4366 16.908 73.8193 16.8193 74.1646 16.642C74.51 16.4647 74.7993 16.1987 75.0326 15.844L76.0546 16.488C75.7653 17.0013 75.3546 17.398 74.8226 17.678C74.3 17.9487 73.7026 18.084 73.0306 18.084ZM83.5123 10.58V18H82.3083V15.648H80.1523H79.9983L78.3743 18H76.9323L78.7383 15.466C78.1783 15.298 77.7489 15.0227 77.4503 14.64C77.1516 14.248 77.0023 13.7627 77.0023 13.184C77.0023 12.3347 77.2916 11.6907 77.8703 11.252C78.4489 10.804 79.2469 10.58 80.2643 10.58H83.5123ZM78.3743 13.226C78.3743 13.7207 78.5283 14.0893 78.8363 14.332C79.1536 14.5653 79.6249 14.682 80.2503 14.682H82.3083V11.756H80.3063C79.0183 11.756 78.3743 12.246 78.3743 13.226Z" fill="black"/>
<path d="M94.8735 7.99658L100.681 13.562L94.8735 18.9655" stroke="black" stroke-width="2" stroke-linecap="round"/>
</svg>
