<svg width="1012" height="244" viewBox="0 0 1012 244" fill="none" xmlns="http://www.w3.org/2000/svg">
<circle cx="21" cy="1" r="1" fill="#27AAE1"/>
<circle cx="43" cy="1" r="1" fill="#27AAE1"/>
<circle cx="65" cy="1" r="1" fill="#27AAE1"/>
<circle cx="87" cy="1" r="1" fill="#27AAE1"/>
<circle cx="109" cy="1" r="1" fill="#27AAE1"/>
<circle cx="131" cy="1" r="1" fill="#27AAE1"/>
<circle cx="153" cy="1" r="1" fill="#27AAE1"/>
<circle cx="175" cy="1" r="1" fill="#27AAE1"/>
<circle cx="197" cy="1" r="1" fill="#27AAE1"/>
<circle cx="219" cy="1" r="1" fill="#27AAE1"/>
<circle cx="241" cy="1" r="1" fill="#27AAE1"/>
<circle cx="263" cy="1" r="1" fill="#27AAE1"/>
<circle cx="285" cy="1" r="1" fill="#27AAE1"/>
<circle cx="307" cy="1" r="1" fill="#27AAE1"/>
<circle cx="329" cy="1" r="1" fill="#27AAE1"/>
<circle cx="351" cy="1" r="1" fill="#27AAE1"/>
<circle cx="373" cy="1" r="1" fill="#27AAE1"/>
<circle cx="395" cy="1" r="1" fill="#27AAE1"/>
<circle cx="417" cy="1" r="1" fill="#27AAE1"/>
<circle cx="439" cy="1" r="1" fill="#27AAE1"/>
<circle cx="461" cy="1" r="1" fill="#27AAE1"/>
<circle cx="483" cy="1" r="1" fill="#27AAE1"/>
<circle cx="505" cy="1" r="1" fill="#27AAE1"/>
<circle cx="527" cy="1" r="1" fill="#27AAE1"/>
<circle cx="549" cy="1" r="1" fill="#27AAE1"/>
<circle cx="571" cy="1" r="1" fill="#27AAE1"/>
<circle cx="593" cy="1" r="1" fill="#27AAE1"/>
<circle cx="615" cy="1" r="1" fill="#27AAE1"/>
<circle cx="637" cy="1" r="1" fill="#27AAE1"/>
<circle cx="659" cy="1" r="1" fill="#27AAE1"/>
<circle cx="681" cy="1" r="1" fill="#27AAE1"/>
<circle cx="703" cy="1" r="1" fill="#27AAE1"/>
<circle cx="725" cy="1" r="1" fill="#27AAE1"/>
<circle cx="747" cy="1" r="1" fill="#27AAE1"/>
<circle cx="769" cy="1" r="1" fill="#27AAE1"/>
<circle cx="791" cy="1" r="1" fill="#27AAE1"/>
<circle cx="813" cy="1" r="1" fill="#27AAE1"/>
<circle cx="835" cy="1" r="1" fill="#27AAE1"/>
<circle cx="857" cy="1" r="1" fill="#27AAE1"/>
<circle cx="879" cy="1" r="1" fill="#27AAE1"/>
<circle cx="901" cy="1" r="1" fill="#27AAE1"/>
<circle cx="923" cy="1" r="1" fill="#27AAE1"/>
<circle cx="945" cy="1" r="1" fill="#27AAE1"/>
<circle cx="967" cy="1" r="1" fill="#27AAE1"/>
<circle cx="989" cy="1" r="1" fill="#27AAE1"/>
<circle cx="1011" cy="1" r="1" fill="#27AAE1"/>
<circle cx="21" cy="23" r="1" fill="#27AAE1"/>
<circle cx="43" cy="23" r="1" fill="#27AAE1"/>
<circle cx="65" cy="23" r="1" fill="#27AAE1"/>
<circle cx="87" cy="23" r="1" fill="#27AAE1"/>
<circle cx="109" cy="23" r="1" fill="#27AAE1"/>
<circle cx="131" cy="23" r="1" fill="#27AAE1"/>
<circle cx="153" cy="23" r="1" fill="#27AAE1"/>
<circle cx="175" cy="23" r="1" fill="#27AAE1"/>
<circle cx="197" cy="23" r="1" fill="#27AAE1"/>
<circle cx="219" cy="23" r="1" fill="#27AAE1"/>
<circle cx="241" cy="23" r="1" fill="#27AAE1"/>
<circle cx="263" cy="23" r="1" fill="#27AAE1"/>
<circle cx="285" cy="23" r="1" fill="#27AAE1"/>
<circle cx="307" cy="23" r="1" fill="#27AAE1"/>
<circle cx="329" cy="23" r="1" fill="#27AAE1"/>
<circle cx="351" cy="23" r="1" fill="#27AAE1"/>
<circle cx="373" cy="23" r="1" fill="#27AAE1"/>
<circle cx="395" cy="23" r="1" fill="#27AAE1"/>
<circle cx="417" cy="23" r="1" fill="#27AAE1"/>
<circle cx="439" cy="23" r="1" fill="#27AAE1"/>
<circle cx="461" cy="23" r="1" fill="#27AAE1"/>
<circle cx="483" cy="23" r="1" fill="#27AAE1"/>
<circle cx="505" cy="23" r="1" fill="#27AAE1"/>
<circle cx="527" cy="23" r="1" fill="#27AAE1"/>
<circle cx="549" cy="23" r="1" fill="#27AAE1"/>
<circle cx="571" cy="23" r="1" fill="#27AAE1"/>
<circle cx="593" cy="23" r="1" fill="#27AAE1"/>
<circle cx="615" cy="23" r="1" fill="#27AAE1"/>
<circle cx="637" cy="23" r="1" fill="#27AAE1"/>
<circle cx="659" cy="23" r="1" fill="#27AAE1"/>
<circle cx="681" cy="23" r="1" fill="#27AAE1"/>
<circle cx="703" cy="23" r="1" fill="#27AAE1"/>
<circle cx="725" cy="23" r="1" fill="#27AAE1"/>
<circle cx="747" cy="23" r="1" fill="#27AAE1"/>
<circle cx="769" cy="23" r="1" fill="#27AAE1"/>
<circle cx="791" cy="23" r="1" fill="#27AAE1"/>
<circle cx="813" cy="23" r="1" fill="#27AAE1"/>
<circle cx="835" cy="23" r="1" fill="#27AAE1"/>
<circle cx="857" cy="23" r="1" fill="#27AAE1"/>
<circle cx="879" cy="23" r="1" fill="#27AAE1"/>
<circle cx="901" cy="23" r="1" fill="#27AAE1"/>
<circle cx="923" cy="23" r="1" fill="#27AAE1"/>
<circle cx="945" cy="23" r="1" fill="#27AAE1"/>
<circle cx="967" cy="23" r="1" fill="#27AAE1"/>
<circle cx="989" cy="23" r="1" fill="#27AAE1"/>
<circle cx="1011" cy="23" r="1" fill="#27AAE1"/>
<circle cx="21" cy="45" r="1" fill="#27AAE1"/>
<circle cx="43" cy="45" r="1" fill="#27AAE1"/>
<circle cx="65" cy="45" r="1" fill="#27AAE1"/>
<circle cx="87" cy="45" r="1" fill="#27AAE1"/>
<circle cx="109" cy="45" r="1" fill="#27AAE1"/>
<circle cx="131" cy="45" r="1" fill="#27AAE1"/>
<circle cx="153" cy="45" r="1" fill="#27AAE1"/>
<circle cx="175" cy="45" r="1" fill="#27AAE1"/>
<circle cx="197" cy="45" r="1" fill="#27AAE1"/>
<circle cx="219" cy="45" r="1" fill="#27AAE1"/>
<circle cx="241" cy="45" r="1" fill="#27AAE1"/>
<circle cx="263" cy="45" r="1" fill="#27AAE1"/>
<circle cx="285" cy="45" r="1" fill="#27AAE1"/>
<circle cx="307" cy="45" r="1" fill="#27AAE1"/>
<circle cx="329" cy="45" r="1" fill="#27AAE1"/>
<circle cx="351" cy="45" r="1" fill="#27AAE1"/>
<circle cx="373" cy="45" r="1" fill="#27AAE1"/>
<circle cx="395" cy="45" r="1" fill="#27AAE1"/>
<circle cx="417" cy="45" r="1" fill="#27AAE1"/>
<circle cx="439" cy="45" r="1" fill="#27AAE1"/>
<circle cx="461" cy="45" r="1" fill="#27AAE1"/>
<circle cx="483" cy="45" r="1" fill="#27AAE1"/>
<circle cx="505" cy="45" r="1" fill="#27AAE1"/>
<circle cx="527" cy="45" r="1" fill="#27AAE1"/>
<circle cx="549" cy="45" r="1" fill="#27AAE1"/>
<circle cx="571" cy="45" r="1" fill="#27AAE1"/>
<circle cx="593" cy="45" r="1" fill="#27AAE1"/>
<circle cx="615" cy="45" r="1" fill="#27AAE1"/>
<circle cx="637" cy="45" r="1" fill="#27AAE1"/>
<circle cx="659" cy="45" r="1" fill="#27AAE1"/>
<circle cx="681" cy="45" r="1" fill="#27AAE1"/>
<circle cx="703" cy="45" r="1" fill="#27AAE1"/>
<circle cx="725" cy="45" r="1" fill="#27AAE1"/>
<circle cx="747" cy="45" r="1" fill="#27AAE1"/>
<circle cx="769" cy="45" r="1" fill="#27AAE1"/>
<circle cx="791" cy="45" r="1" fill="#27AAE1"/>
<circle cx="813" cy="45" r="1" fill="#27AAE1"/>
<circle cx="835" cy="45" r="1" fill="#27AAE1"/>
<circle cx="857" cy="45" r="1" fill="#27AAE1"/>
<circle cx="879" cy="45" r="1" fill="#27AAE1"/>
<circle cx="901" cy="45" r="1" fill="#27AAE1"/>
<circle cx="923" cy="45" r="1" fill="#27AAE1"/>
<circle cx="945" cy="45" r="1" fill="#27AAE1"/>
<circle cx="967" cy="45" r="1" fill="#27AAE1"/>
<circle cx="989" cy="45" r="1" fill="#27AAE1"/>
<circle cx="1011" cy="45" r="1" fill="#27AAE1"/>
<circle cx="21" cy="67" r="1" fill="#27AAE1"/>
<circle cx="43" cy="67" r="1" fill="#27AAE1"/>
<circle cx="65" cy="67" r="1" fill="#27AAE1"/>
<circle cx="87" cy="67" r="1" fill="#27AAE1"/>
<circle cx="109" cy="67" r="1" fill="#27AAE1"/>
<circle cx="131" cy="67" r="1" fill="#27AAE1"/>
<circle cx="153" cy="67" r="1" fill="#27AAE1"/>
<circle cx="175" cy="67" r="1" fill="#27AAE1"/>
<circle cx="197" cy="67" r="1" fill="#27AAE1"/>
<circle cx="219" cy="67" r="1" fill="#27AAE1"/>
<circle cx="241" cy="67" r="1" fill="#27AAE1"/>
<circle cx="263" cy="67" r="1" fill="#27AAE1"/>
<circle cx="285" cy="67" r="1" fill="#27AAE1"/>
<circle cx="307" cy="67" r="1" fill="#27AAE1"/>
<circle cx="329" cy="67" r="1" fill="#27AAE1"/>
<circle cx="351" cy="67" r="1" fill="#27AAE1"/>
<circle cx="373" cy="67" r="1" fill="#27AAE1"/>
<circle cx="395" cy="67" r="1" fill="#27AAE1"/>
<circle cx="417" cy="67" r="1" fill="#27AAE1"/>
<circle cx="439" cy="67" r="1" fill="#27AAE1"/>
<circle cx="461" cy="67" r="1" fill="#27AAE1"/>
<circle cx="483" cy="67" r="1" fill="#27AAE1"/>
<circle cx="505" cy="67" r="1" fill="#27AAE1"/>
<circle cx="527" cy="67" r="1" fill="#27AAE1"/>
<circle cx="549" cy="67" r="1" fill="#27AAE1"/>
<circle cx="571" cy="67" r="1" fill="#27AAE1"/>
<circle cx="593" cy="67" r="1" fill="#27AAE1"/>
<circle cx="615" cy="67" r="1" fill="#27AAE1"/>
<circle cx="637" cy="67" r="1" fill="#27AAE1"/>
<circle cx="659" cy="67" r="1" fill="#27AAE1"/>
<circle cx="681" cy="67" r="1" fill="#27AAE1"/>
<circle cx="703" cy="67" r="1" fill="#27AAE1"/>
<circle cx="725" cy="67" r="1" fill="#27AAE1"/>
<circle cx="747" cy="67" r="1" fill="#27AAE1"/>
<circle cx="769" cy="67" r="1" fill="#27AAE1"/>
<circle cx="791" cy="67" r="1" fill="#27AAE1"/>
<circle cx="813" cy="67" r="1" fill="#27AAE1"/>
<circle cx="835" cy="67" r="1" fill="#27AAE1"/>
<circle cx="857" cy="67" r="1" fill="#27AAE1"/>
<circle cx="879" cy="67" r="1" fill="#27AAE1"/>
<circle cx="901" cy="67" r="1" fill="#27AAE1"/>
<circle cx="923" cy="67" r="1" fill="#27AAE1"/>
<circle cx="945" cy="67" r="1" fill="#27AAE1"/>
<circle cx="967" cy="67" r="1" fill="#27AAE1"/>
<circle cx="989" cy="67" r="1" fill="#27AAE1"/>
<circle cx="1011" cy="67" r="1" fill="#27AAE1"/>
<circle cx="21" cy="89" r="1" fill="#27AAE1"/>
<circle cx="43" cy="89" r="1" fill="#27AAE1"/>
<circle cx="65" cy="89" r="1" fill="#27AAE1"/>
<circle cx="87" cy="89" r="1" fill="#27AAE1"/>
<circle cx="109" cy="89" r="1" fill="#27AAE1"/>
<circle cx="131" cy="89" r="1" fill="#27AAE1"/>
<circle cx="153" cy="89" r="1" fill="#27AAE1"/>
<circle cx="175" cy="89" r="1" fill="#27AAE1"/>
<circle cx="197" cy="89" r="1" fill="#27AAE1"/>
<circle cx="219" cy="89" r="1" fill="#27AAE1"/>
<circle cx="241" cy="89" r="1" fill="#27AAE1"/>
<circle cx="263" cy="89" r="1" fill="#27AAE1"/>
<circle cx="285" cy="89" r="1" fill="#27AAE1"/>
<circle cx="307" cy="89" r="1" fill="#27AAE1"/>
<circle cx="329" cy="89" r="1" fill="#27AAE1"/>
<circle cx="351" cy="89" r="1" fill="#27AAE1"/>
<circle cx="373" cy="89" r="1" fill="#27AAE1"/>
<circle cx="395" cy="89" r="1" fill="#27AAE1"/>
<circle cx="417" cy="89" r="1" fill="#27AAE1"/>
<circle cx="439" cy="89" r="1" fill="#27AAE1"/>
<circle cx="461" cy="89" r="1" fill="#27AAE1"/>
<circle cx="483" cy="89" r="1" fill="#27AAE1"/>
<circle cx="505" cy="89" r="1" fill="#27AAE1"/>
<circle cx="527" cy="89" r="1" fill="#27AAE1"/>
<circle cx="549" cy="89" r="1" fill="#27AAE1"/>
<circle cx="571" cy="89" r="1" fill="#27AAE1"/>
<circle cx="593" cy="89" r="1" fill="#27AAE1"/>
<circle cx="615" cy="89" r="1" fill="#27AAE1"/>
<circle cx="637" cy="89" r="1" fill="#27AAE1"/>
<circle cx="659" cy="89" r="1" fill="#27AAE1"/>
<circle cx="681" cy="89" r="1" fill="#27AAE1"/>
<circle cx="703" cy="89" r="1" fill="#27AAE1"/>
<circle cx="725" cy="89" r="1" fill="#27AAE1"/>
<circle cx="747" cy="89" r="1" fill="#27AAE1"/>
<circle cx="769" cy="89" r="1" fill="#27AAE1"/>
<circle cx="791" cy="89" r="1" fill="#27AAE1"/>
<circle cx="813" cy="89" r="1" fill="#27AAE1"/>
<circle cx="835" cy="89" r="1" fill="#27AAE1"/>
<circle cx="857" cy="89" r="1" fill="#27AAE1"/>
<circle cx="879" cy="89" r="1" fill="#27AAE1"/>
<circle cx="901" cy="89" r="1" fill="#27AAE1"/>
<circle cx="923" cy="89" r="1" fill="#27AAE1"/>
<circle cx="945" cy="89" r="1" fill="#27AAE1"/>
<circle cx="967" cy="89" r="1" fill="#27AAE1"/>
<circle cx="989" cy="89" r="1" fill="#27AAE1"/>
<circle cx="1011" cy="89" r="1" fill="#27AAE1"/>
<circle cx="21" cy="111" r="1" fill="#27AAE1"/>
<circle cx="43" cy="111" r="1" fill="#27AAE1"/>
<circle cx="65" cy="111" r="1" fill="#27AAE1"/>
<circle cx="87" cy="111" r="1" fill="#27AAE1"/>
<circle cx="109" cy="111" r="1" fill="#27AAE1"/>
<circle cx="131" cy="111" r="1" fill="#27AAE1"/>
<circle cx="153" cy="111" r="1" fill="#27AAE1"/>
<circle cx="175" cy="111" r="1" fill="#27AAE1"/>
<circle cx="197" cy="111" r="1" fill="#27AAE1"/>
<circle cx="219" cy="111" r="1" fill="#27AAE1"/>
<circle cx="241" cy="111" r="1" fill="#27AAE1"/>
<circle cx="263" cy="111" r="1" fill="#27AAE1"/>
<circle cx="285" cy="111" r="1" fill="#27AAE1"/>
<circle cx="307" cy="111" r="1" fill="#27AAE1"/>
<circle cx="329" cy="111" r="1" fill="#27AAE1"/>
<circle cx="945" cy="111" r="1" fill="#27AAE1"/>
<circle cx="967" cy="111" r="1" fill="#27AAE1"/>
<circle cx="989" cy="111" r="1" fill="#27AAE1"/>
<circle cx="1011" cy="111" r="1" fill="#27AAE1"/>
<circle cx="21" cy="133" r="1" fill="#27AAE1"/>
<circle cx="43" cy="133" r="1" fill="#27AAE1"/>
<circle cx="65" cy="133" r="1" fill="#27AAE1"/>
<circle cx="87" cy="133" r="1" fill="#27AAE1"/>
<circle cx="109" cy="133" r="1" fill="#27AAE1"/>
<circle cx="131" cy="133" r="1" fill="#27AAE1"/>
<circle cx="153" cy="133" r="1" fill="#27AAE1"/>
<circle cx="175" cy="133" r="1" fill="#27AAE1"/>
<circle cx="197" cy="133" r="1" fill="#27AAE1"/>
<circle cx="219" cy="133" r="1" fill="#27AAE1"/>
<circle cx="241" cy="133" r="1" fill="#27AAE1"/>
<circle cx="263" cy="133" r="1" fill="#27AAE1"/>
<circle cx="285" cy="133" r="1" fill="#27AAE1"/>
<circle cx="307" cy="133" r="1" fill="#27AAE1"/>
<circle cx="329" cy="133" r="1" fill="#27AAE1"/>
<circle cx="945" cy="133" r="1" fill="#27AAE1"/>
<circle cx="967" cy="133" r="1" fill="#27AAE1"/>
<circle cx="989" cy="133" r="1" fill="#27AAE1"/>
<circle cx="1011" cy="133" r="1" fill="#27AAE1"/>
<circle cx="21" cy="155" r="1" fill="#27AAE1"/>
<circle cx="43" cy="155" r="1" fill="#27AAE1"/>
<circle cx="65" cy="155" r="1" fill="#27AAE1"/>
<circle cx="87" cy="155" r="1" fill="#27AAE1"/>
<circle cx="109" cy="155" r="1" fill="#27AAE1"/>
<circle cx="131" cy="155" r="1" fill="#27AAE1"/>
<circle cx="153" cy="155" r="1" fill="#27AAE1"/>
<circle cx="175" cy="155" r="1" fill="#27AAE1"/>
<circle cx="197" cy="155" r="1" fill="#27AAE1"/>
<circle cx="219" cy="155" r="1" fill="#27AAE1"/>
<circle cx="241" cy="155" r="1" fill="#27AAE1"/>
<circle cx="263" cy="155" r="1" fill="#27AAE1"/>
<circle cx="285" cy="155" r="1" fill="#27AAE1"/>
<circle cx="307" cy="155" r="1" fill="#27AAE1"/>
<circle cx="329" cy="155" r="1" fill="#27AAE1"/>
<circle cx="945" cy="155" r="1" fill="#27AAE1"/>
<circle cx="967" cy="155" r="1" fill="#27AAE1"/>
<circle cx="989" cy="155" r="1" fill="#27AAE1"/>
<circle cx="1011" cy="155" r="1" fill="#27AAE1"/>
<circle cx="21" cy="177" r="1" fill="#27AAE1"/>
<circle cx="43" cy="177" r="1" fill="#27AAE1"/>
<circle cx="65" cy="177" r="1" fill="#27AAE1"/>
<circle cx="87" cy="177" r="1" fill="#27AAE1"/>
<circle cx="109" cy="177" r="1" fill="#27AAE1"/>
<circle cx="131" cy="177" r="1" fill="#27AAE1"/>
<circle cx="153" cy="177" r="1" fill="#27AAE1"/>
<circle cx="175" cy="177" r="1" fill="#27AAE1"/>
<circle cx="197" cy="177" r="1" fill="#27AAE1"/>
<circle cx="219" cy="177" r="1" fill="#27AAE1"/>
<circle cx="241" cy="177" r="1" fill="#27AAE1"/>
<circle cx="263" cy="177" r="1" fill="#27AAE1"/>
<circle cx="285" cy="177" r="1" fill="#27AAE1"/>
<circle cx="307" cy="177" r="1" fill="#27AAE1"/>
<circle cx="329" cy="177" r="1" fill="#27AAE1"/>
<circle cx="791" cy="177" r="1" fill="#27AAE1"/>
<circle cx="813" cy="177" r="1" fill="#27AAE1"/>
<circle cx="835" cy="177" r="1" fill="#27AAE1"/>
<circle cx="857" cy="177" r="1" fill="#27AAE1"/>
<circle cx="879" cy="177" r="1" fill="#27AAE1"/>
<circle cx="901" cy="177" r="1" fill="#27AAE1"/>
<circle cx="923" cy="177" r="1" fill="#27AAE1"/>
<circle cx="945" cy="177" r="1" fill="#27AAE1"/>
<circle cx="967" cy="177" r="1" fill="#27AAE1"/>
<circle cx="989" cy="177" r="1" fill="#27AAE1"/>
<circle cx="1011" cy="177" r="1" fill="#27AAE1"/>
<circle cx="21" cy="199" r="1" fill="#27AAE1"/>
<circle cx="43" cy="199" r="1" fill="#27AAE1"/>
<circle cx="65" cy="199" r="1" fill="#27AAE1"/>
<circle cx="87" cy="199" r="1" fill="#27AAE1"/>
<circle cx="109" cy="199" r="1" fill="#27AAE1"/>
<circle cx="131" cy="199" r="1" fill="#27AAE1"/>
<circle cx="153" cy="199" r="1" fill="#27AAE1"/>
<circle cx="175" cy="199" r="1" fill="#27AAE1"/>
<circle cx="197" cy="199" r="1" fill="#27AAE1"/>
<circle cx="219" cy="199" r="1" fill="#27AAE1"/>
<circle cx="241" cy="199" r="1" fill="#27AAE1"/>
<circle cx="263" cy="199" r="1" fill="#27AAE1"/>
<circle cx="285" cy="199" r="1" fill="#27AAE1"/>
<circle cx="307" cy="199" r="1" fill="#27AAE1"/>
<circle cx="329" cy="199" r="1" fill="#27AAE1"/>
<circle cx="791" cy="199" r="1" fill="#27AAE1"/>
<circle cx="813" cy="199" r="1" fill="#27AAE1"/>
<circle cx="835" cy="199" r="1" fill="#27AAE1"/>
<circle cx="857" cy="199" r="1" fill="#27AAE1"/>
<circle cx="879" cy="199" r="1" fill="#27AAE1"/>
<circle cx="901" cy="199" r="1" fill="#27AAE1"/>
<circle cx="923" cy="199" r="1" fill="#27AAE1"/>
<circle cx="945" cy="199" r="1" fill="#27AAE1"/>
<circle cx="967" cy="199" r="1" fill="#27AAE1"/>
<circle cx="989" cy="199" r="1" fill="#27AAE1"/>
<circle cx="1011" cy="199" r="1" fill="#27AAE1"/>
<circle cx="21" cy="221" r="1" fill="#27AAE1"/>
<circle cx="43" cy="221" r="1" fill="#27AAE1"/>
<circle cx="65" cy="221" r="1" fill="#27AAE1"/>
<circle cx="87" cy="221" r="1" fill="#27AAE1"/>
<circle cx="109" cy="221" r="1" fill="#27AAE1"/>
<circle cx="131" cy="221" r="1" fill="#27AAE1"/>
<circle cx="153" cy="221" r="1" fill="#27AAE1"/>
<circle cx="175" cy="221" r="1" fill="#27AAE1"/>
<circle cx="197" cy="221" r="1" fill="#27AAE1"/>
<circle cx="219" cy="221" r="1" fill="#27AAE1"/>
<circle cx="241" cy="221" r="1" fill="#27AAE1"/>
<circle cx="263" cy="221" r="1" fill="#27AAE1"/>
<circle cx="285" cy="221" r="1" fill="#27AAE1"/>
<circle cx="307" cy="221" r="1" fill="#27AAE1"/>
<circle cx="329" cy="221" r="1" fill="#27AAE1"/>
<circle cx="791" cy="221" r="1" fill="#27AAE1"/>
<circle cx="813" cy="221" r="1" fill="#27AAE1"/>
<circle cx="835" cy="221" r="1" fill="#27AAE1"/>
<circle cx="857" cy="221" r="1" fill="#27AAE1"/>
<circle cx="879" cy="221" r="1" fill="#27AAE1"/>
<circle cx="901" cy="221" r="1" fill="#27AAE1"/>
<circle cx="923" cy="221" r="1" fill="#27AAE1"/>
<circle cx="945" cy="221" r="1" fill="#27AAE1"/>
<circle cx="967" cy="221" r="1" fill="#27AAE1"/>
<circle cx="989" cy="221" r="1" fill="#27AAE1"/>
<circle cx="1011" cy="221" r="1" fill="#27AAE1"/>
<circle cx="21" cy="243" r="1" fill="#27AAE1"/>
<circle cx="43" cy="243" r="1" fill="#27AAE1"/>
<circle cx="65" cy="243" r="1" fill="#27AAE1"/>
<circle cx="87" cy="243" r="1" fill="#27AAE1"/>
<circle cx="109" cy="243" r="1" fill="#27AAE1"/>
<circle cx="131" cy="243" r="1" fill="#27AAE1"/>
<circle cx="153" cy="243" r="1" fill="#27AAE1"/>
<circle cx="175" cy="243" r="1" fill="#27AAE1"/>
<circle cx="197" cy="243" r="1" fill="#27AAE1"/>
<circle cx="219" cy="243" r="1" fill="#27AAE1"/>
<circle cx="241" cy="243" r="1" fill="#27AAE1"/>
<circle cx="263" cy="243" r="1" fill="#27AAE1"/>
<circle cx="285" cy="243" r="1" fill="#27AAE1"/>
<circle cx="307" cy="243" r="1" fill="#27AAE1"/>
<circle cx="329" cy="243" r="1" fill="#27AAE1"/>
<circle cx="351" cy="243" r="1" fill="#27AAE1"/>
<circle cx="373" cy="243" r="1" fill="#27AAE1"/>
<circle cx="395" cy="243" r="1" fill="#27AAE1"/>
<circle cx="417" cy="243" r="1" fill="#27AAE1"/>
<circle cx="439" cy="243" r="1" fill="#27AAE1"/>
<circle cx="461" cy="243" r="1" fill="#27AAE1"/>
<circle cx="483" cy="243" r="1" fill="#27AAE1"/>
<circle cx="505" cy="243" r="1" fill="#27AAE1"/>
<circle cx="527" cy="243" r="1" fill="#27AAE1"/>
<circle cx="549" cy="243" r="1" fill="#27AAE1"/>
<circle cx="571" cy="243" r="1" fill="#27AAE1"/>
<circle cx="593" cy="243" r="1" fill="#27AAE1"/>
<circle cx="615" cy="243" r="1" fill="#27AAE1"/>
<circle cx="637" cy="243" r="1" fill="#27AAE1"/>
<circle cx="659" cy="243" r="1" fill="#27AAE1"/>
<circle cx="681" cy="243" r="1" fill="#27AAE1"/>
<circle cx="703" cy="243" r="1" fill="#27AAE1"/>
<circle cx="725" cy="243" r="1" fill="#27AAE1"/>
<circle cx="747" cy="243" r="1" fill="#27AAE1"/>
<circle cx="769" cy="243" r="1" fill="#27AAE1"/>
<circle cx="791" cy="243" r="1" fill="#27AAE1"/>
<circle cx="813" cy="243" r="1" fill="#27AAE1"/>
<circle cx="835" cy="243" r="1" fill="#27AAE1"/>
<circle cx="857" cy="243" r="1" fill="#27AAE1"/>
<circle cx="879" cy="243" r="1" fill="#27AAE1"/>
<circle cx="901" cy="243" r="1" fill="#27AAE1"/>
<circle cx="923" cy="243" r="1" fill="#27AAE1"/>
<circle cx="945" cy="243" r="1" fill="#27AAE1"/>
<circle cx="967" cy="243" r="1" fill="#27AAE1"/>
<circle cx="989" cy="243" r="1" fill="#27AAE1"/>
<circle cx="1011" cy="243" r="1" fill="#27AAE1"/>
</svg>
