<svg width="102" height="27" viewBox="0 0 102 27" fill="none" xmlns="http://www.w3.org/2000/svg">
<path d="M10.0642 8.21829V18.0183H8.69219V9.43629H3.00819V18.0183H1.62219V8.21829H10.0642ZM16.0742 18.1023C15.3369 18.1023 14.6742 17.939 14.0862 17.6123C13.4982 17.2856 13.0362 16.8376 12.7002 16.2683C12.3736 15.6896 12.2102 15.0363 12.2102 14.3083C12.2102 13.5803 12.3736 12.9316 12.7002 12.3623C13.0362 11.7836 13.4982 11.3356 14.0862 11.0183C14.6742 10.6916 15.3369 10.5283 16.0742 10.5283C16.8116 10.5283 17.4696 10.6916 18.0482 11.0183C18.6362 11.3356 19.0936 11.7836 19.4202 12.3623C19.7562 12.9316 19.9242 13.5803 19.9242 14.3083C19.9242 15.0363 19.7562 15.6896 19.4202 16.2683C19.0936 16.8376 18.6362 17.2856 18.0482 17.6123C17.4696 17.939 16.8116 18.1023 16.0742 18.1023ZM16.0742 16.9263C16.5502 16.9263 16.9749 16.819 17.3482 16.6043C17.7309 16.3803 18.0296 16.0723 18.2442 15.6803C18.4589 15.279 18.5662 14.8216 18.5662 14.3083C18.5662 13.795 18.4589 13.3423 18.2442 12.9503C18.0296 12.549 17.7309 12.241 17.3482 12.0263C16.9749 11.8116 16.5502 11.7043 16.0742 11.7043C15.5982 11.7043 15.1689 11.8116 14.7862 12.0263C14.4129 12.241 14.1142 12.549 13.8902 12.9503C13.6756 13.3423 13.5682 13.795 13.5682 14.3083C13.5682 14.8216 13.6756 15.279 13.8902 15.6803C14.1142 16.0723 14.4129 16.3803 14.7862 16.6043C15.1689 16.819 15.5982 16.9263 16.0742 16.9263ZM29.3563 16.8423V19.7403H28.0963V18.0183H21.8943V19.7403H20.6203V16.8423H21.0123C21.4883 16.8143 21.815 16.4783 21.9923 15.8343C22.1696 15.1903 22.291 14.2803 22.3563 13.1043L22.4683 10.5983H28.2223V16.8423H29.3563ZM23.5883 13.2023C23.551 14.1356 23.4716 14.9103 23.3503 15.5263C23.2383 16.133 23.0283 16.5716 22.7203 16.8423H26.8783V11.7743H23.6583L23.5883 13.2023ZM35.0412 10.5283C35.7598 10.5283 36.4038 10.687 36.9732 11.0043C37.5425 11.3216 37.9858 11.765 38.3032 12.3343C38.6298 12.9036 38.7932 13.5616 38.7932 14.3083C38.7932 15.055 38.6298 15.7176 38.3032 16.2963C37.9858 16.8656 37.5425 17.309 36.9732 17.6263C36.4038 17.9436 35.7598 18.1023 35.0412 18.1023C34.5092 18.1023 34.0192 17.9996 33.5712 17.7943C33.1325 17.589 32.7592 17.2903 32.4512 16.8983V20.7343H31.1072V10.5983H32.3952V11.7743C32.6938 11.3636 33.0718 11.0556 33.5292 10.8503C33.9865 10.6356 34.4905 10.5283 35.0412 10.5283ZM34.9292 16.9263C35.4052 16.9263 35.8298 16.819 36.2032 16.6043C36.5858 16.3803 36.8845 16.0723 37.0992 15.6803C37.3232 15.279 37.4352 14.8216 37.4352 14.3083C37.4352 13.795 37.3232 13.3423 37.0992 12.9503C36.8845 12.549 36.5858 12.241 36.2032 12.0263C35.8298 11.8116 35.4052 11.7043 34.9292 11.7043C34.4625 11.7043 34.0378 11.8163 33.6552 12.0403C33.2818 12.255 32.9832 12.5583 32.7592 12.9503C32.5445 13.3423 32.4372 13.795 32.4372 14.3083C32.4372 14.8216 32.5445 15.279 32.7592 15.6803C32.9738 16.0723 33.2725 16.3803 33.6552 16.6043C34.0378 16.819 34.4625 16.9263 34.9292 16.9263ZM43.9238 18.1023C43.1865 18.1023 42.5238 17.939 41.9358 17.6123C41.3478 17.2856 40.8858 16.8376 40.5498 16.2683C40.2232 15.6896 40.0598 15.0363 40.0598 14.3083C40.0598 13.5803 40.2232 12.9316 40.5498 12.3623C40.8858 11.7836 41.3478 11.3356 41.9358 11.0183C42.5238 10.6916 43.1865 10.5283 43.9238 10.5283C44.6612 10.5283 45.3192 10.6916 45.8978 11.0183C46.4858 11.3356 46.9432 11.7836 47.2698 12.3623C47.6058 12.9316 47.7738 13.5803 47.7738 14.3083C47.7738 15.0363 47.6058 15.6896 47.2698 16.2683C46.9432 16.8376 46.4858 17.2856 45.8978 17.6123C45.3192 17.939 44.6612 18.1023 43.9238 18.1023ZM43.9238 16.9263C44.3998 16.9263 44.8245 16.819 45.1978 16.6043C45.5805 16.3803 45.8792 16.0723 46.0938 15.6803C46.3085 15.279 46.4158 14.8216 46.4158 14.3083C46.4158 13.795 46.3085 13.3423 46.0938 12.9503C45.8792 12.549 45.5805 12.241 45.1978 12.0263C44.8245 11.8116 44.3998 11.7043 43.9238 11.7043C43.4478 11.7043 43.0185 11.8116 42.6358 12.0263C42.2625 12.241 41.9638 12.549 41.7398 12.9503C41.5252 13.3423 41.4178 13.795 41.4178 14.3083C41.4178 14.8216 41.5252 15.279 41.7398 15.6803C41.9638 16.0723 42.2625 16.3803 42.6358 16.6043C43.0185 16.819 43.4478 16.9263 43.9238 16.9263ZM53.4946 10.8503C54.1853 10.8503 54.8013 11.0043 55.3426 11.3123C55.8839 11.6203 56.3039 12.0496 56.6026 12.6003C56.9106 13.1416 57.0646 13.7623 57.0646 14.4623C57.0646 15.181 56.9013 15.8203 56.5746 16.3803C56.2573 16.931 55.8046 17.3603 55.2166 17.6683C54.6379 17.9763 53.9753 18.1303 53.2286 18.1303C51.9686 18.1303 50.9933 17.701 50.3026 16.8423C49.6213 15.9743 49.2806 14.7563 49.2806 13.1883C49.2806 11.667 49.5933 10.477 50.2186 9.61829C50.8439 8.7503 51.8006 8.17629 53.0886 7.89629L56.4766 7.1403L56.6726 8.3723L53.5506 9.04429C52.5799 9.25896 51.8566 9.62296 51.3806 10.1363C50.9046 10.6496 50.6339 11.387 50.5686 12.3483C50.8859 11.8723 51.2966 11.5036 51.8006 11.2423C52.3046 10.981 52.8693 10.8503 53.4946 10.8503ZM53.2566 17.0103C53.7326 17.0103 54.1526 16.903 54.5166 16.6883C54.8899 16.4736 55.1793 16.1796 55.3846 15.8063C55.5899 15.4236 55.6926 14.9896 55.6926 14.5043C55.6926 13.767 55.4686 13.1743 55.0206 12.7263C54.5726 12.2783 53.9846 12.0543 53.2566 12.0543C52.5286 12.0543 51.9359 12.2783 51.4786 12.7263C51.0306 13.1743 50.8066 13.767 50.8066 14.5043C50.8066 14.9896 50.9093 15.4236 51.1146 15.8063C51.3293 16.1796 51.6233 16.4736 51.9966 16.6883C52.3699 16.903 52.7899 17.0103 53.2566 17.0103ZM58.9841 10.5983H60.3281V13.7483H64.5561V10.5983H65.9001V18.0183H64.5561V14.9103H60.3281V18.0183H58.9841V10.5983ZM75.2194 14.3503C75.2194 14.453 75.2101 14.5883 75.1914 14.7563H69.1714C69.2554 15.4096 69.5401 15.937 70.0254 16.3383C70.5201 16.7303 71.1314 16.9263 71.8594 16.9263C72.7461 16.9263 73.4601 16.6276 74.0014 16.0303L74.7434 16.8983C74.4074 17.2903 73.9874 17.589 73.4834 17.7943C72.9888 17.9996 72.4334 18.1023 71.8174 18.1023C71.0334 18.1023 70.3381 17.9436 69.7314 17.6263C69.1248 17.2996 68.6534 16.847 68.3174 16.2683C67.9908 15.6896 67.8274 15.0363 67.8274 14.3083C67.8274 13.5896 67.9861 12.941 68.3034 12.3623C68.6301 11.7836 69.0734 11.3356 69.6334 11.0183C70.2028 10.6916 70.8421 10.5283 71.5514 10.5283C72.2608 10.5283 72.8908 10.6916 73.4414 11.0183C74.0014 11.3356 74.4354 11.7836 74.7434 12.3623C75.0608 12.941 75.2194 13.6036 75.2194 14.3503ZM71.5514 11.6623C70.9074 11.6623 70.3661 11.8583 69.9274 12.2503C69.4981 12.6423 69.2461 13.1556 69.1714 13.7903H73.9314C73.8568 13.165 73.6001 12.6563 73.1614 12.2643C72.7321 11.863 72.1954 11.6623 71.5514 11.6623ZM84.0104 14.3503C84.0104 14.453 84.0011 14.5883 83.9824 14.7563H77.9624C78.0464 15.4096 78.3311 15.937 78.8164 16.3383C79.3111 16.7303 79.9224 16.9263 80.6504 16.9263C81.5371 16.9263 82.2511 16.6276 82.7924 16.0303L83.5344 16.8983C83.1984 17.2903 82.7784 17.589 82.2744 17.7943C81.7798 17.9996 81.2244 18.1023 80.6084 18.1023C79.8244 18.1023 79.1291 17.9436 78.5224 17.6263C77.9158 17.2996 77.4444 16.847 77.1084 16.2683C76.7818 15.6896 76.6184 15.0363 76.6184 14.3083C76.6184 13.5896 76.7771 12.941 77.0944 12.3623C77.4211 11.7836 77.8644 11.3356 78.4244 11.0183C78.9938 10.6916 79.6331 10.5283 80.3424 10.5283C81.0518 10.5283 81.6818 10.6916 82.2324 11.0183C82.7924 11.3356 83.2264 11.7836 83.5344 12.3623C83.8518 12.941 84.0104 13.6036 84.0104 14.3503ZM80.3424 11.6623C79.6984 11.6623 79.1571 11.8583 78.7184 12.2503C78.2891 12.6423 78.0371 13.1556 77.9624 13.7903H82.7224C82.6478 13.165 82.3911 12.6563 81.9524 12.2643C81.5231 11.863 80.9864 11.6623 80.3424 11.6623Z" fill="#00093C"/>
<path d="M94.0962 8.01488L99.9038 13.5803L94.0962 18.9838" stroke="#00093C" stroke-width="2" stroke-linecap="round"/>
</svg>
