<svg width="198" height="134" viewBox="0 0 198 134" fill="none" xmlns="http://www.w3.org/2000/svg">
<path d="M5.696 7.28H3.616V12H1.568V0.799999H3.616V5.488H5.76L8.976 0.799999H11.184L7.36 6.224L11.328 12H8.976L5.696 7.28ZM20.4065 7.776C20.4065 7.91467 20.3958 8.112 20.3745 8.368H13.6705C13.7878 8.99733 14.0918 9.49867 14.5825 9.872C15.0838 10.2347 15.7025 10.416 16.4385 10.416C17.3772 10.416 18.1505 10.1067 18.7585 9.488L19.8305 10.72C19.4465 11.1787 18.9612 11.5253 18.3745 11.76C17.7878 11.9947 17.1265 12.112 16.3905 12.112C15.4518 12.112 14.6252 11.9253 13.9105 11.552C13.1958 11.1787 12.6412 10.6613 12.2465 10C11.8625 9.328 11.6705 8.57067 11.6705 7.728C11.6705 6.896 11.8572 6.14933 12.2305 5.488C12.6145 4.816 13.1425 4.29333 13.8145 3.92C14.4865 3.54667 15.2438 3.36 16.0865 3.36C16.9185 3.36 17.6598 3.54667 18.3105 3.92C18.9718 4.28267 19.4838 4.8 19.8465 5.472C20.2198 6.13333 20.4065 6.90133 20.4065 7.776ZM16.0865 4.96C15.4465 4.96 14.9025 5.152 14.4545 5.536C14.0172 5.90933 13.7505 6.41067 13.6545 7.04H18.5025C18.4172 6.42133 18.1558 5.92 17.7185 5.536C17.2812 5.152 16.7372 4.96 16.0865 4.96ZM30.994 12V6.336L28.114 11.104H27.25L24.418 6.32V12H22.594V3.456H24.69L27.73 8.8L30.914 3.456H32.786L32.802 12H30.994ZM46.0985 7.552C47.1545 7.872 47.6825 8.55467 47.6825 9.6C47.6825 10.368 47.3945 10.96 46.8185 11.376C46.2425 11.792 45.3892 12 44.2585 12H39.9065V3.456H44.0825C45.1278 3.456 45.9438 3.648 46.5305 4.032C47.1172 4.416 47.4105 4.96 47.4105 5.664C47.4105 6.10133 47.2932 6.48 47.0585 6.8C46.8345 7.12 46.5145 7.37067 46.0985 7.552ZM41.8105 7.024H43.9065C44.9412 7.024 45.4585 6.66667 45.4585 5.952C45.4585 5.25867 44.9412 4.912 43.9065 4.912H41.8105V7.024ZM44.0985 10.544C45.1972 10.544 45.7465 10.1867 45.7465 9.472C45.7465 9.09867 45.6185 8.82133 45.3625 8.64C45.1065 8.448 44.7065 8.352 44.1625 8.352H41.8105V10.544H44.0985ZM53.9728 6.272C55.0608 6.272 55.8928 6.51733 56.4688 7.008C57.0448 7.49867 57.3328 8.192 57.3328 9.088C57.3328 10.0267 57.0128 10.752 56.3728 11.264C55.7434 11.776 54.8474 12.0267 53.6848 12.016L49.8128 12V3.456H51.8128V6.256L53.9728 6.272ZM58.4368 3.456H60.4368V12H58.4368V3.456ZM53.5088 10.544C54.0954 10.5547 54.5434 10.432 54.8528 10.176C55.1621 9.92 55.3168 9.54667 55.3168 9.056C55.3168 8.576 55.1674 8.224 54.8688 8C54.5701 7.776 54.1168 7.65867 53.5088 7.648L51.8128 7.632V10.528L53.5088 10.544ZM72.8911 12L70.6991 9.04L68.4911 12H66.2831L69.6111 7.664L66.4271 3.456H68.6511L70.7471 6.256L72.8431 3.456H75.0031L71.8031 7.632L75.1471 12H72.8911ZM80.1051 12.112C79.2411 12.112 78.4625 11.9253 77.7691 11.552C77.0758 11.1787 76.5318 10.6613 76.1371 10C75.7531 9.328 75.5611 8.57067 75.5611 7.728C75.5611 6.88533 75.7531 6.13333 76.1371 5.472C76.5318 4.81067 77.0758 4.29333 77.7691 3.92C78.4625 3.54667 79.2411 3.36 80.1051 3.36C80.9798 3.36 81.7638 3.54667 82.4571 3.92C83.1505 4.29333 83.6891 4.81067 84.0731 5.472C84.4678 6.13333 84.6651 6.88533 84.6651 7.728C84.6651 8.57067 84.4678 9.328 84.0731 10C83.6891 10.6613 83.1505 11.1787 82.4571 11.552C81.7638 11.9253 80.9798 12.112 80.1051 12.112ZM80.1051 10.4C80.8411 10.4 81.4491 10.1547 81.9291 9.664C82.4091 9.17333 82.6491 8.528 82.6491 7.728C82.6491 6.928 82.4091 6.28267 81.9291 5.792C81.4491 5.30133 80.8411 5.056 80.1051 5.056C79.3691 5.056 78.7611 5.30133 78.2811 5.792C77.8118 6.28267 77.5771 6.928 77.5771 7.728C77.5771 8.528 77.8118 9.17333 78.2811 9.664C78.7611 10.1547 79.3691 10.4 80.1051 10.4ZM93.0964 5.152H90.1044V12H88.1044V5.152H85.0964V3.456H93.0964V5.152ZM94.5471 3.456H96.5471V9.088L101.267 3.456H103.091V12H101.091V6.368L96.3871 12H94.5471V3.456ZM112.55 5.152H109.558V12H107.558V5.152H104.55V3.456H112.55V5.152ZM121.625 7.776C121.625 7.91467 121.615 8.112 121.593 8.368H114.889C115.007 8.99733 115.311 9.49867 115.801 9.872C116.303 10.2347 116.921 10.416 117.657 10.416C118.596 10.416 119.369 10.1067 119.977 9.488L121.049 10.72C120.665 11.1787 120.18 11.5253 119.593 11.76C119.007 11.9947 118.345 12.112 117.609 12.112C116.671 12.112 115.844 11.9253 115.129 11.552C114.415 11.1787 113.86 10.6613 113.465 10C113.081 9.328 112.889 8.57067 112.889 7.728C112.889 6.896 113.076 6.14933 113.449 5.488C113.833 4.816 114.361 4.29333 115.033 3.92C115.705 3.54667 116.463 3.36 117.305 3.36C118.137 3.36 118.879 3.54667 119.529 3.92C120.191 4.28267 120.703 4.8 121.065 5.472C121.439 6.13333 121.625 6.90133 121.625 7.776ZM117.305 4.96C116.665 4.96 116.121 5.152 115.673 5.536C115.236 5.90933 114.969 6.41067 114.873 7.04H119.721C119.636 6.42133 119.375 5.92 118.937 5.536C118.5 5.152 117.956 4.96 117.305 4.96ZM132.123 12.112C131.237 12.112 130.443 11.9253 129.739 11.552C129.035 11.1787 128.485 10.6613 128.091 10C127.696 9.328 127.499 8.57067 127.499 7.728C127.499 6.88533 127.696 6.13333 128.091 5.472C128.485 4.81067 129.029 4.29333 129.723 3.92C130.427 3.54667 131.227 3.36 132.123 3.36C132.965 3.36 133.701 3.53067 134.331 3.872C134.971 4.21333 135.451 4.704 135.771 5.344L134.235 6.24C133.989 5.84533 133.68 5.552 133.307 5.36C132.944 5.15733 132.544 5.056 132.107 5.056C131.36 5.056 130.741 5.30133 130.251 5.792C129.76 6.272 129.515 6.91733 129.515 7.728C129.515 8.53867 129.755 9.18933 130.235 9.68C130.725 10.16 131.349 10.4 132.107 10.4C132.544 10.4 132.944 10.304 133.307 10.112C133.68 9.90933 133.989 9.61067 134.235 9.216L135.771 10.112C135.44 10.752 134.955 11.248 134.315 11.6C133.685 11.9413 132.955 12.112 132.123 12.112ZM144.221 5.152H141.229V12H139.229V5.152H136.221V3.456H144.221V5.152ZM148.856 3.36C150.115 3.36 151.075 3.664 151.736 4.272C152.408 4.86933 152.744 5.776 152.744 6.992V12H150.856V10.96C150.611 11.3333 150.259 11.6213 149.8 11.824C149.352 12.016 148.808 12.112 148.168 12.112C147.528 12.112 146.968 12.0053 146.488 11.792C146.008 11.568 145.635 11.264 145.368 10.88C145.112 10.4853 144.984 10.0427 144.984 9.552C144.984 8.784 145.267 8.17067 145.832 7.712C146.408 7.24267 147.309 7.008 148.536 7.008H150.744V6.88C150.744 6.28267 150.563 5.824 150.2 5.504C149.848 5.184 149.32 5.024 148.616 5.024C148.136 5.024 147.661 5.09867 147.192 5.248C146.733 5.39733 146.344 5.60533 146.024 5.872L145.24 4.416C145.688 4.07467 146.227 3.81333 146.856 3.632C147.485 3.45067 148.152 3.36 148.856 3.36ZM148.584 10.656C149.085 10.656 149.528 10.544 149.912 10.32C150.307 10.0853 150.584 9.75467 150.744 9.328V8.336H148.68C147.528 8.336 146.952 8.71467 146.952 9.472C146.952 9.83467 147.096 10.1227 147.384 10.336C147.672 10.5493 148.072 10.656 148.584 10.656ZM161.987 5.152H158.995V12H156.995V5.152H153.987V3.456H161.987V5.152ZM167.726 6.272C168.814 6.272 169.646 6.51733 170.222 7.008C170.808 7.49867 171.102 8.192 171.102 9.088C171.102 10.0267 170.782 10.752 170.142 11.264C169.502 11.776 168.6 12.0267 167.438 12.016L163.438 12V3.456H165.438V6.256L167.726 6.272ZM167.262 10.544C167.848 10.5547 168.296 10.432 168.606 10.176C168.915 9.92 169.07 9.54667 169.07 9.056C169.07 8.576 168.92 8.224 168.622 8C168.323 7.776 167.87 7.65867 167.262 7.648L165.438 7.632V10.528L167.262 10.544ZM174.349 8.288C174.349 7.712 174.477 7.23733 174.733 6.864C175 6.48 175.384 6.064 175.885 5.616C176.269 5.27467 176.552 4.98133 176.733 4.736C176.925 4.48 177.021 4.192 177.021 3.872C177.021 3.424 176.84 3.06133 176.477 2.784C176.114 2.50667 175.629 2.368 175.021 2.368C173.869 2.368 173 2.77867 172.413 3.6L170.861 2.592C171.32 1.96267 171.912 1.48267 172.637 1.152C173.362 0.810666 174.216 0.639999 175.197 0.639999C176.392 0.639999 177.341 0.901333 178.045 1.424C178.76 1.936 179.117 2.64533 179.117 3.552C179.117 3.98933 179.042 4.37333 178.893 4.704C178.754 5.03467 178.584 5.31733 178.381 5.552C178.178 5.776 177.912 6.03733 177.581 6.336C177.176 6.69867 176.872 7.01867 176.669 7.296C176.477 7.57333 176.381 7.904 176.381 8.288H174.349ZM175.373 12.112C175 12.112 174.69 11.9947 174.445 11.76C174.21 11.5147 174.093 11.216 174.093 10.864C174.093 10.512 174.21 10.2187 174.445 9.984C174.69 9.74933 175 9.632 175.373 9.632C175.736 9.632 176.034 9.74933 176.269 9.984C176.514 10.2187 176.637 10.512 176.637 10.864C176.637 11.216 176.514 11.5147 176.269 11.76C176.034 11.9947 175.736 12.112 175.373 12.112ZM11.392 40.8V52H9.824V42.192H3.328V52H1.744V40.8H11.392ZM18.2606 52.096C17.418 52.096 16.6606 51.9093 15.9886 51.536C15.3166 51.1627 14.7886 50.6507 14.4046 50C14.0313 49.3387 13.8446 48.592 13.8446 47.76C13.8446 46.928 14.0313 46.1867 14.4046 45.536C14.7886 44.8747 15.3166 44.3627 15.9886 44C16.6606 43.6267 17.418 43.44 18.2606 43.44C19.1033 43.44 19.8553 43.6267 20.5166 44C21.1886 44.3627 21.7113 44.8747 22.0846 45.536C22.4686 46.1867 22.6606 46.928 22.6606 47.76C22.6606 48.592 22.4686 49.3387 22.0846 50C21.7113 50.6507 21.1886 51.1627 20.5166 51.536C19.8553 51.9093 19.1033 52.096 18.2606 52.096ZM18.2606 50.752C18.8046 50.752 19.29 50.6293 19.7166 50.384C20.154 50.128 20.4953 49.776 20.7406 49.328C20.986 48.8693 21.1086 48.3467 21.1086 47.76C21.1086 47.1733 20.986 46.656 20.7406 46.208C20.4953 45.7493 20.154 45.3973 19.7166 45.152C19.29 44.9067 18.8046 44.784 18.2606 44.784C17.7166 44.784 17.226 44.9067 16.7886 45.152C16.362 45.3973 16.0206 45.7493 15.7646 46.208C15.5193 46.656 15.3966 47.1733 15.3966 47.76C15.3966 48.3467 15.5193 48.8693 15.7646 49.328C16.0206 49.776 16.362 50.128 16.7886 50.384C17.226 50.6293 17.7166 50.752 18.2606 50.752ZM29.3746 43.44C30.196 43.44 30.932 43.6213 31.5826 43.984C32.2333 44.3467 32.74 44.8533 33.1026 45.504C33.476 46.1547 33.6626 46.9067 33.6626 47.76C33.6626 48.6133 33.476 49.3707 33.1026 50.032C32.74 50.6827 32.2333 51.1893 31.5826 51.552C30.932 51.9147 30.196 52.096 29.3746 52.096C28.7666 52.096 28.2066 51.9787 27.6946 51.744C27.1933 51.5093 26.7666 51.168 26.4146 50.72V55.104H24.8786V43.52H26.3506V44.864C26.692 44.3947 27.124 44.0427 27.6466 43.808C28.1693 43.5627 28.7453 43.44 29.3746 43.44ZM29.2466 50.752C29.7906 50.752 30.276 50.6293 30.7026 50.384C31.14 50.128 31.4813 49.776 31.7266 49.328C31.9826 48.8693 32.1106 48.3467 32.1106 47.76C32.1106 47.1733 31.9826 46.656 31.7266 46.208C31.4813 45.7493 31.14 45.3973 30.7026 45.152C30.276 44.9067 29.7906 44.784 29.2466 44.784C28.7133 44.784 28.228 44.912 27.7906 45.168C27.364 45.4133 27.0226 45.76 26.7666 46.208C26.5213 46.656 26.3986 47.1733 26.3986 47.76C26.3986 48.3467 26.5213 48.8693 26.7666 49.328C27.012 49.776 27.3533 50.128 27.7906 50.384C28.228 50.6293 28.7133 50.752 29.2466 50.752ZM38.9183 43.44C40.0916 43.44 40.9876 43.728 41.6063 44.304C42.2356 44.88 42.5503 45.7387 42.5503 46.88V52H41.0943V50.88C40.8383 51.2747 40.4703 51.5787 39.9903 51.792C39.5209 51.9947 38.9609 52.096 38.3103 52.096C37.3609 52.096 36.5983 51.8667 36.0223 51.408C35.4569 50.9493 35.1743 50.3467 35.1743 49.6C35.1743 48.8533 35.4463 48.256 35.9903 47.808C36.5343 47.3493 37.3983 47.12 38.5823 47.12H41.0143V46.816C41.0143 46.1547 40.8223 45.648 40.4383 45.296C40.0543 44.944 39.4889 44.768 38.7423 44.768C38.2409 44.768 37.7503 44.8533 37.2703 45.024C36.7903 45.184 36.3849 45.4027 36.0543 45.68L35.4143 44.528C35.8516 44.176 36.3743 43.9093 36.9823 43.728C37.5903 43.536 38.2356 43.44 38.9183 43.44ZM38.5663 50.912C39.1529 50.912 39.6596 50.784 40.0863 50.528C40.5129 50.2613 40.8223 49.888 41.0143 49.408V48.224H38.6463C37.3449 48.224 36.6943 48.6613 36.6943 49.536C36.6943 49.9627 36.8596 50.2987 37.1903 50.544C37.5209 50.7893 37.9796 50.912 38.5663 50.912ZM49.613 43.52H51.149V47.12H55.981V43.52H57.517V52H55.981V48.448H51.149V52H49.613V43.52ZM63.5276 43.44C64.701 43.44 65.597 43.728 66.2156 44.304C66.845 44.88 67.1596 45.7387 67.1596 46.88V52H65.7036V50.88C65.4476 51.2747 65.0796 51.5787 64.5996 51.792C64.1303 51.9947 63.5703 52.096 62.9196 52.096C61.9703 52.096 61.2076 51.8667 60.6316 51.408C60.0663 50.9493 59.7836 50.3467 59.7836 49.6C59.7836 48.8533 60.0556 48.256 60.5996 47.808C61.1436 47.3493 62.0076 47.12 63.1916 47.12H65.6236V46.816C65.6236 46.1547 65.4316 45.648 65.0476 45.296C64.6636 44.944 64.0983 44.768 63.3516 44.768C62.8503 44.768 62.3596 44.8533 61.8796 45.024C61.3996 45.184 60.9943 45.4027 60.6636 45.68L60.0236 44.528C60.461 44.176 60.9836 43.9093 61.5916 43.728C62.1996 43.536 62.845 43.44 63.5276 43.44ZM63.1756 50.912C63.7623 50.912 64.269 50.784 64.6956 50.528C65.1223 50.2613 65.4316 49.888 65.6236 49.408V48.224H63.2556C61.9543 48.224 61.3036 48.6613 61.3036 49.536C61.3036 49.9627 61.469 50.2987 61.7996 50.544C62.1303 50.7893 62.589 50.912 63.1756 50.912ZM69.9255 43.52H71.4615V49.696L76.6615 43.52H78.0535V52H76.5175V45.824L71.3335 52H69.9255V43.52ZM73.8935 42.416C73.1042 42.416 72.4908 42.2293 72.0535 41.856C71.6162 41.472 71.3922 40.9227 71.3815 40.208H72.4215C72.4322 40.6027 72.5655 40.9227 72.8215 41.168C73.0882 41.4027 73.4402 41.52 73.8775 41.52C74.3148 41.52 74.6668 41.4027 74.9335 41.168C75.2002 40.9227 75.3388 40.6027 75.3495 40.208H76.4215C76.4108 40.9227 76.1815 41.472 75.7335 41.856C75.2855 42.2293 74.6722 42.416 73.8935 42.416ZM87.3549 44.864H84.2509V52H82.7149V44.864H79.6109V43.52H87.3549V44.864ZM88.9255 43.52H90.4615V49.696L95.6615 43.52H97.0535V52H95.5175V45.824L90.3335 52H88.9255V43.52ZM108.028 52.096C107.164 52.096 106.39 51.9093 105.708 51.536C105.036 51.1627 104.508 50.6507 104.124 50C103.74 49.3387 103.548 48.592 103.548 47.76C103.548 46.928 103.74 46.1867 104.124 45.536C104.508 44.8747 105.036 44.3627 105.708 44C106.39 43.6267 107.164 43.44 108.028 43.44C108.796 43.44 109.478 43.5947 110.076 43.904C110.684 44.2133 111.153 44.6613 111.484 45.248L110.316 46C110.049 45.5947 109.718 45.2907 109.324 45.088C108.929 44.8853 108.492 44.784 108.012 44.784C107.457 44.784 106.956 44.9067 106.508 45.152C106.07 45.3973 105.724 45.7493 105.468 46.208C105.222 46.656 105.1 47.1733 105.1 47.76C105.1 48.3573 105.222 48.8853 105.468 49.344C105.724 49.792 106.07 50.1387 106.508 50.384C106.956 50.6293 107.457 50.752 108.012 50.752C108.492 50.752 108.929 50.6507 109.324 50.448C109.718 50.2453 110.049 49.9413 110.316 49.536L111.484 50.272C111.153 50.8587 110.684 51.312 110.076 51.632C109.478 51.9413 108.796 52.096 108.028 52.096ZM121.136 47.808C121.136 47.9253 121.126 48.08 121.104 48.272H114.224C114.32 49.0187 114.646 49.6213 115.2 50.08C115.766 50.528 116.464 50.752 117.296 50.752C118.31 50.752 119.126 50.4107 119.744 49.728L120.592 50.72C120.208 51.168 119.728 51.5093 119.152 51.744C118.587 51.9787 117.952 52.096 117.248 52.096C116.352 52.096 115.558 51.9147 114.864 51.552C114.171 51.1787 113.632 50.6613 113.248 50C112.875 49.3387 112.688 48.592 112.688 47.76C112.688 46.9387 112.87 46.1973 113.232 45.536C113.606 44.8747 114.112 44.3627 114.752 44C115.403 43.6267 116.134 43.44 116.944 43.44C117.755 43.44 118.475 43.6267 119.104 44C119.744 44.3627 120.24 44.8747 120.592 45.536C120.955 46.1973 121.136 46.9547 121.136 47.808ZM116.944 44.736C116.208 44.736 115.59 44.96 115.088 45.408C114.598 45.856 114.31 46.4427 114.224 47.168H119.664C119.579 46.4533 119.286 45.872 118.784 45.424C118.294 44.9653 117.68 44.736 116.944 44.736ZM127.839 43.808C128.629 43.808 129.333 43.984 129.951 44.336C130.57 44.688 131.05 45.1787 131.391 45.808C131.743 46.4267 131.919 47.136 131.919 47.936C131.919 48.7573 131.733 49.488 131.359 50.128C130.997 50.7573 130.479 51.248 129.807 51.6C129.146 51.952 128.389 52.128 127.535 52.128C126.095 52.128 124.981 51.6373 124.191 50.656C123.413 49.664 123.023 48.272 123.023 46.48C123.023 44.7413 123.381 43.3813 124.095 42.4C124.81 41.408 125.903 40.752 127.375 40.432L131.247 39.568L131.471 40.976L127.903 41.744C126.794 41.9893 125.967 42.4053 125.423 42.992C124.879 43.5787 124.57 44.4213 124.495 45.52C124.858 44.976 125.327 44.5547 125.903 44.256C126.479 43.9573 127.125 43.808 127.839 43.808ZM127.567 50.848C128.111 50.848 128.591 50.7253 129.007 50.48C129.434 50.2347 129.765 49.8987 129.999 49.472C130.234 49.0347 130.351 48.5387 130.351 47.984C130.351 47.1413 130.095 46.464 129.583 45.952C129.071 45.44 128.399 45.184 127.567 45.184C126.735 45.184 126.058 45.44 125.535 45.952C125.023 46.464 124.767 47.1413 124.767 47.984C124.767 48.5387 124.885 49.0347 125.119 49.472C125.365 49.8987 125.701 50.2347 126.127 50.48C126.554 50.7253 127.034 50.848 127.567 50.848ZM140.913 43.52V52H139.537V49.312H137.073H136.897L135.041 52H133.393L135.457 49.104C134.817 48.912 134.326 48.5973 133.985 48.16C133.644 47.712 133.473 47.1573 133.473 46.496C133.473 45.5253 133.804 44.7893 134.465 44.288C135.126 43.776 136.038 43.52 137.201 43.52H140.913ZM135.041 46.544C135.041 47.1093 135.217 47.5307 135.569 47.808C135.932 48.0747 136.47 48.208 137.185 48.208H139.537V44.864H137.249C135.777 44.864 135.041 45.424 135.041 46.544ZM1.488 63.52H3.024V69.696L8.224 63.52H9.616V72H8.08V65.824L2.896 72H1.488V63.52ZM22.6703 67.6C23.7689 67.8773 24.3183 68.5653 24.3183 69.664C24.3183 70.4107 24.0356 70.9867 23.4703 71.392C22.9156 71.7973 22.0836 72 20.9743 72H16.8943V63.52H20.8303C21.8329 63.52 22.6169 63.712 23.1823 64.096C23.7476 64.4693 24.0303 65.0027 24.0303 65.696C24.0303 66.144 23.9076 66.5333 23.6623 66.864C23.4276 67.184 23.0969 67.4293 22.6703 67.6ZM18.3983 67.168H20.7023C21.2889 67.168 21.7316 67.0613 22.0303 66.848C22.3396 66.6347 22.4943 66.3253 22.4943 65.92C22.4943 65.1093 21.8969 64.704 20.7023 64.704H18.3983V67.168ZM20.8623 70.816C21.5023 70.816 21.9823 70.7147 22.3023 70.512C22.6223 70.3093 22.7823 69.9947 22.7823 69.568C22.7823 69.1307 22.6329 68.8053 22.3343 68.592C22.0463 68.3787 21.5876 68.272 20.9583 68.272H18.3983V70.816H20.8623ZM30.5464 66.4C31.613 66.4107 32.429 66.656 32.9944 67.136C33.5597 67.616 33.8424 68.2933 33.8424 69.168C33.8424 70.0853 33.533 70.7947 32.9144 71.296C32.3064 71.7867 31.4317 72.0267 30.2904 72.016L26.7224 72V63.52H28.2584V66.384L30.5464 66.4ZM35.1064 63.52H36.6424V72H35.1064V63.52ZM30.1784 70.848C30.8717 70.8587 31.3944 70.72 31.7464 70.432C32.109 70.144 32.2904 69.7173 32.2904 69.152C32.2904 68.5973 32.1144 68.192 31.7624 67.936C31.4104 67.68 30.8824 67.5467 30.1784 67.536L28.2584 67.504V70.832L30.1784 70.848ZM43.9486 63.808C44.738 63.808 45.442 63.984 46.0606 64.336C46.6793 64.688 47.1593 65.1787 47.5006 65.808C47.8526 66.4267 48.0286 67.136 48.0286 67.936C48.0286 68.7573 47.842 69.488 47.4686 70.128C47.106 70.7573 46.5886 71.248 45.9166 71.6C45.2553 71.952 44.498 72.128 43.6446 72.128C42.2046 72.128 41.09 71.6373 40.3006 70.656C39.522 69.664 39.1326 68.272 39.1326 66.48C39.1326 64.7413 39.49 63.3813 40.2046 62.4C40.9193 61.408 42.0126 60.752 43.4846 60.432L47.3566 59.568L47.5806 60.976L44.0126 61.744C42.9033 61.9893 42.0766 62.4053 41.5326 62.992C40.9886 63.5787 40.6793 64.4213 40.6046 65.52C40.9673 64.976 41.4366 64.5547 42.0126 64.256C42.5886 63.9573 43.234 63.808 43.9486 63.808ZM43.6766 70.848C44.2206 70.848 44.7006 70.7253 45.1166 70.48C45.5433 70.2347 45.874 69.8987 46.1086 69.472C46.3433 69.0347 46.4606 68.5387 46.4606 67.984C46.4606 67.1413 46.2046 66.464 45.6926 65.952C45.1806 65.44 44.5086 65.184 43.6766 65.184C42.8446 65.184 42.1673 65.44 41.6446 65.952C41.1326 66.464 40.8766 67.1413 40.8766 67.984C40.8766 68.5387 40.994 69.0347 41.2286 69.472C41.474 69.8987 41.81 70.2347 42.2366 70.48C42.6633 70.7253 43.1433 70.848 43.6766 70.848ZM54.7184 63.44C55.5397 63.44 56.2757 63.6213 56.9264 63.984C57.577 64.3467 58.0837 64.8533 58.4464 65.504C58.8197 66.1547 59.0064 66.9067 59.0064 67.76C59.0064 68.6133 58.8197 69.3707 58.4464 70.032C58.0837 70.6827 57.577 71.1893 56.9264 71.552C56.2757 71.9147 55.5397 72.096 54.7184 72.096C54.1104 72.096 53.5504 71.9787 53.0384 71.744C52.537 71.5093 52.1104 71.168 51.7584 70.72V75.104H50.2224V63.52H51.6944V64.864C52.0357 64.3947 52.4677 64.0427 52.9904 63.808C53.513 63.5627 54.089 63.44 54.7184 63.44ZM54.5904 70.752C55.1344 70.752 55.6197 70.6293 56.0464 70.384C56.4837 70.128 56.825 69.776 57.0704 69.328C57.3264 68.8693 57.4544 68.3467 57.4544 67.76C57.4544 67.1733 57.3264 66.656 57.0704 66.208C56.825 65.7493 56.4837 65.3973 56.0464 65.152C55.6197 64.9067 55.1344 64.784 54.5904 64.784C54.057 64.784 53.5717 64.912 53.1344 65.168C52.7077 65.4133 52.3664 65.76 52.1104 66.208C51.865 66.656 51.7424 67.1733 51.7424 67.76C51.7424 68.3467 51.865 68.8693 52.1104 69.328C52.3557 69.776 52.697 70.128 53.1344 70.384C53.5717 70.6293 54.057 70.752 54.5904 70.752ZM64.262 63.44C65.4353 63.44 66.3313 63.728 66.95 64.304C67.5793 64.88 67.894 65.7387 67.894 66.88V72H66.438V70.88C66.182 71.2747 65.814 71.5787 65.334 71.792C64.8647 71.9947 64.3047 72.096 63.654 72.096C62.7047 72.096 61.942 71.8667 61.366 71.408C60.8007 70.9493 60.518 70.3467 60.518 69.6C60.518 68.8533 60.79 68.256 61.334 67.808C61.878 67.3493 62.742 67.12 63.926 67.12H66.358V66.816C66.358 66.1547 66.166 65.648 65.782 65.296C65.398 64.944 64.8327 64.768 64.086 64.768C63.5847 64.768 63.094 64.8533 62.614 65.024C62.134 65.184 61.7287 65.4027 61.398 65.68L60.758 64.528C61.1953 64.176 61.718 63.9093 62.326 63.728C62.934 63.536 63.5793 63.44 64.262 63.44ZM63.91 70.912C64.4967 70.912 65.0033 70.784 65.43 70.528C65.8567 70.2613 66.166 69.888 66.358 69.408V68.224H63.99C62.6887 68.224 62.038 68.6613 62.038 69.536C62.038 69.9627 62.2033 70.2987 62.534 70.544C62.8647 70.7893 63.3233 70.912 63.91 70.912ZM76.9799 64.864H73.8759V72H72.3399V64.864H69.2359V63.52H76.9799V64.864ZM82.4705 66.4C83.5478 66.4107 84.3692 66.656 84.9345 67.136C85.4998 67.616 85.7825 68.2933 85.7825 69.168C85.7825 70.0853 85.4732 70.7947 84.8545 71.296C84.2465 71.7867 83.3718 72.0267 82.2305 72.016L78.5505 72V63.52H80.0865V66.384L82.4705 66.4ZM82.1025 70.848C82.7958 70.8587 83.3185 70.72 83.6705 70.432C84.0332 70.144 84.2145 69.7173 84.2145 69.152C84.2145 68.5973 84.0385 68.192 83.6865 67.936C83.3452 67.68 82.8172 67.5467 82.1025 67.536L80.0865 67.504V70.832L82.1025 70.848ZM99.9065 63.52V72H98.3705V64.864H93.5865V72H92.0505V63.52H99.9065ZM106.511 72.096C105.668 72.096 104.911 71.9093 104.239 71.536C103.567 71.1627 103.039 70.6507 102.655 70C102.281 69.3387 102.095 68.592 102.095 67.76C102.095 66.928 102.281 66.1867 102.655 65.536C103.039 64.8747 103.567 64.3627 104.239 64C104.911 63.6267 105.668 63.44 106.511 63.44C107.353 63.44 108.105 63.6267 108.767 64C109.439 64.3627 109.961 64.8747 110.335 65.536C110.719 66.1867 110.911 66.928 110.911 67.76C110.911 68.592 110.719 69.3387 110.335 70C109.961 70.6507 109.439 71.1627 108.767 71.536C108.105 71.9093 107.353 72.096 106.511 72.096ZM106.511 70.752C107.055 70.752 107.54 70.6293 107.967 70.384C108.404 70.128 108.745 69.776 108.991 69.328C109.236 68.8693 109.359 68.3467 109.359 67.76C109.359 67.1733 109.236 66.656 108.991 66.208C108.745 65.7493 108.404 65.3973 107.967 65.152C107.54 64.9067 107.055 64.784 106.511 64.784C105.967 64.784 105.476 64.9067 105.039 65.152C104.612 65.3973 104.271 65.7493 104.015 66.208C103.769 66.656 103.647 67.1733 103.647 67.76C103.647 68.3467 103.769 68.8693 104.015 69.328C104.271 69.776 104.612 70.128 105.039 70.384C105.476 70.6293 105.967 70.752 106.511 70.752ZM121.753 70.656V73.968H120.313V72H113.225V73.968H111.769V70.656H112.217C112.761 70.624 113.134 70.24 113.337 69.504C113.539 68.768 113.678 67.728 113.753 66.384L113.881 63.52H120.457V70.656H121.753ZM115.161 66.496C115.118 67.5627 115.027 68.448 114.889 69.152C114.761 69.8453 114.521 70.3467 114.169 70.656H118.921V64.864H115.241L115.161 66.496ZM129.05 72L126.602 68.752L124.122 72H122.41L125.754 67.664L122.57 63.52H124.282L126.618 66.576L128.938 63.52H130.618L127.418 67.664L130.794 72H129.05ZM136.042 72.096C135.199 72.096 134.442 71.9093 133.77 71.536C133.098 71.1627 132.57 70.6507 132.186 70C131.813 69.3387 131.626 68.592 131.626 67.76C131.626 66.928 131.813 66.1867 132.186 65.536C132.57 64.8747 133.098 64.3627 133.77 64C134.442 63.6267 135.199 63.44 136.042 63.44C136.885 63.44 137.637 63.6267 138.298 64C138.97 64.3627 139.493 64.8747 139.866 65.536C140.25 66.1867 140.442 66.928 140.442 67.76C140.442 68.592 140.25 69.3387 139.866 70C139.493 70.6507 138.97 71.1627 138.298 71.536C137.637 71.9093 136.885 72.096 136.042 72.096ZM136.042 70.752C136.586 70.752 137.071 70.6293 137.498 70.384C137.935 70.128 138.277 69.776 138.522 69.328C138.767 68.8693 138.89 68.3467 138.89 67.76C138.89 67.1733 138.767 66.656 138.522 66.208C138.277 65.7493 137.935 65.3973 137.498 65.152C137.071 64.9067 136.586 64.784 136.042 64.784C135.498 64.784 135.007 64.9067 134.57 65.152C134.143 65.3973 133.802 65.7493 133.546 66.208C133.301 66.656 133.178 67.1733 133.178 67.76C133.178 68.3467 133.301 68.8693 133.546 69.328C133.802 69.776 134.143 70.128 134.57 70.384C135.007 70.6293 135.498 70.752 136.042 70.752ZM151.284 70.656V73.968H149.844V72H142.756V73.968H141.3V70.656H141.748C142.292 70.624 142.665 70.24 142.868 69.504C143.071 68.768 143.209 67.728 143.284 66.384L143.412 63.52H149.988V70.656H151.284ZM144.692 66.496C144.649 67.5627 144.559 68.448 144.42 69.152C144.292 69.8453 144.052 70.3467 143.7 70.656H148.452V64.864H144.772L144.692 66.496ZM160.085 63.52V72H158.709V69.312H156.245H156.069L154.213 72H152.565L154.629 69.104C153.989 68.912 153.498 68.5973 153.157 68.16C152.816 67.712 152.645 67.1573 152.645 66.496C152.645 65.5253 152.976 64.7893 153.637 64.288C154.298 63.776 155.21 63.52 156.373 63.52H160.085ZM154.213 66.544C154.213 67.1093 154.389 67.5307 154.741 67.808C155.104 68.0747 155.642 68.208 156.357 68.208H158.709V64.864H156.421C154.949 64.864 154.213 65.424 154.213 66.544ZM175.162 63.52V72H163.082V63.52H164.618V70.656H168.362V63.52H169.898V70.656H173.626V63.52H175.162ZM176.426 70.656V73.808H174.986V72H173.562V70.656H176.426ZM178.144 63.52H179.68V69.696L184.88 63.52H186.272V72H184.736V65.824L179.552 72H178.144V63.52ZM189.254 63.52H190.79V69.696L195.99 63.52H197.382V72H195.846V65.824L190.662 72H189.254V63.52ZM193.222 62.416C192.432 62.416 191.819 62.2293 191.382 61.856C190.944 61.472 190.72 60.9227 190.71 60.208H191.75C191.76 60.6027 191.894 60.9227 192.15 61.168C192.416 61.4027 192.768 61.52 193.206 61.52C193.643 61.52 193.995 61.4027 194.262 61.168C194.528 60.9227 194.667 60.6027 194.678 60.208H195.75C195.739 60.9227 195.51 61.472 195.062 61.856C194.614 62.2293 194 62.416 193.222 62.416ZM4.784 88.416H3.024V92H1.488V83.52H3.024V87.104H4.816L7.568 83.52H9.216L6 87.6L9.44 92H7.632L4.784 88.416ZM18.1341 83.52L14.0221 92.848C13.6595 93.712 13.2328 94.32 12.7421 94.672C12.2621 95.024 11.6808 95.2 10.9981 95.2C10.5821 95.2 10.1768 95.1307 9.78213 94.992C9.39813 94.864 9.07812 94.672 8.82212 94.416L9.47813 93.264C9.91546 93.68 10.4221 93.888 10.9981 93.888C11.3715 93.888 11.6808 93.7867 11.9261 93.584C12.1821 93.392 12.4115 93.056 12.6141 92.576L12.8861 91.984L9.14213 83.52H10.7421L13.7021 90.304L16.6301 83.52H18.1341ZM24.2028 83.44C25.0241 83.44 25.7601 83.6213 26.4108 83.984C27.0614 84.3467 27.5681 84.8533 27.9308 85.504C28.3041 86.1547 28.4908 86.9067 28.4908 87.76C28.4908 88.6133 28.3041 89.3707 27.9308 90.032C27.5681 90.6827 27.0614 91.1893 26.4108 91.552C25.7601 91.9147 25.0241 92.096 24.2028 92.096C23.5948 92.096 23.0348 91.9787 22.5228 91.744C22.0214 91.5093 21.5948 91.168 21.2428 90.72V95.104H19.7068V83.52H21.1788V84.864C21.5201 84.3947 21.9521 84.0427 22.4748 83.808C22.9974 83.5627 23.5734 83.44 24.2028 83.44ZM24.0748 90.752C24.6188 90.752 25.1041 90.6293 25.5308 90.384C25.9681 90.128 26.3094 89.776 26.5548 89.328C26.8108 88.8693 26.9388 88.3467 26.9388 87.76C26.9388 87.1733 26.8108 86.656 26.5548 86.208C26.3094 85.7493 25.9681 85.3973 25.5308 85.152C25.1041 84.9067 24.6188 84.784 24.0748 84.784C23.5414 84.784 23.0561 84.912 22.6188 85.168C22.1921 85.4133 21.8508 85.76 21.5948 86.208C21.3494 86.656 21.2268 87.1733 21.2268 87.76C21.2268 88.3467 21.3494 88.8693 21.5948 89.328C21.8401 89.776 22.1814 90.128 22.6188 90.384C23.0561 90.6293 23.5414 90.752 24.0748 90.752ZM34.4184 92.096C33.5544 92.096 32.781 91.9093 32.0984 91.536C31.4264 91.1627 30.8984 90.6507 30.5144 90C30.1304 89.3387 29.9384 88.592 29.9384 87.76C29.9384 86.928 30.1304 86.1867 30.5144 85.536C30.8984 84.8747 31.4264 84.3627 32.0984 84C32.781 83.6267 33.5544 83.44 34.4184 83.44C35.1864 83.44 35.869 83.5947 36.4664 83.904C37.0744 84.2133 37.5437 84.6613 37.8744 85.248L36.7064 86C36.4397 85.5947 36.109 85.2907 35.7144 85.088C35.3197 84.8853 34.8824 84.784 34.4024 84.784C33.8477 84.784 33.3464 84.9067 32.8984 85.152C32.461 85.3973 32.1144 85.7493 31.8584 86.208C31.613 86.656 31.4904 87.1733 31.4904 87.76C31.4904 88.3573 31.613 88.8853 31.8584 89.344C32.1144 89.792 32.461 90.1387 32.8984 90.384C33.3464 90.6293 33.8477 90.752 34.4024 90.752C34.8824 90.752 35.3197 90.6507 35.7144 90.448C36.109 90.2453 36.4397 89.9413 36.7064 89.536L37.8744 90.272C37.5437 90.8587 37.0744 91.312 36.4664 91.632C35.869 91.9413 35.1864 92.096 34.4184 92.096ZM44.4959 85.632C44.1972 85.632 43.9412 85.5307 43.7279 85.328C43.5145 85.1147 43.4079 84.848 43.4079 84.528C43.4079 84.2187 43.5145 83.9627 43.7279 83.76C43.9412 83.5467 44.1972 83.44 44.4959 83.44C44.7945 83.44 45.0452 83.5413 45.2479 83.744C45.4505 83.9467 45.5519 84.208 45.5519 84.528C45.5519 84.848 45.4452 85.1147 45.2319 85.328C45.0292 85.5307 44.7839 85.632 44.4959 85.632ZM44.4959 92.096C44.1972 92.096 43.9412 91.9947 43.7279 91.792C43.5145 91.5787 43.4079 91.312 43.4079 90.992C43.4079 90.6827 43.5145 90.4267 43.7279 90.224C43.9412 90.0107 44.1972 89.904 44.4959 89.904C44.7945 89.904 45.0452 90.0053 45.2479 90.208C45.4505 90.4107 45.5519 90.672 45.5519 90.992C45.5519 91.312 45.4452 91.5787 45.2319 91.792C45.0292 91.9947 44.7839 92.096 44.4959 92.096ZM46.8089 95.104C47.4489 93.984 47.9182 92.8107 48.2169 91.584C48.5262 90.3573 48.6809 89.0347 48.6809 87.616C48.6809 86.1973 48.5262 84.8747 48.2169 83.648C47.9182 82.4213 47.4489 81.248 46.8089 80.128H48.2649C48.8835 81.088 49.3582 82.208 49.6889 83.488C50.0195 84.768 50.1849 86.144 50.1849 87.616C50.1849 89.0773 50.0195 90.448 49.6889 91.728C49.3582 93.008 48.8835 94.1333 48.2649 95.104H46.8089ZM10.912 120.8L5.936 130.032C5.54133 130.768 5.07733 131.317 4.544 131.68C4.01067 132.043 3.42933 132.224 2.8 132.224C2.30933 132.224 1.808 132.112 1.296 131.888L1.712 130.608C2.10667 130.747 2.45867 130.816 2.768 130.816C3.472 130.816 4.05333 130.443 4.512 129.696L4.768 129.296L0.256 120.8H1.968L5.6 127.904L9.328 120.8H10.912ZM21.1745 130.656V133.968H19.7345V132H12.6465V133.968H11.1905V130.656H11.6385C12.1825 130.624 12.5558 130.24 12.7585 129.504C12.9612 128.768 13.0998 127.728 13.1745 126.384L13.3025 123.52H19.8785V130.656H21.1745ZM14.5825 126.496C14.5398 127.563 14.4492 128.448 14.3105 129.152C14.1825 129.845 13.9425 130.347 13.5905 130.656H18.3425V124.864H14.6625L14.5825 126.496ZM26.1995 123.44C27.3728 123.44 28.2688 123.728 28.8875 124.304C29.5168 124.88 29.8315 125.739 29.8315 126.88V132H28.3755V130.88C28.1195 131.275 27.7515 131.579 27.2715 131.792C26.8022 131.995 26.2422 132.096 25.5915 132.096C24.6422 132.096 23.8795 131.867 23.3035 131.408C22.7382 130.949 22.4555 130.347 22.4555 129.6C22.4555 128.853 22.7275 128.256 23.2715 127.808C23.8155 127.349 24.6795 127.12 25.8635 127.12H28.2955V126.816C28.2955 126.155 28.1035 125.648 27.7195 125.296C27.3355 124.944 26.7702 124.768 26.0235 124.768C25.5222 124.768 25.0315 124.853 24.5515 125.024C24.0715 125.184 23.6662 125.403 23.3355 125.68L22.6955 124.528C23.1328 124.176 23.6555 123.909 24.2635 123.728C24.8715 123.536 25.5168 123.44 26.1995 123.44ZM25.8475 130.912C26.4342 130.912 26.9408 130.784 27.3675 130.528C27.7942 130.261 28.1035 129.888 28.2955 129.408V128.224H25.9275C24.6262 128.224 23.9755 128.661 23.9755 129.536C23.9755 129.963 24.1408 130.299 24.4715 130.544C24.8022 130.789 25.2608 130.912 25.8475 130.912ZM39.3654 123.52V132H37.8294V128.576C36.912 129.003 36 129.216 35.0934 129.216C34.0374 129.216 33.2214 128.971 32.6454 128.48C32.0694 127.989 31.7814 127.253 31.7814 126.272V123.52H33.3174V126.176C33.3174 126.763 33.4987 127.205 33.8614 127.504C34.2347 127.803 34.752 127.952 35.4134 127.952C36.16 127.952 36.9654 127.765 37.8294 127.392V123.52H39.3654ZM42.3474 123.52H43.8834V129.696L49.0834 123.52H50.4754V132H48.9394V125.824L43.7554 132H42.3474V123.52ZM53.2168 120.8H55.0248L54.7208 128.464H53.5048L53.2168 120.8ZM54.1288 132.096C53.8301 132.096 53.5794 132 53.3768 131.808C53.1741 131.605 53.0728 131.36 53.0728 131.072C53.0728 130.784 53.1741 130.544 53.3768 130.352C53.5794 130.149 53.8301 130.048 54.1288 130.048C54.4274 130.048 54.6728 130.149 54.8648 130.352C55.0568 130.544 55.1528 130.784 55.1528 131.072C55.1528 131.36 55.0514 131.605 54.8488 131.808C54.6568 132 54.4168 132.096 54.1288 132.096Z" fill="black"/>
</svg>
