<svg width="344" height="147" viewBox="0 0 344 147" fill="none" xmlns="http://www.w3.org/2000/svg">
<path d="M16.6495 2.65288V19.4529H13.5775V5.29288H4.86548V19.4529H1.79348V2.65288H16.6495ZM26.7627 19.6209C25.4667 19.6209 24.2987 19.3409 23.2587 18.7809C22.2187 18.2209 21.4027 17.4449 20.8107 16.4529C20.2347 15.4449 19.9467 14.3089 19.9467 13.0449C19.9467 11.7809 20.2347 10.6529 20.8107 9.66088C21.4027 8.66888 22.2187 7.89288 23.2587 7.33288C24.2987 6.77288 25.4667 6.49288 26.7627 6.49288C28.0747 6.49288 29.2507 6.77288 30.2907 7.33288C31.3307 7.89288 32.1387 8.66888 32.7147 9.66088C33.3067 10.6529 33.6027 11.7809 33.6027 13.0449C33.6027 14.3089 33.3067 15.4449 32.7147 16.4529C32.1387 17.4449 31.3307 18.2209 30.2907 18.7809C29.2507 19.3409 28.0747 19.6209 26.7627 19.6209ZM26.7627 17.0529C27.8667 17.0529 28.7787 16.6849 29.4987 15.9489C30.2187 15.2129 30.5787 14.2449 30.5787 13.0449C30.5787 11.8449 30.2187 10.8769 29.4987 10.1409C28.7787 9.40488 27.8667 9.03688 26.7627 9.03688C25.6587 9.03688 24.7467 9.40488 24.0267 10.1409C23.3227 10.8769 22.9707 11.8449 22.9707 13.0449C22.9707 14.2449 23.3227 15.2129 24.0267 15.9489C24.7467 16.6849 25.6587 17.0529 26.7627 17.0529ZM49.1663 19.4529V10.9569L44.8463 18.1089H43.5503L39.3023 10.9329V19.4529H36.5663V6.63688H39.7103L44.2703 14.6529L49.0463 6.63688H51.8543L51.8783 19.4529H49.1663ZM61.6142 19.6209C60.3182 19.6209 59.1502 19.3409 58.1102 18.7809C57.0702 18.2209 56.2542 17.4449 55.6622 16.4529C55.0862 15.4449 54.7982 14.3089 54.7982 13.0449C54.7982 11.7809 55.0862 10.6529 55.6622 9.66088C56.2542 8.66888 57.0702 7.89288 58.1102 7.33288C59.1502 6.77288 60.3182 6.49288 61.6142 6.49288C62.9262 6.49288 64.1022 6.77288 65.1422 7.33288C66.1822 7.89288 66.9902 8.66888 67.5662 9.66088C68.1582 10.6529 68.4542 11.7809 68.4542 13.0449C68.4542 14.3089 68.1582 15.4449 67.5662 16.4529C66.9902 17.4449 66.1822 18.2209 65.1422 18.7809C64.1022 19.3409 62.9262 19.6209 61.6142 19.6209ZM61.6142 17.0529C62.7182 17.0529 63.6302 16.6849 64.3502 15.9489C65.0702 15.2129 65.4302 14.2449 65.4302 13.0449C65.4302 11.8449 65.0702 10.8769 64.3502 10.1409C63.6302 9.40488 62.7182 9.03688 61.6142 9.03688C60.5102 9.03688 59.5982 9.40488 58.8782 10.1409C58.1742 10.8769 57.8222 11.8449 57.8222 13.0449C57.8222 14.2449 58.1742 15.2129 58.8782 15.9489C59.5982 16.6849 60.5102 17.0529 61.6142 17.0529ZM82.2899 6.63688V19.4529H79.2899V14.4849C78.0579 15.0769 76.7699 15.3729 75.4259 15.3729C73.7779 15.3729 72.5139 14.9969 71.6339 14.2449C70.7539 13.4769 70.3139 12.3089 70.3139 10.7409V6.63688H73.3139V10.5489C73.3139 11.3649 73.5539 11.9729 74.0339 12.3729C74.5139 12.7729 75.1939 12.9729 76.0739 12.9729C77.1939 12.9729 78.2659 12.7329 79.2899 12.2529V6.63688H82.2899ZM92.7561 10.8609C94.3881 10.8609 95.6361 11.2289 96.5001 11.9649C97.3801 12.7009 97.8201 13.7409 97.8201 15.0849C97.8201 16.4929 97.3401 17.5809 96.3801 18.3489C95.4201 19.1169 94.0681 19.4929 92.3241 19.4769L86.3241 19.4529V6.63688H89.3241V10.8369L92.7561 10.8609ZM92.0601 17.2689C92.9401 17.2849 93.6121 17.1009 94.0761 16.7169C94.5401 16.3329 94.7721 15.7729 94.7721 15.0369C94.7721 14.3169 94.5481 13.7889 94.1001 13.4529C93.6521 13.1169 92.9721 12.9409 92.0601 12.9249L89.3241 12.9009V17.2449L92.0601 17.2689ZM112.922 19.6209C111.594 19.6209 110.402 19.3409 109.346 18.7809C108.29 18.2209 107.466 17.4449 106.874 16.4529C106.282 15.4449 105.986 14.3089 105.986 13.0449C105.986 11.7809 106.282 10.6529 106.874 9.66088C107.466 8.66888 108.282 7.89288 109.322 7.33288C110.378 6.77288 111.578 6.49288 112.922 6.49288C114.186 6.49288 115.29 6.74888 116.234 7.26088C117.194 7.77288 117.914 8.50888 118.394 9.46888L116.09 10.8129C115.722 10.2209 115.258 9.78088 114.698 9.49288C114.154 9.18888 113.554 9.03688 112.898 9.03688C111.778 9.03688 110.85 9.40488 110.114 10.1409C109.378 10.8609 109.01 11.8289 109.01 13.0449C109.01 14.2609 109.37 15.2369 110.09 15.9729C110.826 16.6929 111.762 17.0529 112.898 17.0529C113.554 17.0529 114.154 16.9089 114.698 16.6209C115.258 16.3169 115.722 15.8689 116.09 15.2769L118.394 16.6209C117.898 17.5809 117.17 18.3249 116.21 18.8529C115.266 19.3649 114.17 19.6209 112.922 19.6209ZM136.956 12.7809C138.54 13.2609 139.332 14.2849 139.332 15.8529C139.332 17.0049 138.9 17.8929 138.036 18.5169C137.172 19.1409 135.892 19.4529 134.196 19.4529H127.668V6.63688H133.932C135.5 6.63688 136.724 6.92488 137.604 7.50088C138.484 8.07688 138.924 8.89288 138.924 9.94888C138.924 10.6049 138.748 11.1729 138.396 11.6529C138.06 12.1329 137.58 12.5089 136.956 12.7809ZM130.524 11.9889H133.668C135.22 11.9889 135.996 11.4529 135.996 10.3809C135.996 9.34088 135.22 8.82088 133.668 8.82088H130.524V11.9889ZM133.956 17.2689C135.604 17.2689 136.428 16.7329 136.428 15.6609C136.428 15.1009 136.236 14.6849 135.852 14.4129C135.468 14.1249 134.868 13.9809 134.052 13.9809H130.524V17.2689H133.956ZM148.767 10.8609C150.399 10.8609 151.647 11.2289 152.511 11.9649C153.375 12.7009 153.807 13.7409 153.807 15.0849C153.807 16.4929 153.327 17.5809 152.367 18.3489C151.423 19.1169 150.079 19.4929 148.335 19.4769L142.527 19.4529V6.63688H145.527V10.8369L148.767 10.8609ZM155.463 6.63688H158.463V19.4529H155.463V6.63688ZM148.071 17.2689C148.951 17.2849 149.623 17.1009 150.087 16.7169C150.551 16.3329 150.783 15.7729 150.783 15.0369C150.783 14.3169 150.559 13.7889 150.111 13.4529C149.663 13.1169 148.983 12.9409 148.071 12.9249L145.527 12.9009V17.2449L148.071 17.2689ZM169.432 7.26088C170.648 7.26088 171.72 7.52488 172.648 8.05288C173.576 8.56488 174.296 9.28488 174.808 10.2129C175.336 11.1409 175.6 12.2049 175.6 13.4049C175.6 14.6369 175.312 15.7329 174.736 16.6929C174.16 17.6369 173.352 18.3729 172.312 18.9009C171.272 19.4289 170.088 19.6929 168.76 19.6929C166.536 19.6929 164.816 18.9569 163.6 17.4849C162.384 16.0129 161.776 13.8929 161.776 11.1249C161.776 8.54888 162.328 6.50888 163.432 5.00488C164.536 3.50088 166.224 2.50888 168.496 2.02888L174.448 0.75688L174.88 3.44488L169.48 4.54888C167.928 4.86888 166.768 5.41288 166 6.18088C165.232 6.94888 164.784 8.02888 164.656 9.42088C165.232 8.73288 165.928 8.20488 166.744 7.83688C167.56 7.45288 168.456 7.26088 169.432 7.26088ZM168.832 17.2689C169.936 17.2689 170.824 16.9169 171.496 16.2129C172.184 15.4929 172.528 14.5809 172.528 13.4769C172.528 12.3729 172.184 11.4849 171.496 10.8129C170.824 10.1409 169.936 9.80488 168.832 9.80488C167.712 9.80488 166.808 10.1409 166.12 10.8129C165.432 11.4849 165.088 12.3729 165.088 13.4769C165.088 14.5969 165.432 15.5089 166.12 16.2129C166.824 16.9169 167.728 17.2689 168.832 17.2689ZM184.216 19.6209C182.92 19.6209 181.752 19.3409 180.712 18.7809C179.672 18.2209 178.856 17.4449 178.264 16.4529C177.688 15.4449 177.4 14.3089 177.4 13.0449C177.4 11.7809 177.688 10.6529 178.264 9.66088C178.856 8.66888 179.672 7.89288 180.712 7.33288C181.752 6.77288 182.92 6.49288 184.216 6.49288C185.528 6.49288 186.704 6.77288 187.744 7.33288C188.784 7.89288 189.592 8.66888 190.168 9.66088C190.76 10.6529 191.056 11.7809 191.056 13.0449C191.056 14.3089 190.76 15.4449 190.168 16.4529C189.592 17.4449 188.784 18.2209 187.744 18.7809C186.704 19.3409 185.528 19.6209 184.216 19.6209ZM184.216 17.0529C185.32 17.0529 186.232 16.6849 186.952 15.9489C187.672 15.2129 188.032 14.2449 188.032 13.0449C188.032 11.8449 187.672 10.8769 186.952 10.1409C186.232 9.40488 185.32 9.03688 184.216 9.03688C183.112 9.03688 182.2 9.40488 181.48 10.1409C180.776 10.8769 180.424 11.8449 180.424 13.0449C180.424 14.2449 180.776 15.2129 181.48 15.9489C182.2 16.6849 183.112 17.0529 184.216 17.0529ZM201.123 6.49288C202.371 6.49288 203.483 6.76488 204.459 7.30888C205.451 7.85288 206.227 8.62088 206.787 9.61288C207.347 10.6049 207.627 11.7489 207.627 13.0449C207.627 14.3409 207.347 15.4929 206.787 16.5009C206.227 17.4929 205.451 18.2609 204.459 18.8049C203.483 19.3489 202.371 19.6209 201.123 19.6209C199.395 19.6209 198.027 19.0449 197.019 17.8929V24.1089H194.019V6.63688H196.875V8.31688C197.371 7.70888 197.979 7.25288 198.699 6.94888C199.435 6.64488 200.243 6.49288 201.123 6.49288ZM200.787 17.0529C201.891 17.0529 202.795 16.6849 203.499 15.9489C204.219 15.2129 204.579 14.2449 204.579 13.0449C204.579 11.8449 204.219 10.8769 203.499 10.1409C202.795 9.40488 201.891 9.03688 200.787 9.03688C200.067 9.03688 199.419 9.20488 198.843 9.54088C198.267 9.86088 197.811 10.3249 197.475 10.9329C197.139 11.5409 196.971 12.2449 196.971 13.0449C196.971 13.8449 197.139 14.5489 197.475 15.1569C197.811 15.7649 198.267 16.2369 198.843 16.5729C199.419 16.8929 200.067 17.0529 200.787 17.0529ZM216.325 19.6209C215.029 19.6209 213.861 19.3409 212.821 18.7809C211.781 18.2209 210.965 17.4449 210.373 16.4529C209.797 15.4449 209.509 14.3089 209.509 13.0449C209.509 11.7809 209.797 10.6529 210.373 9.66088C210.965 8.66888 211.781 7.89288 212.821 7.33288C213.861 6.77288 215.029 6.49288 216.325 6.49288C217.637 6.49288 218.813 6.77288 219.853 7.33288C220.893 7.89288 221.701 8.66888 222.277 9.66088C222.869 10.6529 223.165 11.7809 223.165 13.0449C223.165 14.3089 222.869 15.4449 222.277 16.4529C221.701 17.4449 220.893 18.2209 219.853 18.7809C218.813 19.3409 217.637 19.6209 216.325 19.6209ZM216.325 17.0529C217.429 17.0529 218.341 16.6849 219.061 15.9489C219.781 15.2129 220.141 14.2449 220.141 13.0449C220.141 11.8449 219.781 10.8769 219.061 10.1409C218.341 9.40488 217.429 9.03688 216.325 9.03688C215.221 9.03688 214.309 9.40488 213.589 10.1409C212.885 10.8769 212.533 11.8449 212.533 13.0449C212.533 14.2449 212.885 15.2129 213.589 15.9489C214.309 16.6849 215.221 17.0529 216.325 17.0529ZM238.729 19.4529V10.9569L234.409 18.1089H233.113L228.865 10.9329V19.4529H226.129V6.63688H229.273L233.833 14.6529L238.609 6.63688H241.417L241.441 19.4529H238.729ZM249.245 13.8849C249.245 13.0209 249.437 12.3089 249.821 11.7489C250.221 11.1729 250.797 10.5489 251.549 9.87688C252.125 9.36488 252.549 8.92488 252.821 8.55688C253.109 8.17288 253.253 7.74088 253.253 7.26088C253.253 6.58888 252.981 6.04488 252.437 5.62888C251.893 5.21288 251.165 5.00488 250.253 5.00488C248.525 5.00488 247.221 5.62088 246.341 6.85288L244.013 5.34088C244.701 4.39688 245.589 3.67688 246.677 3.18088C247.765 2.66888 249.045 2.41288 250.517 2.41288C252.309 2.41288 253.733 2.80488 254.789 3.58888C255.861 4.35688 256.397 5.42088 256.397 6.78088C256.397 7.43688 256.285 8.01288 256.061 8.50888C255.853 9.00488 255.597 9.42888 255.293 9.78088C254.989 10.1169 254.589 10.5089 254.093 10.9569C253.485 11.5009 253.029 11.9809 252.725 12.3969C252.437 12.8129 252.293 13.3089 252.293 13.8849H249.245ZM250.781 19.6209C250.221 19.6209 249.757 19.4449 249.389 19.0929C249.037 18.7249 248.861 18.2769 248.861 17.7489C248.861 17.2209 249.037 16.7809 249.389 16.4289C249.757 16.0769 250.221 15.9009 250.781 15.9009C251.325 15.9009 251.773 16.0769 252.125 16.4289C252.493 16.7809 252.677 17.2209 252.677 17.7489C252.677 18.2769 252.493 18.7249 252.125 19.0929C251.773 19.4449 251.325 19.6209 250.781 19.6209ZM6.20148 65.5809C5.07081 65.5809 4.05215 65.3355 3.14548 64.8449C2.23881 64.3435 1.52415 63.6555 1.00148 62.7809C0.489481 61.9062 0.233481 60.9302 0.233481 59.8529C0.233481 58.7755 0.489481 57.7995 1.00148 56.9249C1.52415 56.0502 2.23881 55.3675 3.14548 54.8769C4.05215 54.3755 5.07081 54.1249 6.20148 54.1249C7.32148 54.1249 8.33481 54.3755 9.24148 54.8769C10.1481 55.3675 10.8575 56.0502 11.3695 56.9249C11.8815 57.7889 12.1375 58.7649 12.1375 59.8529C12.1375 60.9409 11.8815 61.9222 11.3695 62.7969C10.8575 63.6609 10.1481 64.3435 9.24148 64.8449C8.33481 65.3355 7.32148 65.5809 6.20148 65.5809ZM6.20148 64.1569C7.02281 64.1569 7.75881 63.9702 8.40948 63.5969C9.07081 63.2235 9.58815 62.7115 9.96148 62.0609C10.3455 61.3995 10.5375 60.6635 10.5375 59.8529C10.5375 59.0422 10.3455 58.3115 9.96148 57.6609C9.58815 56.9995 9.07081 56.4822 8.40948 56.1089C7.75881 55.7355 7.02281 55.5489 6.20148 55.5489C5.38015 55.5489 4.63348 55.7355 3.96148 56.1089C3.30015 56.4822 2.77748 56.9995 2.39348 57.6609C2.02015 58.3115 1.83348 59.0422 1.83348 59.8529C1.83348 60.6635 2.02015 61.3995 2.39348 62.0609C2.77748 62.7115 3.30015 63.2235 3.96148 63.5969C4.63348 63.9702 5.38015 64.1569 6.20148 64.1569ZM18.164 65.5489C17.3 65.5489 16.5266 65.3622 15.844 64.9889C15.172 64.6155 14.644 64.1035 14.26 63.4529C13.876 62.7915 13.684 62.0449 13.684 61.2129C13.684 60.3809 13.876 59.6395 14.26 58.9889C14.644 58.3275 15.172 57.8155 15.844 57.4529C16.5266 57.0795 17.3 56.8929 18.164 56.8929C18.932 56.8929 19.6146 57.0475 20.212 57.3569C20.82 57.6662 21.2893 58.1142 21.62 58.7009L20.452 59.4529C20.1853 59.0475 19.8546 58.7435 19.46 58.5409C19.0653 58.3382 18.628 58.2369 18.148 58.2369C17.5933 58.2369 17.092 58.3595 16.644 58.6049C16.2066 58.8502 15.86 59.2022 15.604 59.6609C15.3586 60.1089 15.236 60.6262 15.236 61.2129C15.236 61.8102 15.3586 62.3382 15.604 62.7969C15.86 63.2449 16.2066 63.5915 16.644 63.8369C17.092 64.0822 17.5933 64.2049 18.148 64.2049C18.628 64.2049 19.0653 64.1035 19.46 63.9009C19.8546 63.6982 20.1853 63.3942 20.452 62.9889L21.62 63.7249C21.2893 64.3115 20.82 64.7649 20.212 65.0849C19.6146 65.3942 18.932 65.5489 18.164 65.5489ZM29.9286 58.3169H26.8246V65.4529H25.2886V58.3169H22.1846V56.9729H29.9286V58.3169ZM34.5232 56.8929C35.6966 56.8929 36.5926 57.1809 37.2112 57.7569C37.8406 58.3329 38.1552 59.1915 38.1552 60.3329V65.4529H36.6992V64.3329C36.4432 64.7275 36.0752 65.0315 35.5952 65.2449C35.1259 65.4475 34.5659 65.5489 33.9152 65.5489C32.9659 65.5489 32.2032 65.3195 31.6272 64.8609C31.0619 64.4022 30.7792 63.7995 30.7792 63.0529C30.7792 62.3062 31.0512 61.7089 31.5952 61.2609C32.1392 60.8022 33.0032 60.5729 34.1872 60.5729H36.6192V60.2689C36.6192 59.6075 36.4272 59.1009 36.0432 58.7489C35.6592 58.3969 35.0939 58.2209 34.3472 58.2209C33.8459 58.2209 33.3552 58.3062 32.8752 58.4769C32.3952 58.6369 31.9899 58.8555 31.6592 59.1329L31.0192 57.9809C31.4566 57.6289 31.9792 57.3622 32.5872 57.1809C33.1952 56.9889 33.8406 56.8929 34.5232 56.8929ZM34.1712 64.3649C34.7579 64.3649 35.2646 64.2369 35.6912 63.9809C36.1179 63.7142 36.4272 63.3409 36.6192 62.8609V61.6769H34.2512C32.9499 61.6769 32.2992 62.1142 32.2992 62.9889C32.2992 63.4155 32.4646 63.7515 32.7952 63.9969C33.1259 64.2422 33.5846 64.3649 34.1712 64.3649ZM46.6971 61.0529C47.7958 61.3302 48.3451 62.0182 48.3451 63.1169C48.3451 63.8635 48.0624 64.4395 47.4971 64.8449C46.9424 65.2502 46.1104 65.4529 45.0011 65.4529H40.9211V56.9729H44.8571C45.8598 56.9729 46.6438 57.1649 47.2091 57.5489C47.7744 57.9222 48.0571 58.4555 48.0571 59.1489C48.0571 59.5969 47.9344 59.9862 47.6891 60.3169C47.4544 60.6369 47.1238 60.8822 46.6971 61.0529ZM42.4251 60.6209H44.7291C45.3158 60.6209 45.7584 60.5142 46.0571 60.3009C46.3664 60.0875 46.5211 59.7782 46.5211 59.3729C46.5211 58.5622 45.9238 58.1569 44.7291 58.1569H42.4251V60.6209ZM44.8891 64.2689C45.5291 64.2689 46.0091 64.1675 46.3291 63.9649C46.6491 63.7622 46.8091 63.4475 46.8091 63.0209C46.8091 62.5835 46.6598 62.2582 46.3611 62.0449C46.0731 61.8315 45.6144 61.7249 44.9851 61.7249H42.4251V64.2689H44.8891ZM54.6692 59.8529C55.7466 59.8635 56.5679 60.1089 57.1332 60.5889C57.6986 61.0689 57.9812 61.7462 57.9812 62.6209C57.9812 63.5382 57.6719 64.2475 57.0532 64.7489C56.4452 65.2395 55.5706 65.4795 54.4292 65.4689L50.7492 65.4529V56.9729H52.2852V59.8369L54.6692 59.8529ZM54.3012 64.3009C54.9946 64.3115 55.5172 64.1729 55.8692 63.8849C56.2319 63.5969 56.4132 63.1702 56.4132 62.6049C56.4132 62.0502 56.2372 61.6449 55.8852 61.3889C55.5439 61.1329 55.0159 60.9995 54.3012 60.9889L52.2852 60.9569V64.2849L54.3012 64.3009ZM66.2724 58.3169H63.1684V65.4529H61.6324V58.3169H58.5284V56.9729H66.2724V58.3169ZM75.507 61.2609C75.507 61.3782 75.4963 61.5329 75.475 61.7249H68.595C68.691 62.4715 69.0163 63.0742 69.571 63.5329C70.1363 63.9809 70.835 64.2049 71.667 64.2049C72.6803 64.2049 73.4963 63.8635 74.115 63.1809L74.963 64.1729C74.579 64.6209 74.099 64.9622 73.523 65.1969C72.9576 65.4315 72.323 65.5489 71.619 65.5489C70.723 65.5489 69.9283 65.3675 69.235 65.0049C68.5416 64.6315 68.003 64.1142 67.619 63.4529C67.2456 62.7915 67.059 62.0449 67.059 61.2129C67.059 60.3915 67.2403 59.6502 67.603 58.9889C67.9763 58.3275 68.483 57.8155 69.123 57.4529C69.7736 57.0795 70.5043 56.8929 71.315 56.8929C72.1256 56.8929 72.8456 57.0795 73.475 57.4529C74.115 57.8155 74.611 58.3275 74.963 58.9889C75.3256 59.6502 75.507 60.4075 75.507 61.2609ZM71.315 58.1889C70.579 58.1889 69.9603 58.4129 69.459 58.8609C68.9683 59.3089 68.6803 59.8955 68.595 60.6209H74.035C73.9496 59.9062 73.6563 59.3249 73.155 58.8769C72.6643 58.4182 72.051 58.1889 71.315 58.1889ZM86.7787 61.0369C87.3441 61.1862 87.7814 61.4262 88.0907 61.7569C88.4001 62.0875 88.5547 62.4982 88.5547 62.9889C88.5547 63.4902 88.3841 63.9382 88.0427 64.3329C87.7014 64.7169 87.2267 65.0209 86.6187 65.2449C86.0214 65.4582 85.3494 65.5649 84.6027 65.5649C83.9734 65.5649 83.3547 65.4849 82.7467 65.3249C82.1494 65.1542 81.6161 64.9142 81.1467 64.6049L81.6107 63.4369C82.0161 63.6929 82.4801 63.8955 83.0027 64.0449C83.5254 64.1835 84.0534 64.2529 84.5867 64.2529C85.3121 64.2529 85.8881 64.1302 86.3147 63.8849C86.7521 63.6289 86.9707 63.2875 86.9707 62.8609C86.9707 62.4662 86.7947 62.1622 86.4427 61.9489C86.1014 61.7355 85.6161 61.6289 84.9867 61.6289H83.4347V60.5249H84.8747C85.4507 60.5249 85.9041 60.4235 86.2347 60.2209C86.5654 60.0182 86.7307 59.7409 86.7307 59.3889C86.7307 59.0049 86.5334 58.7062 86.1387 58.4929C85.7547 58.2795 85.2321 58.1729 84.5707 58.1729C83.7281 58.1729 82.8374 58.3915 81.8987 58.8289L81.4827 57.6449C82.5174 57.1222 83.6001 56.8609 84.7307 56.8609C85.4134 56.8609 86.0267 56.9569 86.5707 57.1489C87.1147 57.3409 87.5414 57.6129 87.8507 57.9649C88.1601 58.3169 88.3147 58.7169 88.3147 59.1649C88.3147 59.5809 88.1761 59.9542 87.8987 60.2849C87.6214 60.6155 87.2481 60.8662 86.7787 61.0369ZM93.9139 56.8929C95.0872 56.8929 95.9832 57.1809 96.6019 57.7569C97.2312 58.3329 97.5459 59.1915 97.5459 60.3329V65.4529H96.0899V64.3329C95.8339 64.7275 95.4659 65.0315 94.9859 65.2449C94.5165 65.4475 93.9565 65.5489 93.3059 65.5489C92.3565 65.5489 91.5939 65.3195 91.0179 64.8609C90.4525 64.4022 90.1699 63.7995 90.1699 63.0529C90.1699 62.3062 90.4419 61.7089 90.9859 61.2609C91.5299 60.8022 92.3939 60.5729 93.5779 60.5729H96.0099V60.2689C96.0099 59.6075 95.8179 59.1009 95.4339 58.7489C95.0499 58.3969 94.4845 58.2209 93.7379 58.2209C93.2365 58.2209 92.7459 58.3062 92.2659 58.4769C91.7859 58.6369 91.3805 58.8555 91.0499 59.1329L90.4099 57.9809C90.8472 57.6289 91.3699 57.3622 91.9779 57.1809C92.5859 56.9889 93.2312 56.8929 93.9139 56.8929ZM93.5619 64.3649C94.1485 64.3649 94.6552 64.2369 95.0819 63.9809C95.5085 63.7142 95.8179 63.3409 96.0099 62.8609V61.6769H93.6419C92.3405 61.6769 91.6899 62.1142 91.6899 62.9889C91.6899 63.4155 91.8552 63.7515 92.1859 63.9969C92.5165 64.2422 92.9752 64.3649 93.5619 64.3649ZM107.112 56.9729V65.4529H105.736V62.7649H103.272H103.096L101.24 65.4529H99.5917L101.656 62.5569C101.016 62.3649 100.525 62.0502 100.184 61.6129C99.8424 61.1649 99.6717 60.6102 99.6717 59.9489C99.6717 58.9782 100.002 58.2422 100.664 57.7409C101.325 57.2289 102.237 56.9729 103.4 56.9729H107.112ZM101.24 59.9969C101.24 60.5622 101.416 60.9835 101.768 61.2609C102.13 61.5275 102.669 61.6609 103.384 61.6609H105.736V58.3169H103.448C101.976 58.3169 101.24 58.8769 101.24 59.9969ZM115.885 61.0529C116.983 61.3302 117.533 62.0182 117.533 63.1169C117.533 63.8635 117.25 64.4395 116.685 64.8449C116.13 65.2502 115.298 65.4529 114.189 65.4529H110.109V56.9729H114.045C115.047 56.9729 115.831 57.1649 116.397 57.5489C116.962 57.9222 117.245 58.4555 117.245 59.1489C117.245 59.5969 117.122 59.9862 116.877 60.3169C116.642 60.6369 116.311 60.8822 115.885 61.0529ZM111.613 60.6209H113.917C114.503 60.6209 114.946 60.5142 115.245 60.3009C115.554 60.0875 115.709 59.7782 115.709 59.3729C115.709 58.5622 115.111 58.1569 113.917 58.1569H111.613V60.6209ZM114.077 64.2689C114.717 64.2689 115.197 64.1675 115.517 63.9649C115.837 63.7622 115.997 63.4475 115.997 63.0209C115.997 62.5835 115.847 62.2582 115.549 62.0449C115.261 61.8315 114.802 61.7249 114.173 61.7249H111.613V64.2689H114.077ZM123.233 61.8689H121.473V65.4529H119.937V56.9729H121.473V60.5569H123.265L126.017 56.9729H127.665L124.449 61.0529L127.889 65.4529H126.081L123.233 61.8689ZM137.067 56.9729L132.955 66.3009C132.593 67.1649 132.166 67.7729 131.675 68.1249C131.195 68.4769 130.614 68.6529 129.931 68.6529C129.515 68.6529 129.11 68.5835 128.715 68.4449C128.331 68.3169 128.011 68.1249 127.755 67.8689L128.411 66.7169C128.849 67.1329 129.355 67.3409 129.931 67.3409C130.305 67.3409 130.614 67.2395 130.859 67.0369C131.115 66.8449 131.345 66.5089 131.547 66.0289L131.819 65.4369L128.075 56.9729H129.675L132.635 63.7569L135.563 56.9729H137.067ZM142.937 56.9729H144.473V63.1489L149.673 56.9729H151.065V65.4529H149.529V59.2769L144.345 65.4529H142.937V56.9729ZM158.343 56.9729H159.879V60.5729H164.711V56.9729H166.247V65.4529H164.711V61.9009H159.879V65.4529H158.343V56.9729ZM172.258 56.8929C173.431 56.8929 174.327 57.1809 174.946 57.7569C175.575 58.3329 175.89 59.1915 175.89 60.3329V65.4529H174.434V64.3329C174.178 64.7275 173.81 65.0315 173.33 65.2449C172.86 65.4475 172.3 65.5489 171.65 65.5489C170.7 65.5489 169.938 65.3195 169.362 64.8609C168.796 64.4022 168.514 63.7995 168.514 63.0529C168.514 62.3062 168.786 61.7089 169.33 61.2609C169.874 60.8022 170.738 60.5729 171.922 60.5729H174.354V60.2689C174.354 59.6075 174.162 59.1009 173.778 58.7489C173.394 58.3969 172.828 58.2209 172.082 58.2209C171.58 58.2209 171.09 58.3062 170.61 58.4769C170.13 58.6369 169.724 58.8555 169.394 59.1329L168.754 57.9809C169.191 57.6289 169.714 57.3622 170.322 57.1809C170.93 56.9889 171.575 56.8929 172.258 56.8929ZM171.906 64.3649C172.492 64.3649 172.999 64.2369 173.426 63.9809C173.852 63.7142 174.162 63.3409 174.354 62.8609V61.6769H171.986C170.684 61.6769 170.034 62.1142 170.034 62.9889C170.034 63.4155 170.199 63.7515 170.53 63.9969C170.86 64.2422 171.319 64.3649 171.906 64.3649ZM190.735 56.9729V65.4529H178.655V56.9729H180.191V64.1089H183.935V56.9729H185.471V64.1089H189.199V56.9729H190.735ZM193.718 56.9729H195.254V63.1489L200.454 56.9729H201.846V65.4529H200.31V59.2769L195.126 65.4529H193.718V56.9729ZM212.82 65.5489C211.956 65.5489 211.183 65.3622 210.5 64.9889C209.828 64.6155 209.3 64.1035 208.916 63.4529C208.532 62.7915 208.34 62.0449 208.34 61.2129C208.34 60.3809 208.532 59.6395 208.916 58.9889C209.3 58.3275 209.828 57.8155 210.5 57.4529C211.183 57.0795 211.956 56.8929 212.82 56.8929C213.588 56.8929 214.271 57.0475 214.868 57.3569C215.476 57.6662 215.946 58.1142 216.276 58.7009L215.108 59.4529C214.842 59.0475 214.511 58.7435 214.116 58.5409C213.722 58.3382 213.284 58.2369 212.804 58.2369C212.25 58.2369 211.748 58.3595 211.3 58.6049C210.863 58.8502 210.516 59.2022 210.26 59.6609C210.015 60.1089 209.892 60.6262 209.892 61.2129C209.892 61.8102 210.015 62.3382 210.26 62.7969C210.516 63.2449 210.863 63.5915 211.3 63.8369C211.748 64.0822 212.25 64.2049 212.804 64.2049C213.284 64.2049 213.722 64.1035 214.116 63.9009C214.511 63.6982 214.842 63.3942 215.108 62.9889L216.276 63.7249C215.946 64.3115 215.476 64.7649 214.868 65.0849C214.271 65.3942 213.588 65.5489 212.82 65.5489ZM226.121 56.9729V65.4529H224.585V58.3169H219.801V65.4529H218.265V56.9729H226.121ZM236.757 61.2609C236.757 61.3782 236.746 61.5329 236.725 61.7249H229.845C229.941 62.4715 230.266 63.0742 230.821 63.5329C231.386 63.9809 232.085 64.2049 232.917 64.2049C233.93 64.2049 234.746 63.8635 235.365 63.1809L236.213 64.1729C235.829 64.6209 235.349 64.9622 234.773 65.1969C234.208 65.4315 233.573 65.5489 232.869 65.5489C231.973 65.5489 231.178 65.3675 230.485 65.0049C229.792 64.6315 229.253 64.1142 228.869 63.4529C228.496 62.7915 228.309 62.0449 228.309 61.2129C228.309 60.3915 228.49 59.6502 228.853 58.9889C229.226 58.3275 229.733 57.8155 230.373 57.4529C231.024 57.0795 231.754 56.8929 232.565 56.8929C233.376 56.8929 234.096 57.0795 234.725 57.4529C235.365 57.8155 235.861 58.3275 236.213 58.9889C236.576 59.6502 236.757 60.4075 236.757 61.2609ZM232.565 58.1889C231.829 58.1889 231.21 58.4129 230.709 58.8609C230.218 59.3089 229.93 59.8955 229.845 60.6209H235.285C235.2 59.9062 234.906 59.3249 234.405 58.8769C233.914 58.4182 233.301 58.1889 232.565 58.1889ZM248.196 64.1089V67.4849H246.74V65.4529H239.14V56.9729H240.676V64.1089H245.316V56.9729H246.852V64.1089H248.196ZM250.187 56.9729H251.723V63.1489L256.923 56.9729H258.315V65.4529H256.779V59.2769L251.595 65.4529H250.187V56.9729ZM264.32 56.8929C265.493 56.8929 266.389 57.1809 267.008 57.7569C267.637 58.3329 267.952 59.1915 267.952 60.3329V65.4529H266.496V64.3329C266.24 64.7275 265.872 65.0315 265.392 65.2449C264.923 65.4475 264.363 65.5489 263.712 65.5489C262.763 65.5489 262 65.3195 261.424 64.8609C260.859 64.4022 260.576 63.7995 260.576 63.0529C260.576 62.3062 260.848 61.7089 261.392 61.2609C261.936 60.8022 262.8 60.5729 263.984 60.5729H266.416V60.2689C266.416 59.6075 266.224 59.1009 265.84 58.7489C265.456 58.3969 264.891 58.2209 264.144 58.2209C263.643 58.2209 263.152 58.3062 262.672 58.4769C262.192 58.6369 261.787 58.8555 261.456 59.1329L260.816 57.9809C261.253 57.6289 261.776 57.3622 262.384 57.1809C262.992 56.9889 263.637 56.8929 264.32 56.8929ZM263.968 64.3649C264.555 64.3649 265.061 64.2369 265.488 63.9809C265.915 63.7142 266.224 63.3409 266.416 62.8609V61.6769H264.048C262.747 61.6769 262.096 62.1142 262.096 62.9889C262.096 63.4155 262.261 63.7515 262.592 63.9969C262.923 64.2422 263.381 64.3649 263.968 64.3649ZM277.998 56.9729V65.4529H276.462V58.3169H272.814L272.718 60.2049C272.665 61.3462 272.563 62.3009 272.414 63.0689C272.265 63.8262 272.019 64.4342 271.678 64.8929C271.337 65.3515 270.862 65.5809 270.254 65.5809C269.977 65.5809 269.662 65.5329 269.31 65.4369L269.406 64.1409C269.545 64.1729 269.673 64.1889 269.79 64.1889C270.217 64.1889 270.537 64.0022 270.75 63.6289C270.963 63.2555 271.102 62.8129 271.166 62.3009C271.23 61.7889 271.289 61.0582 271.342 60.1089L271.486 56.9729H277.998ZM280.968 56.9729H282.504V63.1489L287.704 56.9729H289.096V65.4529H287.56V59.2769L282.376 65.4529H280.968V56.9729ZM295.773 65.5489C294.909 65.5489 294.136 65.3622 293.453 64.9889C292.781 64.6155 292.253 64.1035 291.869 63.4529C291.485 62.7915 291.293 62.0449 291.293 61.2129C291.293 60.3809 291.485 59.6395 291.869 58.9889C292.253 58.3275 292.781 57.8155 293.453 57.4529C294.136 57.0795 294.909 56.8929 295.773 56.8929C296.541 56.8929 297.224 57.0475 297.821 57.3569C298.429 57.6662 298.899 58.1142 299.229 58.7009L298.061 59.4529C297.795 59.0475 297.464 58.7435 297.069 58.5409C296.675 58.3382 296.237 58.2369 295.757 58.2369C295.203 58.2369 294.701 58.3595 294.253 58.6049C293.816 58.8502 293.469 59.2022 293.213 59.6609C292.968 60.1089 292.845 60.6262 292.845 61.2129C292.845 61.8102 292.968 62.3382 293.213 62.7969C293.469 63.2449 293.816 63.5915 294.253 63.8369C294.701 64.0822 295.203 64.2049 295.757 64.2049C296.237 64.2049 296.675 64.1035 297.069 63.9009C297.464 63.6982 297.795 63.3942 298.061 62.9889L299.229 63.7249C298.899 64.3115 298.429 64.7649 297.821 65.0849C297.224 65.3942 296.541 65.5489 295.773 65.5489ZM307.429 58.3169H304.325V65.4529H302.789V58.3169H299.685V56.9729H307.429V58.3169ZM312.823 59.8529C313.89 59.8635 314.706 60.1089 315.271 60.5889C315.837 61.0689 316.119 61.7462 316.119 62.6209C316.119 63.5382 315.81 64.2475 315.191 64.7489C314.583 65.2395 313.709 65.4795 312.567 65.4689L308.999 65.4529V56.9729H310.535V59.8369L312.823 59.8529ZM317.383 56.9729H318.919V65.4529H317.383V56.9729ZM312.455 64.3009C313.149 64.3115 313.671 64.1729 314.023 63.8849C314.386 63.5969 314.567 63.1702 314.567 62.6049C314.567 62.0502 314.391 61.6449 314.039 61.3889C313.687 61.1329 313.159 60.9995 312.455 60.9889L310.535 60.9569V64.2849L312.455 64.3009ZM4.60148 91.5489C3.73748 91.5489 2.96415 91.3622 2.28148 90.9889C1.60948 90.6155 1.08148 90.1035 0.697481 89.4529C0.313481 88.7915 0.121481 88.0449 0.121481 87.2129C0.121481 86.3809 0.313481 85.6395 0.697481 84.9889C1.08148 84.3275 1.60948 83.8155 2.28148 83.4529C2.96415 83.0795 3.73748 82.8929 4.60148 82.8929C5.36948 82.8929 6.05215 83.0475 6.64948 83.3569C7.25748 83.6662 7.72681 84.1142 8.05748 84.7009L6.88948 85.4529C6.62281 85.0475 6.29215 84.7435 5.89748 84.5409C5.50281 84.3382 5.06548 84.2369 4.58548 84.2369C4.03081 84.2369 3.52948 84.3595 3.08148 84.6049C2.64415 84.8502 2.29748 85.2022 2.04148 85.6609C1.79615 86.1089 1.67348 86.6262 1.67348 87.2129C1.67348 87.8102 1.79615 88.3382 2.04148 88.7969C2.29748 89.2449 2.64415 89.5915 3.08148 89.8369C3.52948 90.0822 4.03081 90.2049 4.58548 90.2049C5.06548 90.2049 5.50281 90.1035 5.89748 89.9009C6.29215 89.6982 6.62281 89.3942 6.88948 88.9889L8.05748 89.7249C7.72681 90.3115 7.25748 90.7649 6.64948 91.0849C6.05215 91.3942 5.36948 91.5489 4.60148 91.5489ZM15.8221 87.0529C16.9208 87.3302 17.4701 88.0182 17.4701 89.1169C17.4701 89.8635 17.1874 90.4395 16.6221 90.8449C16.0674 91.2502 15.2354 91.4529 14.1261 91.4529H10.0461V82.9729H13.9821C14.9848 82.9729 15.7688 83.1649 16.3341 83.5489C16.8994 83.9222 17.1821 84.4555 17.1821 85.1489C17.1821 85.5969 17.0594 85.9862 16.8141 86.3169C16.5794 86.6369 16.2488 86.8822 15.8221 87.0529ZM11.5501 86.6209H13.8541C14.4408 86.6209 14.8834 86.5142 15.1821 86.3009C15.4914 86.0875 15.6461 85.7782 15.6461 85.3729C15.6461 84.5622 15.0488 84.1569 13.8541 84.1569H11.5501V86.6209ZM14.0141 90.2689C14.6541 90.2689 15.1341 90.1675 15.4541 89.9649C15.7741 89.7622 15.9341 89.4475 15.9341 89.0209C15.9341 88.5835 15.7848 88.2582 15.4861 88.0449C15.1981 87.8315 14.7394 87.7249 14.1101 87.7249H11.5501V90.2689H14.0141ZM26.6742 82.9729V91.4529H25.2982V88.7649H22.8342H22.6582L20.8022 91.4529H19.1542L21.2182 88.5569C20.5782 88.3649 20.0876 88.0502 19.7462 87.6129C19.4049 87.1649 19.2342 86.6102 19.2342 85.9489C19.2342 84.9782 19.5649 84.2422 20.2262 83.7409C20.8876 83.2289 21.7996 82.9729 22.9622 82.9729H26.6742ZM20.8022 85.9969C20.8022 86.5622 20.9782 86.9835 21.3302 87.2609C21.6929 87.5275 22.2316 87.6609 22.9462 87.6609H25.2982V84.3169H23.0102C21.5382 84.3169 20.8022 84.8769 20.8022 85.9969ZM37.3831 87.8689H35.7351V91.4529H34.1991V87.8689H32.5511L30.2151 91.4529H28.3911L31.3031 87.0689L28.6151 82.9729H30.2471L32.5351 86.5569H34.1991V82.9729H35.7351V86.5569H37.3991L39.6871 82.9729H41.3351L38.6471 87.0849L41.5591 91.4529H39.7351L37.3831 87.8689ZM50.3329 82.9729L46.2209 92.3009C45.8582 93.1649 45.4315 93.7729 44.9409 94.1249C44.4609 94.4769 43.8795 94.6529 43.1969 94.6529C42.7809 94.6529 42.3755 94.5835 41.9809 94.4449C41.5969 94.3169 41.2769 94.1249 41.0209 93.8689L41.6769 92.7169C42.1142 93.1329 42.6209 93.3409 43.1969 93.3409C43.5702 93.3409 43.8795 93.2395 44.1249 93.0369C44.3809 92.8449 44.6102 92.5089 44.8129 92.0289L45.0849 91.4369L41.3409 82.9729H42.9409L45.9009 89.7569L48.8289 82.9729H50.3329ZM58.2724 84.3169H55.1684V91.4529H53.6324V84.3169H50.5284V82.9729H58.2724V84.3169ZM63.164 91.5489C62.3 91.5489 61.5266 91.3622 60.844 90.9889C60.172 90.6155 59.644 90.1035 59.26 89.4529C58.876 88.7915 58.684 88.0449 58.684 87.2129C58.684 86.3809 58.876 85.6395 59.26 84.9889C59.644 84.3275 60.172 83.8155 60.844 83.4529C61.5266 83.0795 62.3 82.8929 63.164 82.8929C63.932 82.8929 64.6146 83.0475 65.212 83.3569C65.82 83.6662 66.2893 84.1142 66.62 84.7009L65.452 85.4529C65.1853 85.0475 64.8546 84.7435 64.46 84.5409C64.0653 84.3382 63.628 84.2369 63.148 84.2369C62.5933 84.2369 62.092 84.3595 61.644 84.6049C61.2066 84.8502 60.86 85.2022 60.604 85.6609C60.3586 86.1089 60.236 86.6262 60.236 87.2129C60.236 87.8102 60.3586 88.3382 60.604 88.7969C60.86 89.2449 61.2066 89.5915 61.644 89.8369C62.092 90.0822 62.5933 90.2049 63.148 90.2049C63.628 90.2049 64.0653 90.1035 64.46 89.9009C64.8546 89.6982 65.1853 89.3942 65.452 88.9889L66.62 89.7249C66.2893 90.3115 65.82 90.7649 65.212 91.0849C64.6146 91.3942 63.932 91.5489 63.164 91.5489ZM75.143 82.9729V91.4529H73.767V88.7649H71.303H71.127L69.271 91.4529H67.623L69.687 88.5569C69.047 88.3649 68.5563 88.0502 68.215 87.6129C67.8736 87.1649 67.703 86.6102 67.703 85.9489C67.703 84.9782 68.0336 84.2422 68.695 83.7409C69.3563 83.2289 70.2683 82.9729 71.431 82.9729H75.143ZM69.271 85.9969C69.271 86.5622 69.447 86.9835 69.799 87.2609C70.1616 87.5275 70.7003 87.6609 71.415 87.6609H73.767V84.3169H71.479C70.007 84.3169 69.271 84.8769 69.271 85.9969ZM86.1327 91.5489C85.2687 91.5489 84.4954 91.3622 83.8127 90.9889C83.1407 90.6155 82.6127 90.1035 82.2287 89.4529C81.8447 88.7915 81.6527 88.0449 81.6527 87.2129C81.6527 86.3809 81.8447 85.6395 82.2287 84.9889C82.6127 84.3275 83.1407 83.8155 83.8127 83.4529C84.4954 83.0795 85.2687 82.8929 86.1327 82.8929C86.9007 82.8929 87.5834 83.0475 88.1807 83.3569C88.7887 83.6662 89.2581 84.1142 89.5887 84.7009L88.4207 85.4529C88.1541 85.0475 87.8234 84.7435 87.4287 84.5409C87.0341 84.3382 86.5967 84.2369 86.1167 84.2369C85.5621 84.2369 85.0607 84.3595 84.6127 84.6049C84.1754 84.8502 83.8287 85.2022 83.5727 85.6609C83.3274 86.1089 83.2047 86.6262 83.2047 87.2129C83.2047 87.8102 83.3274 88.3382 83.5727 88.7969C83.8287 89.2449 84.1754 89.5915 84.6127 89.8369C85.0607 90.0822 85.5621 90.2049 86.1167 90.2049C86.5967 90.2049 87.0341 90.1035 87.4287 89.9009C87.8234 89.6982 88.1541 89.3942 88.4207 88.9889L89.5887 89.7249C89.2581 90.3115 88.7887 90.7649 88.1807 91.0849C87.5834 91.3942 86.9007 91.5489 86.1327 91.5489ZM101.65 87.0529C102.749 87.3302 103.298 88.0182 103.298 89.1169C103.298 89.8635 103.016 90.4395 102.45 90.8449C101.896 91.2502 101.064 91.4529 99.9542 91.4529H95.8742V82.9729H99.8102C100.813 82.9729 101.597 83.1649 102.162 83.5489C102.728 83.9222 103.01 84.4555 103.01 85.1489C103.01 85.5969 102.888 85.9862 102.642 86.3169C102.408 86.6369 102.077 86.8822 101.65 87.0529ZM97.3782 86.6209H99.6822C100.269 86.6209 100.712 86.5142 101.01 86.3009C101.32 86.0875 101.474 85.7782 101.474 85.3729C101.474 84.5622 100.877 84.1569 99.6822 84.1569H97.3782V86.6209ZM99.8422 90.2689C100.482 90.2689 100.962 90.1675 101.282 89.9649C101.602 89.7622 101.762 89.4475 101.762 89.0209C101.762 88.5835 101.613 88.2582 101.314 88.0449C101.026 87.8315 100.568 87.7249 99.9382 87.7249H97.3782V90.2689H99.8422ZM108.726 82.8929C109.9 82.8929 110.796 83.1809 111.414 83.7569C112.044 84.3329 112.358 85.1915 112.358 86.3329V91.4529H110.902V90.3329C110.646 90.7275 110.278 91.0315 109.798 91.2449C109.329 91.4475 108.769 91.5489 108.118 91.5489C107.169 91.5489 106.406 91.3195 105.83 90.8609C105.265 90.4022 104.982 89.7995 104.982 89.0529C104.982 88.3062 105.254 87.7089 105.798 87.2609C106.342 86.8022 107.206 86.5729 108.39 86.5729H110.822V86.2689C110.822 85.6075 110.63 85.1009 110.246 84.7489C109.862 84.3969 109.297 84.2209 108.55 84.2209C108.049 84.2209 107.558 84.3062 107.078 84.4769C106.598 84.6369 106.193 84.8555 105.862 85.1329L105.222 83.9809C105.66 83.6289 106.182 83.3622 106.79 83.1809C107.398 82.9889 108.044 82.8929 108.726 82.8929ZM108.374 90.3649C108.961 90.3649 109.468 90.2369 109.894 89.9809C110.321 89.7142 110.63 89.3409 110.822 88.8609V87.6769H108.454C107.153 87.6769 106.502 88.1142 106.502 88.9889C106.502 89.4155 106.668 89.7515 106.998 89.9969C107.329 90.2422 107.788 90.3649 108.374 90.3649ZM124.9 82.9729V91.4529H123.508V85.2609L120.34 90.4929H119.668L116.532 85.2449V91.4529H115.124V82.9729H116.708L120.036 88.7009L123.46 82.9729H124.9ZM127.89 82.9729H129.426V89.1489L134.626 82.9729H136.018V91.4529H134.482V85.2769L129.298 91.4529H127.89V82.9729ZM139.351 89.3569C139.65 89.3569 139.895 89.4635 140.087 89.6769C140.29 89.8795 140.391 90.1355 140.391 90.4449C140.391 90.6049 140.37 90.7595 140.327 90.9089C140.295 91.0582 140.226 91.2875 140.119 91.5969L139.367 93.8209H138.359L138.951 91.4369C138.749 91.3622 138.583 91.2395 138.455 91.0689C138.338 90.8875 138.279 90.6795 138.279 90.4449C138.279 90.1249 138.381 89.8635 138.583 89.6609C138.786 89.4582 139.042 89.3569 139.351 89.3569ZM150.553 91.5489C149.71 91.5489 148.953 91.3622 148.281 90.9889C147.609 90.6155 147.081 90.1035 146.697 89.4529C146.324 88.7915 146.137 88.0449 146.137 87.2129C146.137 86.3809 146.324 85.6395 146.697 84.9889C147.081 84.3275 147.609 83.8155 148.281 83.4529C148.953 83.0795 149.71 82.8929 150.553 82.8929C151.396 82.8929 152.148 83.0795 152.809 83.4529C153.481 83.8155 154.004 84.3275 154.377 84.9889C154.761 85.6395 154.953 86.3809 154.953 87.2129C154.953 88.0449 154.761 88.7915 154.377 89.4529C154.004 90.1035 153.481 90.6155 152.809 90.9889C152.148 91.3622 151.396 91.5489 150.553 91.5489ZM150.553 90.2049C151.097 90.2049 151.582 90.0822 152.009 89.8369C152.446 89.5809 152.788 89.2289 153.033 88.7809C153.278 88.3222 153.401 87.7995 153.401 87.2129C153.401 86.6262 153.278 86.1089 153.033 85.6609C152.788 85.2022 152.446 84.8502 152.009 84.6049C151.582 84.3595 151.097 84.2369 150.553 84.2369C150.009 84.2369 149.518 84.3595 149.081 84.6049C148.654 84.8502 148.313 85.2022 148.057 85.6609C147.812 86.1089 147.689 86.6262 147.689 87.2129C147.689 87.7995 147.812 88.3222 148.057 88.7809C148.313 89.2289 148.654 89.5809 149.081 89.8369C149.518 90.0822 150.009 90.2049 150.553 90.2049ZM163.179 84.3169H160.075V91.4529H158.539V84.3169H155.435V82.9729H163.179V84.3169ZM170.525 87.0529C171.624 87.3302 172.173 88.0182 172.173 89.1169C172.173 89.8635 171.891 90.4395 171.325 90.8449C170.771 91.2502 169.939 91.4529 168.829 91.4529H164.749V82.9729H168.685C169.688 82.9729 170.472 83.1649 171.037 83.5489C171.603 83.9222 171.885 84.4555 171.885 85.1489C171.885 85.5969 171.763 85.9862 171.517 86.3169C171.283 86.6369 170.952 86.8822 170.525 87.0529ZM166.253 86.6209H168.557C169.144 86.6209 169.587 86.5142 169.885 86.3009C170.195 86.0875 170.349 85.7782 170.349 85.3729C170.349 84.5622 169.752 84.1569 168.557 84.1569H166.253V86.6209ZM168.717 90.2689C169.357 90.2689 169.837 90.1675 170.157 89.9649C170.477 89.7622 170.637 89.4475 170.637 89.0209C170.637 88.5835 170.488 88.2582 170.189 88.0449C169.901 87.8315 169.443 87.7249 168.813 87.7249H166.253V90.2689H168.717ZM182.241 87.2609C182.241 87.3782 182.231 87.5329 182.209 87.7249H175.329C175.425 88.4715 175.751 89.0742 176.305 89.5329C176.871 89.9809 177.569 90.2049 178.401 90.2049C179.415 90.2049 180.231 89.8635 180.849 89.1809L181.697 90.1729C181.313 90.6209 180.833 90.9622 180.257 91.1969C179.692 91.4315 179.057 91.5489 178.353 91.5489C177.457 91.5489 176.663 91.3675 175.969 91.0049C175.276 90.6315 174.737 90.1142 174.353 89.4529C173.98 88.7915 173.793 88.0449 173.793 87.2129C173.793 86.3915 173.975 85.6502 174.337 84.9889C174.711 84.3275 175.217 83.8155 175.857 83.4529C176.508 83.0795 177.239 82.8929 178.049 82.8929C178.86 82.8929 179.58 83.0795 180.209 83.4529C180.849 83.8155 181.345 84.3275 181.697 84.9889C182.06 85.6502 182.241 86.4075 182.241 87.2609ZM178.049 84.1889C177.313 84.1889 176.695 84.4129 176.193 84.8609C175.703 85.3089 175.415 85.8955 175.329 86.6209H180.769C180.684 85.9062 180.391 85.3249 179.889 84.8769C179.399 84.4182 178.785 84.1889 178.049 84.1889ZM190.585 84.3169H187.481V91.4529H185.945V84.3169H182.841V82.9729H190.585V84.3169ZM198.815 82.9729V91.4529H197.439V88.7649H194.975H194.799L192.943 91.4529H191.295L193.359 88.5569C192.719 88.3649 192.228 88.0502 191.887 87.6129C191.546 87.1649 191.375 86.6102 191.375 85.9489C191.375 84.9782 191.706 84.2422 192.367 83.7409C193.028 83.2289 193.94 82.9729 195.103 82.9729H198.815ZM192.943 85.9969C192.943 86.5622 193.119 86.9835 193.471 87.2609C193.834 87.5275 194.372 87.6609 195.087 87.6609H197.439V84.3169H195.151C193.679 84.3169 192.943 84.8769 192.943 85.9969ZM208.132 84.3169H205.028V91.4529H203.492V84.3169H200.388V82.9729H208.132V84.3169ZM213.999 82.9729H215.535V86.5729H220.367V82.9729H221.903V91.4529H220.367V87.9009H215.535V91.4529H213.999V82.9729ZM227.914 82.8929C229.087 82.8929 229.983 83.1809 230.602 83.7569C231.231 84.3329 231.546 85.1915 231.546 86.3329V91.4529H230.09V90.3329C229.834 90.7275 229.466 91.0315 228.986 91.2449C228.517 91.4475 227.957 91.5489 227.306 91.5489C226.357 91.5489 225.594 91.3195 225.018 90.8609C224.453 90.4022 224.17 89.7995 224.17 89.0529C224.17 88.3062 224.442 87.7089 224.986 87.2609C225.53 86.8022 226.394 86.5729 227.578 86.5729H230.01V86.2689C230.01 85.6075 229.818 85.1009 229.434 84.7489C229.05 84.3969 228.485 84.2209 227.738 84.2209C227.237 84.2209 226.746 84.3062 226.266 84.4769C225.786 84.6369 225.381 84.8555 225.05 85.1329L224.41 83.9809C224.847 83.6289 225.37 83.3622 225.978 83.1809C226.586 82.9889 227.231 82.8929 227.914 82.8929ZM227.562 90.3649C228.149 90.3649 228.655 90.2369 229.082 89.9809C229.509 89.7142 229.818 89.3409 230.01 88.8609V87.6769H227.642C226.341 87.6769 225.69 88.1142 225.69 88.9889C225.69 89.4155 225.855 89.7515 226.186 89.9969C226.517 90.2422 226.975 90.3649 227.562 90.3649ZM244.385 87.0529C245.483 87.3302 246.033 88.0182 246.033 89.1169C246.033 89.8635 245.75 90.4395 245.185 90.8449C244.63 91.2502 243.798 91.4529 242.689 91.4529H238.609V82.9729H242.545C243.547 82.9729 244.331 83.1649 244.897 83.5489C245.462 83.9222 245.745 84.4555 245.745 85.1489C245.745 85.5969 245.622 85.9862 245.377 86.3169C245.142 86.6369 244.811 86.8822 244.385 87.0529ZM240.113 86.6209H242.417C243.003 86.6209 243.446 86.5142 243.745 86.3009C244.054 86.0875 244.209 85.7782 244.209 85.3729C244.209 84.5622 243.611 84.1569 242.417 84.1569H240.113V86.6209ZM242.577 90.2689C243.217 90.2689 243.697 90.1675 244.017 89.9649C244.337 89.7622 244.497 89.4475 244.497 89.0209C244.497 88.5835 244.347 88.2582 244.049 88.0449C243.761 87.8315 243.302 87.7249 242.673 87.7249H240.113V90.2689H242.577ZM252.133 91.5489C251.269 91.5489 250.495 91.3622 249.813 90.9889C249.141 90.6155 248.613 90.1035 248.229 89.4529C247.845 88.7915 247.653 88.0449 247.653 87.2129C247.653 86.3809 247.845 85.6395 248.229 84.9889C248.613 84.3275 249.141 83.8155 249.813 83.4529C250.495 83.0795 251.269 82.8929 252.133 82.8929C252.901 82.8929 253.583 83.0475 254.181 83.3569C254.789 83.6662 255.258 84.1142 255.589 84.7009L254.421 85.4529C254.154 85.0475 253.823 84.7435 253.429 84.5409C253.034 84.3382 252.597 84.2369 252.117 84.2369C251.562 84.2369 251.061 84.3595 250.613 84.6049C250.175 84.8502 249.829 85.2022 249.573 85.6609C249.327 86.1089 249.205 86.6262 249.205 87.2129C249.205 87.8102 249.327 88.3382 249.573 88.7969C249.829 89.2449 250.175 89.5915 250.613 89.8369C251.061 90.0822 251.562 90.2049 252.117 90.2049C252.597 90.2049 253.034 90.1035 253.429 89.9009C253.823 89.6982 254.154 89.3942 254.421 88.9889L255.589 89.7249C255.258 90.3115 254.789 90.7649 254.181 91.0849C253.583 91.3942 252.901 91.5489 252.133 91.5489ZM265.116 87.2609C265.116 87.3782 265.106 87.5329 265.084 87.7249H258.204C258.3 88.4715 258.626 89.0742 259.18 89.5329C259.746 89.9809 260.444 90.2049 261.276 90.2049C262.29 90.2049 263.106 89.8635 263.724 89.1809L264.572 90.1729C264.188 90.6209 263.708 90.9622 263.132 91.1969C262.567 91.4315 261.932 91.5489 261.228 91.5489C260.332 91.5489 259.538 91.3675 258.844 91.0049C258.151 90.6315 257.612 90.1142 257.228 89.4529C256.855 88.7915 256.668 88.0449 256.668 87.2129C256.668 86.3915 256.85 85.6502 257.212 84.9889C257.586 84.3275 258.092 83.8155 258.732 83.4529C259.383 83.0795 260.114 82.8929 260.924 82.8929C261.735 82.8929 262.455 83.0795 263.084 83.4529C263.724 83.8155 264.22 84.3275 264.572 84.9889C264.935 85.6502 265.116 86.4075 265.116 87.2609ZM260.924 84.1889C260.188 84.1889 259.57 84.4129 259.068 84.8609C258.578 85.3089 258.29 85.8955 258.204 86.6209H263.644C263.559 85.9062 263.266 85.3249 262.764 84.8769C262.274 84.4182 261.66 84.1889 260.924 84.1889ZM277.572 87.0529C278.671 87.3302 279.22 88.0182 279.22 89.1169C279.22 89.8635 278.937 90.4395 278.372 90.8449C277.817 91.2502 276.985 91.4529 275.876 91.4529H271.796V82.9729H275.732C276.735 82.9729 277.519 83.1649 278.084 83.5489C278.649 83.9222 278.932 84.4555 278.932 85.1489C278.932 85.5969 278.809 85.9862 278.564 86.3169C278.329 86.6369 277.999 86.8822 277.572 87.0529ZM273.3 86.6209H275.604C276.191 86.6209 276.633 86.5142 276.932 86.3009C277.241 86.0875 277.396 85.7782 277.396 85.3729C277.396 84.5622 276.799 84.1569 275.604 84.1569H273.3V86.6209ZM275.764 90.2689C276.404 90.2689 276.884 90.1675 277.204 89.9649C277.524 89.7622 277.684 89.4475 277.684 89.0209C277.684 88.5835 277.535 88.2582 277.236 88.0449C276.948 87.8315 276.489 87.7249 275.86 87.7249H273.3V90.2689H275.764ZM285.256 91.5489C284.414 91.5489 283.656 91.3622 282.984 90.9889C282.312 90.6155 281.784 90.1035 281.4 89.4529C281.027 88.7915 280.84 88.0449 280.84 87.2129C280.84 86.3809 281.027 85.6395 281.4 84.9889C281.784 84.3275 282.312 83.8155 282.984 83.4529C283.656 83.0795 284.414 82.8929 285.256 82.8929C286.099 82.8929 286.851 83.0795 287.512 83.4529C288.184 83.8155 288.707 84.3275 289.08 84.9889C289.464 85.6395 289.656 86.3809 289.656 87.2129C289.656 88.0449 289.464 88.7915 289.08 89.4529C288.707 90.1035 288.184 90.6155 287.512 90.9889C286.851 91.3622 286.099 91.5489 285.256 91.5489ZM285.256 90.2049C285.8 90.2049 286.286 90.0822 286.712 89.8369C287.15 89.5809 287.491 89.2289 287.736 88.7809C287.982 88.3222 288.104 87.7995 288.104 87.2129C288.104 86.6262 287.982 86.1089 287.736 85.6609C287.491 85.2022 287.15 84.8502 286.712 84.6049C286.286 84.3595 285.8 84.2369 285.256 84.2369C284.712 84.2369 284.222 84.3595 283.784 84.6049C283.358 84.8502 283.016 85.2022 282.76 85.6609C282.515 86.1089 282.392 86.6262 282.392 87.2129C282.392 87.7995 282.515 88.3222 282.76 88.7809C283.016 89.2289 283.358 89.5809 283.784 89.8369C284.222 90.0822 284.712 90.2049 285.256 90.2049ZM299.73 82.9729V91.4529H298.194V84.3169H293.41V91.4529H291.874V82.9729H299.73ZM307.198 82.8929C308.02 82.8929 308.756 83.0742 309.406 83.4369C310.057 83.7995 310.564 84.3062 310.926 84.9569C311.3 85.6075 311.486 86.3595 311.486 87.2129C311.486 88.0662 311.3 88.8235 310.926 89.4849C310.564 90.1355 310.057 90.6422 309.406 91.0049C308.756 91.3675 308.02 91.5489 307.198 91.5489C306.59 91.5489 306.03 91.4315 305.518 91.1969C305.017 90.9622 304.59 90.6209 304.238 90.1729V94.5569H302.702V82.9729H304.174V84.3169C304.516 83.8475 304.948 83.4955 305.47 83.2609C305.993 83.0155 306.569 82.8929 307.198 82.8929ZM307.07 90.2049C307.614 90.2049 308.1 90.0822 308.526 89.8369C308.964 89.5809 309.305 89.2289 309.55 88.7809C309.806 88.3222 309.934 87.7995 309.934 87.2129C309.934 86.6262 309.806 86.1089 309.55 85.6609C309.305 85.2022 308.964 84.8502 308.526 84.6049C308.1 84.3595 307.614 84.2369 307.07 84.2369C306.537 84.2369 306.052 84.3649 305.614 84.6209C305.188 84.8662 304.846 85.2129 304.59 85.6609C304.345 86.1089 304.222 86.6262 304.222 87.2129C304.222 87.7995 304.345 88.3222 304.59 88.7809C304.836 89.2289 305.177 89.5809 305.614 89.8369C306.052 90.0822 306.537 90.2049 307.07 90.2049ZM317.35 91.5489C316.507 91.5489 315.75 91.3622 315.078 90.9889C314.406 90.6155 313.878 90.1035 313.494 89.4529C313.121 88.7915 312.934 88.0449 312.934 87.2129C312.934 86.3809 313.121 85.6395 313.494 84.9889C313.878 84.3275 314.406 83.8155 315.078 83.4529C315.75 83.0795 316.507 82.8929 317.35 82.8929C318.193 82.8929 318.945 83.0795 319.606 83.4529C320.278 83.8155 320.801 84.3275 321.174 84.9889C321.558 85.6395 321.75 86.3809 321.75 87.2129C321.75 88.0449 321.558 88.7915 321.174 89.4529C320.801 90.1035 320.278 90.6155 319.606 90.9889C318.945 91.3622 318.193 91.5489 317.35 91.5489ZM317.35 90.2049C317.894 90.2049 318.379 90.0822 318.806 89.8369C319.243 89.5809 319.585 89.2289 319.83 88.7809C320.075 88.3222 320.198 87.7995 320.198 87.2129C320.198 86.6262 320.075 86.1089 319.83 85.6609C319.585 85.2022 319.243 84.8502 318.806 84.6049C318.379 84.3595 317.894 84.2369 317.35 84.2369C316.806 84.2369 316.315 84.3595 315.878 84.6049C315.451 84.8502 315.11 85.2022 314.854 85.6609C314.609 86.1089 314.486 86.6262 314.486 87.2129C314.486 87.7995 314.609 88.3222 314.854 88.7809C315.11 89.2289 315.451 89.5809 315.878 89.8369C316.315 90.0822 316.806 90.2049 317.35 90.2049ZM327.664 91.5489C326.8 91.5489 326.027 91.3622 325.344 90.9889C324.672 90.6155 324.144 90.1035 323.76 89.4529C323.376 88.7915 323.184 88.0449 323.184 87.2129C323.184 86.3809 323.376 85.6395 323.76 84.9889C324.144 84.3275 324.672 83.8155 325.344 83.4529C326.027 83.0795 326.8 82.8929 327.664 82.8929C328.432 82.8929 329.115 83.0475 329.712 83.3569C330.32 83.6662 330.789 84.1142 331.12 84.7009L329.952 85.4529C329.685 85.0475 329.355 84.7435 328.96 84.5409C328.565 84.3382 328.128 84.2369 327.648 84.2369C327.093 84.2369 326.592 84.3595 326.144 84.6049C325.707 84.8502 325.36 85.2022 325.104 85.6609C324.859 86.1089 324.736 86.6262 324.736 87.2129C324.736 87.8102 324.859 88.3382 325.104 88.7969C325.36 89.2449 325.707 89.5915 326.144 89.8369C326.592 90.0822 327.093 90.2049 327.648 90.2049C328.128 90.2049 328.565 90.1035 328.96 89.9009C329.355 89.6982 329.685 89.3942 329.952 88.9889L331.12 89.7249C330.789 90.3115 330.32 90.7649 329.712 91.0849C329.115 91.3942 328.432 91.5489 327.664 91.5489ZM336.933 85.8529C337.999 85.8635 338.815 86.1089 339.381 86.5889C339.946 87.0689 340.229 87.7462 340.229 88.6209C340.229 89.5382 339.919 90.2475 339.301 90.7489C338.693 91.2395 337.818 91.4795 336.677 91.4689L333.109 91.4529V82.9729H334.645V85.8369L336.933 85.8529ZM341.493 82.9729H343.029V91.4529H341.493V82.9729ZM336.565 90.3009C337.258 90.3115 337.781 90.1729 338.133 89.8849C338.495 89.5969 338.677 89.1702 338.677 88.6049C338.677 88.0502 338.501 87.6449 338.149 87.3889C337.797 87.1329 337.269 86.9995 336.565 86.9889L334.645 86.9569V90.2849L336.565 90.3009ZM0.905481 108.973H2.44148V115.149L7.64148 108.973H9.03348V117.453H7.49748V111.277L2.31348 117.453H0.905481V108.973ZM24.1677 108.973V117.453H22.6317V110.317H17.8477V117.453H16.3117V108.973H24.1677ZM30.7719 117.549C29.9292 117.549 29.1719 117.362 28.4999 116.989C27.8279 116.616 27.2999 116.104 26.9159 115.453C26.5425 114.792 26.3559 114.045 26.3559 113.213C26.3559 112.381 26.5425 111.64 26.9159 110.989C27.2999 110.328 27.8279 109.816 28.4999 109.453C29.1719 109.08 29.9292 108.893 30.7719 108.893C31.6145 108.893 32.3665 109.08 33.0279 109.453C33.6999 109.816 34.2225 110.328 34.5959 110.989C34.9799 111.64 35.1719 112.381 35.1719 113.213C35.1719 114.045 34.9799 114.792 34.5959 115.453C34.2225 116.104 33.6999 116.616 33.0279 116.989C32.3665 117.362 31.6145 117.549 30.7719 117.549ZM30.7719 116.205C31.3159 116.205 31.8012 116.082 32.2279 115.837C32.6652 115.581 33.0065 115.229 33.2519 114.781C33.4972 114.322 33.6199 113.8 33.6199 113.213C33.6199 112.626 33.4972 112.109 33.2519 111.661C33.0065 111.202 32.6652 110.85 32.2279 110.605C31.8012 110.36 31.3159 110.237 30.7719 110.237C30.2279 110.237 29.7372 110.36 29.2999 110.605C28.8732 110.85 28.5319 111.202 28.2759 111.661C28.0305 112.109 27.9079 112.626 27.9079 113.213C27.9079 113.8 28.0305 114.322 28.2759 114.781C28.5319 115.229 28.8732 115.581 29.2999 115.837C29.7372 116.082 30.2279 116.205 30.7719 116.205ZM46.0139 116.109V119.421H44.5739V117.453H37.4859V119.421H36.0299V116.109H36.4779C37.0219 116.077 37.3952 115.693 37.5979 114.957C37.8005 114.221 37.9392 113.181 38.0139 111.837L38.1419 108.973H44.7179V116.109H46.0139ZM39.4219 111.949C39.3792 113.016 39.2885 113.901 39.1499 114.605C39.0219 115.298 38.7819 115.8 38.4299 116.109H43.1819V110.317H39.5019L39.4219 111.949ZM52.3349 109.261C53.1242 109.261 53.8282 109.437 54.4469 109.789C55.0655 110.141 55.5455 110.632 55.8869 111.261C56.2389 111.88 56.4149 112.589 56.4149 113.389C56.4149 114.21 56.2282 114.941 55.8549 115.581C55.4922 116.21 54.9749 116.701 54.3029 117.053C53.6415 117.405 52.8842 117.581 52.0309 117.581C50.5909 117.581 49.4762 117.09 48.6869 116.109C47.9082 115.117 47.5189 113.725 47.5189 111.933C47.5189 110.194 47.8762 108.834 48.5909 107.853C49.3055 106.861 50.3989 106.205 51.8709 105.885L55.7429 105.021L55.9669 106.429L52.3989 107.197C51.2895 107.442 50.4629 107.858 49.9189 108.445C49.3749 109.032 49.0655 109.874 48.9909 110.973C49.3535 110.429 49.8229 110.008 50.3989 109.709C50.9749 109.41 51.6202 109.261 52.3349 109.261ZM52.0629 116.301C52.6069 116.301 53.0869 116.178 53.5029 115.933C53.9295 115.688 54.2602 115.352 54.4949 114.925C54.7295 114.488 54.8469 113.992 54.8469 113.437C54.8469 112.594 54.5909 111.917 54.0789 111.405C53.5669 110.893 52.8949 110.637 52.0629 110.637C51.2309 110.637 50.5535 110.893 50.0309 111.405C49.5189 111.917 49.2629 112.594 49.2629 113.437C49.2629 113.992 49.3802 114.488 49.6149 114.925C49.8602 115.352 50.1962 115.688 50.6229 115.933C51.0495 116.178 51.5295 116.301 52.0629 116.301ZM66.2726 113.261C66.2726 113.378 66.2619 113.533 66.2406 113.725H59.3606C59.4566 114.472 59.7819 115.074 60.3366 115.533C60.9019 115.981 61.6006 116.205 62.4326 116.205C63.4459 116.205 64.2619 115.864 64.8806 115.181L65.7286 116.173C65.3446 116.621 64.8646 116.962 64.2886 117.197C63.7233 117.432 63.0886 117.549 62.3846 117.549C61.4886 117.549 60.6939 117.368 60.0006 117.005C59.3073 116.632 58.7686 116.114 58.3846 115.453C58.0113 114.792 57.8246 114.045 57.8246 113.213C57.8246 112.392 58.0059 111.65 58.3686 110.989C58.7419 110.328 59.2486 109.816 59.8886 109.453C60.5393 109.08 61.2699 108.893 62.0806 108.893C62.8913 108.893 63.6113 109.08 64.2406 109.453C64.8806 109.816 65.3766 110.328 65.7286 110.989C66.0913 111.65 66.2726 112.408 66.2726 113.261ZM62.0806 110.189C61.3446 110.189 60.7259 110.413 60.2246 110.861C59.7339 111.309 59.4459 111.896 59.3606 112.621H64.8006C64.7153 111.906 64.4219 111.325 63.9206 110.877C63.4299 110.418 62.8166 110.189 62.0806 110.189ZM73.1515 108.893C73.9728 108.893 74.7088 109.074 75.3595 109.437C76.0101 109.8 76.5168 110.306 76.8795 110.957C77.2528 111.608 77.4395 112.36 77.4395 113.213C77.4395 114.066 77.2528 114.824 76.8795 115.485C76.5168 116.136 76.0101 116.642 75.3595 117.005C74.7088 117.368 73.9728 117.549 73.1515 117.549C72.5435 117.549 71.9835 117.432 71.4715 117.197C70.9701 116.962 70.5435 116.621 70.1915 116.173V120.557H68.6555V108.973H70.1275V110.317C70.4688 109.848 70.9008 109.496 71.4235 109.261C71.9461 109.016 72.5221 108.893 73.1515 108.893ZM73.0235 116.205C73.5675 116.205 74.0528 116.082 74.4795 115.837C74.9168 115.581 75.2581 115.229 75.5035 114.781C75.7595 114.322 75.8875 113.8 75.8875 113.213C75.8875 112.626 75.7595 112.109 75.5035 111.661C75.2581 111.202 74.9168 110.85 74.4795 110.605C74.0528 110.36 73.5675 110.237 73.0235 110.237C72.4901 110.237 72.0048 110.365 71.5675 110.621C71.1408 110.866 70.7995 111.213 70.5435 111.661C70.2981 112.109 70.1755 112.626 70.1755 113.213C70.1755 113.8 70.2981 114.322 70.5435 114.781C70.7888 115.229 71.1301 115.581 71.5675 115.837C72.0048 116.082 72.4901 116.205 73.0235 116.205ZM87.2391 108.973L83.1271 118.301C82.7644 119.165 82.3378 119.773 81.8471 120.125C81.3671 120.477 80.7858 120.653 80.1031 120.653C79.6871 120.653 79.2818 120.584 78.8871 120.445C78.5031 120.317 78.1831 120.125 77.9271 119.869L78.5831 118.717C79.0204 119.133 79.5271 119.341 80.1031 119.341C80.4764 119.341 80.7858 119.24 81.0311 119.037C81.2871 118.845 81.5164 118.509 81.7191 118.029L81.9911 117.437L78.2471 108.973H79.8471L82.8071 115.757L85.7351 108.973H87.2391ZM95.1317 110.317H92.0277V117.453H90.4917V110.317H87.3877V108.973H95.1317V110.317ZM108.855 108.973V117.453H107.319V110.317H102.535V117.453H100.999V108.973H108.855ZM115.459 117.549C114.617 117.549 113.859 117.362 113.187 116.989C112.515 116.616 111.987 116.104 111.603 115.453C111.23 114.792 111.043 114.045 111.043 113.213C111.043 112.381 111.23 111.64 111.603 110.989C111.987 110.328 112.515 109.816 113.187 109.453C113.859 109.08 114.617 108.893 115.459 108.893C116.302 108.893 117.054 109.08 117.715 109.453C118.387 109.816 118.91 110.328 119.283 110.989C119.667 111.64 119.859 112.381 119.859 113.213C119.859 114.045 119.667 114.792 119.283 115.453C118.91 116.104 118.387 116.616 117.715 116.989C117.054 117.362 116.302 117.549 115.459 117.549ZM115.459 116.205C116.003 116.205 116.489 116.082 116.915 115.837C117.353 115.581 117.694 115.229 117.939 114.781C118.185 114.322 118.307 113.8 118.307 113.213C118.307 112.626 118.185 112.109 117.939 111.661C117.694 111.202 117.353 110.85 116.915 110.605C116.489 110.36 116.003 110.237 115.459 110.237C114.915 110.237 114.425 110.36 113.987 110.605C113.561 110.85 113.219 111.202 112.963 111.661C112.718 112.109 112.595 112.626 112.595 113.213C112.595 113.8 112.718 114.322 112.963 114.781C113.219 115.229 113.561 115.581 113.987 115.837C114.425 116.082 114.915 116.205 115.459 116.205ZM130.701 116.109V119.421H129.261V117.453H122.173V119.421H120.717V116.109H121.165C121.709 116.077 122.083 115.693 122.285 114.957C122.488 114.221 122.627 113.181 122.701 111.837L122.829 108.973H129.405V116.109H130.701ZM124.109 111.949C124.067 113.016 123.976 113.901 123.837 114.605C123.709 115.298 123.469 115.8 123.117 116.109H127.869V110.317H124.189L124.109 111.949ZM137.998 117.453L135.55 114.205L133.07 117.453H131.358L134.702 113.117L131.518 108.973H133.23L135.566 112.029L137.886 108.973H139.566L136.366 113.117L139.742 117.453H137.998ZM144.991 117.549C144.148 117.549 143.391 117.362 142.719 116.989C142.047 116.616 141.519 116.104 141.135 115.453C140.761 114.792 140.575 114.045 140.575 113.213C140.575 112.381 140.761 111.64 141.135 110.989C141.519 110.328 142.047 109.816 142.719 109.453C143.391 109.08 144.148 108.893 144.991 108.893C145.833 108.893 146.585 109.08 147.247 109.453C147.919 109.816 148.441 110.328 148.815 110.989C149.199 111.64 149.391 112.381 149.391 113.213C149.391 114.045 149.199 114.792 148.815 115.453C148.441 116.104 147.919 116.616 147.247 116.989C146.585 117.362 145.833 117.549 144.991 117.549ZM144.991 116.205C145.535 116.205 146.02 116.082 146.447 115.837C146.884 115.581 147.225 115.229 147.471 114.781C147.716 114.322 147.839 113.8 147.839 113.213C147.839 112.626 147.716 112.109 147.471 111.661C147.225 111.202 146.884 110.85 146.447 110.605C146.02 110.36 145.535 110.237 144.991 110.237C144.447 110.237 143.956 110.36 143.519 110.605C143.092 110.85 142.751 111.202 142.495 111.661C142.249 112.109 142.127 112.626 142.127 113.213C142.127 113.8 142.249 114.322 142.495 114.781C142.751 115.229 143.092 115.581 143.519 115.837C143.956 116.082 144.447 116.205 144.991 116.205ZM160.233 116.109V119.421H158.793V117.453H151.705V119.421H150.249V116.109H150.697C151.241 116.077 151.614 115.693 151.817 114.957C152.019 114.221 152.158 113.181 152.233 111.837L152.361 108.973H158.937V116.109H160.233ZM153.641 111.949C153.598 113.016 153.507 113.901 153.369 114.605C153.241 115.298 153.001 115.8 152.649 116.109H157.401V110.317H153.721L153.641 111.949ZM169.034 108.973V117.453H167.658V114.765H165.194H165.018L163.162 117.453H161.514L163.578 114.557C162.938 114.365 162.447 114.05 162.106 113.613C161.764 113.165 161.594 112.61 161.594 111.949C161.594 110.978 161.924 110.242 162.586 109.741C163.247 109.229 164.159 108.973 165.322 108.973H169.034ZM163.162 111.997C163.162 112.562 163.338 112.984 163.69 113.261C164.052 113.528 164.591 113.661 165.306 113.661H167.658V110.317H165.37C163.898 110.317 163.162 110.877 163.162 111.997ZM184.11 108.973V117.453H172.03V108.973H173.566V116.109H177.31V108.973H178.846V116.109H182.574V108.973H184.11ZM185.374 116.109V119.261H183.934V117.453H182.51V116.109H185.374ZM187.093 108.973H188.629V115.149L193.829 108.973H195.221V117.453H193.685V111.277L188.501 117.453H187.093V108.973ZM198.202 108.973H199.738V115.149L204.938 108.973H206.33V117.453H204.794V111.277L199.61 117.453H198.202V108.973ZM202.17 107.869C201.381 107.869 200.768 107.682 200.33 107.309C199.893 106.925 199.669 106.376 199.658 105.661H200.698C200.709 106.056 200.842 106.376 201.098 106.621C201.365 106.856 201.717 106.973 202.154 106.973C202.592 106.973 202.944 106.856 203.21 106.621C203.477 106.376 203.616 106.056 203.626 105.661H204.698C204.688 106.376 204.458 106.925 204.01 107.309C203.562 107.682 202.949 107.869 202.17 107.869ZM219.385 113.053C220.483 113.33 221.033 114.018 221.033 115.117C221.033 115.864 220.75 116.44 220.185 116.845C219.63 117.25 218.798 117.453 217.689 117.453H213.609V108.973H217.545C218.547 108.973 219.331 109.165 219.897 109.549C220.462 109.922 220.745 110.456 220.745 111.149C220.745 111.597 220.622 111.986 220.377 112.317C220.142 112.637 219.811 112.882 219.385 113.053ZM215.113 112.621H217.417C218.003 112.621 218.446 112.514 218.745 112.301C219.054 112.088 219.209 111.778 219.209 111.373C219.209 110.562 218.611 110.157 217.417 110.157H215.113V112.621ZM217.577 116.269C218.217 116.269 218.697 116.168 219.017 115.965C219.337 115.762 219.497 115.448 219.497 115.021C219.497 114.584 219.347 114.258 219.049 114.045C218.761 113.832 218.302 113.725 217.673 113.725H215.113V116.269H217.577ZM226.461 108.893C227.634 108.893 228.53 109.181 229.149 109.757C229.778 110.333 230.093 111.192 230.093 112.333V117.453H228.637V116.333C228.381 116.728 228.013 117.032 227.533 117.245C227.063 117.448 226.503 117.549 225.853 117.549C224.903 117.549 224.141 117.32 223.565 116.861C222.999 116.402 222.717 115.8 222.717 115.053C222.717 114.306 222.989 113.709 223.533 113.261C224.077 112.802 224.941 112.573 226.125 112.573H228.557V112.269C228.557 111.608 228.365 111.101 227.981 110.749C227.597 110.397 227.031 110.221 226.285 110.221C225.783 110.221 225.293 110.306 224.813 110.477C224.333 110.637 223.927 110.856 223.597 111.133L222.957 109.981C223.394 109.629 223.917 109.362 224.525 109.181C225.133 108.989 225.778 108.893 226.461 108.893ZM226.109 116.365C226.695 116.365 227.202 116.237 227.629 115.981C228.055 115.714 228.365 115.341 228.557 114.861V113.677H226.189C224.887 113.677 224.237 114.114 224.237 114.989C224.237 115.416 224.402 115.752 224.733 115.997C225.063 116.242 225.522 116.365 226.109 116.365ZM237.355 108.893C238.176 108.893 238.912 109.074 239.563 109.437C240.213 109.8 240.72 110.306 241.083 110.957C241.456 111.608 241.643 112.36 241.643 113.213C241.643 114.066 241.456 114.824 241.083 115.485C240.72 116.136 240.213 116.642 239.563 117.005C238.912 117.368 238.176 117.549 237.355 117.549C236.747 117.549 236.187 117.432 235.675 117.197C235.173 116.962 234.747 116.621 234.395 116.173V120.557H232.859V108.973H234.331V110.317C234.672 109.848 235.104 109.496 235.627 109.261C236.149 109.016 236.725 108.893 237.355 108.893ZM237.227 116.205C237.771 116.205 238.256 116.082 238.683 115.837C239.12 115.581 239.461 115.229 239.707 114.781C239.963 114.322 240.091 113.8 240.091 113.213C240.091 112.626 239.963 112.109 239.707 111.661C239.461 111.202 239.12 110.85 238.683 110.605C238.256 110.36 237.771 110.237 237.227 110.237C236.693 110.237 236.208 110.365 235.771 110.621C235.344 110.866 235.003 111.213 234.747 111.661C234.501 112.109 234.379 112.626 234.379 113.213C234.379 113.8 234.501 114.322 234.747 114.781C234.992 115.229 235.333 115.581 235.771 115.837C236.208 116.082 236.693 116.205 237.227 116.205ZM243.874 108.973H245.41V115.149L250.61 108.973H252.002V117.453H250.466V111.277L245.282 117.453H243.874V108.973ZM258.008 108.893C259.181 108.893 260.077 109.181 260.696 109.757C261.325 110.333 261.64 111.192 261.64 112.333V117.453H260.184V116.333C259.928 116.728 259.56 117.032 259.08 117.245C258.61 117.448 258.05 117.549 257.4 117.549C256.45 117.549 255.688 117.32 255.112 116.861C254.546 116.402 254.264 115.8 254.264 115.053C254.264 114.306 254.536 113.709 255.08 113.261C255.624 112.802 256.488 112.573 257.672 112.573H260.104V112.269C260.104 111.608 259.912 111.101 259.528 110.749C259.144 110.397 258.578 110.221 257.832 110.221C257.33 110.221 256.84 110.306 256.36 110.477C255.88 110.637 255.474 110.856 255.144 111.133L254.504 109.981C254.941 109.629 255.464 109.362 256.072 109.181C256.68 108.989 257.325 108.893 258.008 108.893ZM257.656 116.365C258.242 116.365 258.749 116.237 259.176 115.981C259.602 115.714 259.912 115.341 260.104 114.861V113.677H257.736C256.434 113.677 255.784 114.114 255.784 114.989C255.784 115.416 255.949 115.752 256.28 115.997C256.61 116.242 257.069 116.365 257.656 116.365ZM264.405 108.973H265.941V112.573H270.773V108.973H272.309V117.453H270.773V113.901H265.941V117.453H264.405V108.973ZM281.616 110.317H278.512V117.453H276.976V110.317H273.872V108.973H281.616V110.317ZM4.53748 143.549C3.69481 143.549 2.93748 143.362 2.26548 142.989C1.59348 142.616 1.06548 142.104 0.681481 141.453C0.308147 140.792 0.121481 140.045 0.121481 139.213C0.121481 138.381 0.308147 137.64 0.681481 136.989C1.06548 136.328 1.59348 135.816 2.26548 135.453C2.93748 135.08 3.69481 134.893 4.53748 134.893C5.38015 134.893 6.13215 135.08 6.79348 135.453C7.46548 135.816 7.98815 136.328 8.36148 136.989C8.74548 137.64 8.93748 138.381 8.93748 139.213C8.93748 140.045 8.74548 140.792 8.36148 141.453C7.98815 142.104 7.46548 142.616 6.79348 142.989C6.13215 143.362 5.38015 143.549 4.53748 143.549ZM4.53748 142.205C5.08148 142.205 5.56681 142.082 5.99348 141.837C6.43081 141.581 6.77215 141.229 7.01748 140.781C7.26281 140.322 7.38548 139.8 7.38548 139.213C7.38548 138.626 7.26281 138.109 7.01748 137.661C6.77215 137.202 6.43081 136.85 5.99348 136.605C5.56681 136.36 5.08148 136.237 4.53748 136.237C3.99348 136.237 3.50281 136.36 3.06548 136.605C2.63881 136.85 2.29748 137.202 2.04148 137.661C1.79615 138.109 1.67348 138.626 1.67348 139.213C1.67348 139.8 1.79615 140.322 2.04148 140.781C2.29748 141.229 2.63881 141.581 3.06548 141.837C3.50281 142.082 3.99348 142.205 4.53748 142.205ZM15.4755 135.261C16.2648 135.261 16.9688 135.437 17.5875 135.789C18.2061 136.141 18.6861 136.632 19.0275 137.261C19.3795 137.88 19.5555 138.589 19.5555 139.389C19.5555 140.21 19.3688 140.941 18.9955 141.581C18.6328 142.21 18.1155 142.701 17.4435 143.053C16.7821 143.405 16.0248 143.581 15.1715 143.581C13.7315 143.581 12.6168 143.09 11.8275 142.109C11.0488 141.117 10.6595 139.725 10.6595 137.933C10.6595 136.194 11.0168 134.834 11.7315 133.853C12.4461 132.861 13.5395 132.205 15.0115 131.885L18.8835 131.021L19.1075 132.429L15.5395 133.197C14.4301 133.442 13.6035 133.858 13.0595 134.445C12.5155 135.032 12.2061 135.874 12.1315 136.973C12.4941 136.429 12.9635 136.008 13.5395 135.709C14.1155 135.41 14.7608 135.261 15.4755 135.261ZM15.2035 142.301C15.7475 142.301 16.2275 142.178 16.6435 141.933C17.0701 141.688 17.4008 141.352 17.6355 140.925C17.8701 140.488 17.9875 139.992 17.9875 139.437C17.9875 138.594 17.7315 137.917 17.2195 137.405C16.7075 136.893 16.0355 136.637 15.2035 136.637C14.3715 136.637 13.6941 136.893 13.1715 137.405C12.6595 137.917 12.4035 138.594 12.4035 139.437C12.4035 139.992 12.5208 140.488 12.7555 140.925C13.0008 141.352 13.3368 141.688 13.7635 141.933C14.1901 142.178 14.6701 142.301 15.2035 142.301ZM29.0829 134.973L24.9709 144.301C24.6082 145.165 24.1815 145.773 23.6909 146.125C23.2109 146.477 22.6295 146.653 21.9469 146.653C21.5309 146.653 21.1255 146.584 20.7309 146.445C20.3469 146.317 20.0269 146.125 19.7709 145.869L20.4269 144.717C20.8642 145.133 21.3709 145.341 21.9469 145.341C22.3202 145.341 22.6295 145.24 22.8749 145.037C23.1309 144.845 23.3602 144.509 23.5629 144.029L23.8349 143.437L20.0909 134.973H21.6909L24.6509 141.757L27.5789 134.973H29.0829ZM37.4235 134.973V143.453H35.8875V140.029C34.9701 140.456 34.0581 140.669 33.1515 140.669C32.0955 140.669 31.2795 140.424 30.7035 139.933C30.1275 139.442 29.8395 138.706 29.8395 137.725V134.973H31.3755V137.629C31.3755 138.216 31.5568 138.658 31.9195 138.957C32.2928 139.256 32.8101 139.405 33.4715 139.405C34.2181 139.405 35.0235 139.218 35.8875 138.845V134.973H37.4235ZM48.0695 139.261C48.0695 139.378 48.0588 139.533 48.0375 139.725H41.1575C41.2535 140.472 41.5788 141.074 42.1335 141.533C42.6988 141.981 43.3975 142.205 44.2295 142.205C45.2428 142.205 46.0588 141.864 46.6775 141.181L47.5255 142.173C47.1415 142.621 46.6615 142.962 46.0855 143.197C45.5201 143.432 44.8855 143.549 44.1815 143.549C43.2855 143.549 42.4908 143.368 41.7975 143.005C41.1041 142.632 40.5655 142.114 40.1815 141.453C39.8081 140.792 39.6215 140.045 39.6215 139.213C39.6215 138.392 39.8028 137.65 40.1655 136.989C40.5388 136.328 41.0455 135.816 41.6855 135.453C42.3361 135.08 43.0668 134.893 43.8775 134.893C44.6881 134.893 45.4081 135.08 46.0375 135.453C46.6775 135.816 47.1735 136.328 47.5255 136.989C47.8881 137.65 48.0695 138.408 48.0695 139.261ZM43.8775 136.189C43.1415 136.189 42.5228 136.413 42.0215 136.861C41.5308 137.309 41.2428 137.896 41.1575 138.621H46.5975C46.5121 137.906 46.2188 137.325 45.7175 136.877C45.2268 136.418 44.6135 136.189 43.8775 136.189ZM50.4524 134.973H51.9884V138.573H56.8204V134.973H58.3564V143.453H56.8204V139.901H51.9884V143.453H50.4524V134.973ZM61.343 134.973H62.879V141.149L68.079 134.973H69.471V143.453H67.935V137.277L62.751 143.453H61.343V134.973ZM79.2524 134.973V143.453H77.8764V140.765H75.4124H75.2364L73.3804 143.453H71.7324L73.7964 140.557C73.1564 140.365 72.6657 140.05 72.3244 139.613C71.983 139.165 71.8124 138.61 71.8124 137.949C71.8124 136.978 72.143 136.242 72.8044 135.741C73.4657 135.229 74.3777 134.973 75.5404 134.973H79.2524ZM73.3804 137.997C73.3804 138.562 73.5564 138.984 73.9084 139.261C74.271 139.528 74.8097 139.661 75.5244 139.661H77.8764V136.317H75.5884C74.1164 136.317 73.3804 136.877 73.3804 137.997ZM82.5852 143.549C82.2866 143.549 82.0306 143.448 81.8172 143.245C81.6039 143.032 81.4972 142.765 81.4972 142.445C81.4972 142.136 81.6039 141.88 81.8172 141.677C82.0306 141.464 82.2866 141.357 82.5852 141.357C82.8839 141.357 83.1346 141.458 83.3372 141.661C83.5399 141.864 83.6412 142.125 83.6412 142.445C83.6412 142.765 83.5346 143.032 83.3212 143.245C83.1186 143.448 82.8732 143.549 82.5852 143.549Z" fill="black"/>
</svg>
